<mxfile host="app.diagrams.net" modified="2022-12-09T01:48:17.912Z" agent="5.0 (Windows NT 10.0; Win64; x64) AppleWebKit/537.36 (KHTML, like Gecko) Chrome/108.0.0.0 Safari/537.36" version="20.6.0" etag="SiPx_j748Nmv03HlXG2h" type="github">
  <diagram id="fFCjzXycdMlGCBuikqNn" name="第 1 页">
    <mxGraphModel dx="1559" dy="934" grid="1" gridSize="10" guides="1" tooltips="1" connect="1" arrows="1" fold="1" page="1" pageScale="1" pageWidth="827" pageHeight="1169" math="0" shadow="0">
      <root>
        <mxCell id="0" />
        <mxCell id="1" parent="0" />
        <mxCell id="uq-xYKgkHuC4XFjGFnDX-43" value="" style="shape=image;verticalLabelPosition=bottom;labelBackgroundColor=default;verticalAlign=top;aspect=fixed;imageAspect=0;image=data:image/png,iVBORw0KGgoAAAANSUhEUgAAAwkAAAE0CAYAAABn4H/WAAAgAElEQVR4nOy92ZMcx3X/+zmZVdXb9GzAYCdAkBRBkJS4SLQsWfa9sqVw+N5whK4cckgRDj/YfnD4P3D4zfY/YP8BfnB4C++WHZIc5s+WbC22ZYnUYoogRQIEQSwzGMzaa1XmuQ9V1dMDYpnBDDDTjfwwmtPT093IyqrKzJPnnO8RVVV2Ae89IoKqYozZ9DdVRURwzmGtZfifFJHB52/+XCAQCAQCgUAgEHjwRLv5Zd57er0eURSRJMmmv3U6HbrdLlNTU6gq6+vrdLtdkiSh0WgQxzFpmhLH8W42KRAIBAKBQCAQCGyTXTMSvPe88847fO1rX+P555/nxRdfHPyt3+/zt3/7tywuLvJbv/VbXL16lX/5l3/h3XffpVar8dnPfpbjx49TrVZ3qzmBQCAQCAQCgUDgHtmV+B5V5a233uJv/uZv+OY3v8nS0tIgpEhV+da3vsU//dM/cfHiRbrdLt/85jdZWVnh85//PAcOHOCv/uqv8N7vRlMC95ldik4L3GfCedqfhPOyv1HVcI72MeU6IZyj/cnwui+w/7iX8W3XjISVlRWOHDnCU089telCOX/+PP/+7//OT/3UT+G9p9vtMj8/zyOPPMITTzzBJz/5Sc6dO8f6+vrgM8Fg2N+EiXT/Ut4/3vtwjvYZ5fkI52d/E8a3/Ul5XoYfgf3D8PgWzs3+ZPgcbZVdCTcyxvDMM89w8uRJvvjFLwJ5QvLq6ip///d/zyc+8QnSNOXChQukaYqI0Gw2Bz/X19fpdDqDG391dZXvfOc7XL16lSja1bSJwA7x3mOtHZyvWq22100KDFEKCLRaLZIkeV9uUGDv8d7TarWoVqshB2ufUU6ia2tr1Ov1MP/sM4bHt1qthrV2r5sUGKJcfLZaLRqNRhCj2UeUAkIAExMTfOpTn6JSqdz1c7s2AtZqNbrdLsBAyegf//EfWVhYII5j3njjDa5fv86lS5cGO2llg6Mowjk3OJBut0un0+HJJ5/k4MGDu9XEwC5QXmjf/va3mZiY4OzZs3vdpMAt+PrXv87Ro0d5/PHH97opgSHKRejXvvY1Tp06xYkTJ/a4RYFhyo2ql19+mccff5zDhw/vdZMCN+G955//+Z954YUXmJmZ2evmBIZQVZxzfOUrX+GjH/0oExMTe92kwBCqSpZlfPWrXyXLsgdrJBhjcM4Nwh2yLBvswrz88stcvHiRa9euce7cOYwxrK+v45zjxo0bVKtVDh8+PJBI9d5TrVY5fvw4x44d260mBnaBcpHz9ttvMz09zenTp/e4RYGbUVV+9KMfcfTo0XB+9hnl/fPqq6+G87NPUVVmZmY4ceJEMOL2Ic45pqameOSRR5ibm9vr5gRuotfrMTk5ycmTJ5mamtrr5gRuotVqbctDumtGwnAegveeOI757Gc/y2c+8xkgNxS+/OUv80u/9Eu8/PLL/Pd//zenT5/mS1/6Ei+99BJRFBFFUYhlCwQCY08Y5wKBQCDwoNnu3LNrRoKIUK1WOXPmDHNzc4jIIN7We8+JEyf42Mc+RrVa5ROf+ATtdps/+ZM/4fTp0/zyL/8ylUplUwhSIBAIBAKBQCAQ2Bt2tU7C5OQkn/zkJzfJlJVWy3PPPcdzzz2HqjI1NcXnPvc5Pve5z2GMCbtqgUAgENgXhPlo/xLOTSDwYNnVnIRbPb/ZMyAit3yt/FwYBPY3IhIk6EaAICO8fyk9psFruv8ox7Vw/+xPSnnNMP/sT1R1U35qYPQJ+m6Be2JiYoJ6vb7XzQjchsnJyVDBfB9SLm6mp6eDPO0+ozw3xhgmJyeD/Ok+o1TWE5FwfvYpIoIxhpmZmSBPOyaEuyywLcqB+sknnwwa7/uYZ555JhgJ+xARwVrLhz70IRqNxl43JzDEsGfnxRdfZHp6eg9bE7gdIsJLL70U5DX3KSLCRz/60VBDaUwIRkJgW5QT6ezs7B63JHA7RIQDBw7sdTMCt6C8f0L9l/1JeX6OHDmyxy0J3EzpRVBVjh49utfNCdwGEQnS9WNEKIcXCAQCgUBgJAi5PPubcH7Gi2AkBAKBQCAQCAQCgU0EIyEQCAQCgUAgEAhsIhgJgUAgEAgEAoFAYBPBSAgEAoFAIBAIBAKbCEZCIBAIBAKBQCAQ2EQwEgKBQCAQCAQCgcAmgpEQCAQCgUAgEAgENhGMhEAgEAgEAoFAILCJYCQEAoFAIBAIBAKBTQQjIRAIBAKBQCAQCGwiGAmBQCAQCAQCgUBgE8FICAQCgUAgEAgEApsIRkIgEAgEAoGRQoefqIIqCjggf6bD7woEAvdAMBICgUAgEAiMFG7wxEPqIVNSB8sOut6DzwAPDJsLwXAIBLZDMBICgUAgEAiMFIPFiwgYQyqGd6+v841X3+bywioqBi3sASkew88CgcDdCUZCIBAIBAKBkcKUXgEjqBU6Xrm01OPtq+tcW+7Sc4LHoOopPQhK6VsIBAJbYdeMBC1MdlUdPG7395tf996/7/VAIBAIBAKBW1Ms/AVSgbZztJ1y6OgJOj6mlWaoCIKCbmQqBAKBrbPrngQRGTxKA6B83XuPSO7qKw2D4fcGAoFAIBAI3BU1gMGT5yekLkWzDscO1Oh0O6z3UjIFinRmVaX0KQQCga2xa0ZCufgvKQ0AYwz9fj//x4zZZByUOOcwJkQ+BQKBQCAQ2Bq5L8EjeFyvi3aXONaI8M7R85qnHzgH6jd9JhAIbI1ot75IVen1erz77rtMTk4yNzeHqnLjxg1effVV1tbWePrpp3niiSdwznHhwgXeeust5ubmePbZZ4miXWtKIBAIBAKBhwBf/N9lXUy2ztxUzOsK7UzxSp7YDAzrGwUCga2xayvzdrvNK6+8wl/8xV/w2c9+lp/5mZ9hZWWF3//93+fgwYNMT0/zpS99iV/91V/FGMM//uM/Mjc3x5tvvskv/uIv8vM///NEUTQIPcqy7JYhSKUX4mZvRCAQCAQCgYcDL3mwUYJjnZhVKrh4irpx1KuOnoMMwCTgPUgemCQYgsJRYBwp18VldM6t1siqOlhrb4VdMRK897zyyiv81V/91eAfjqKId999l8cee4zf/M3fRET4y7/8S/71X/+VY8eO8cwzz/CFL3yBV155hT/6oz/ik5/8JNbawXeKCFmWkabpptf6/T6VSiWEJwUCgUAgEMArdFJDvVbFGiGKIpxT0LyMgg02QeAhoMz9NcYMNttLVHXwepqmW84D3hUjQUSYm5vjN37jN/iv//qvQd7B2bNneeyxx4jjmMXFRc6fP8/s7CzdbpfDhw8jIpw8eZLl5WUWFhY4efLk4DuXl5d57bXXWFhYeN+/F8cxx48f5+DBg7vR/EAgEAgEAiOK9540TanVaoAyUauz2mrjXANvLNbkvoOwtRgYd8pIm3PnztFqtQavl0ZCv9/f9Prd2JV7RkQ4c+YMR44cGVgnIrk132w2mZ+f58/+7M8wxgw8BrVaDRGhUqmQpin9fn/ghSh/lq/f/Oj1egPVpEAgEAgEAg8v6vPd0UqlgiLMTjVZvrFImmVgQYsaaiHQKPAwUBoDw48sy+j3+3S73W2pie5qtvDN8qciwvnz5/nTP/1TKpUKv/Irv0K9XifLMjqdDgCdTocoipiamtokkXrgwAGefvppjh07tptNDAQCgUAgMEZ4zT0J8eQEAM1GQqe9jvMeT57cXBoIogRLITC2lGvo55577pZ/b7fbXLhwYcvft6vet+HCaKrKwsICf/iHf8jhw4f5/Oc/z+zsLMYYms0mV69eZX19ne9973scO3aMRqMREpEDgUAgEAhsC9VcSt1aiwCVCOLI0Pd5DYVB3EGQNgoEtsV98SQYYzDG8I1vfINXXnmFS5cu8R//8R8YY/jpn/5pPvKRj/DXf/3X/O7v/i6rq6v82q/9GtVqdTebEggEAoFA4KFAB0YC5InK9bhCp5vhJ3IlpOJtOWE/MhDYErtqJMzMzPCFL3wBay3eez796U/zsY99bNN7qtUqzWaTU6dOsbCwQLPZZG5ubnBzh8rLgcDDgUcx2gMglYQMQ5Ueki2COcImR+fwpB4m+EDgjmQMhdeQr43LasPjVZHIAXl4s3eWKEpAU2IxNOoV1npCBkygoH28qeAQ4r1udiCwR5TRPltlV8cLay0TExODBjSbTZrN5i3fOzU1xfT09CDjGtiUkxAIBB4WBE8+mSsWMQmIyVc0YTgIBLZNKSYuQz/HWtlHFe8dUWRA8koIcRzR6XaBxl63LhAYWe7LuFEu9MvchGHKvIWy0MNwvYNgIAQCDxsGxdJToZV5OkSoJHgBb3JVEg3DQiCwLXKzu/QdAOjQa+NHrgnfI05ARUCEWq1Gt9sNeQiBwA64L0ZCqWxUPoa52TC4+W+BQOBhQvAiLHU8331jntXU0ZM6faCvkGoeOuEkjysOBkMgsAW8y5N5EdLiJwqo2+uW7Ro6tPpXzSMRIls8B6q1Wl40au+aGAiMPPclPDEs9gOBwNYweISF5Q7fevV1Tj86w+pyh26rjYhQS2IOHZiinsSDHY0wugQCd0JRhRRhfnmdlbUWiTU8cmiGajQ+d4+qkts+mvtMvMPKRg5GrVrNNeGDmRAI3DPjlcMUCARGhqJ0IopwfXmNlZ7SV/if77/Jo4cOYI3Sa3VQ9Zw6digYB4HAlhCcWNa6Ka9fXKTvMzqrK8RRxCOHpgb5CmOBKoghc0qWprmBUOQyVasJ7U47r4sQCATuibHOZQoEAvscySOlV1pt6lMHWHWW5XbKk2cf48kzp5mcnWZ5bS2PlABCgHEgcHecGOZX11lP+zz21Cmm5g5x8doyPTde94/3eY5FloGNNu951qqWdqsVFBMDgR0QjIR7RkG7t3+UZR6L1Y0nF2vLGKdlzsayrTy+tHi44jePkgJ98mOHlEx7rALOZ5B1Yagq5jjl1fk7PMbnGrhHvKfTb3ERIe1DHHuqc4dYvGipzdQ5ZFOmrNCoxrQzpad5nxnGJ6b6nlEHrgs+Be/zoYji2lKFNMP7/E84D2kPnGfM1oeBO+C80ukqsxNVDlcjnphrsrh4nRvOjc3YY8XjTUJHc6/JVDWhClgxRHhiUbrdLhlKmusdIWrCoicQ2AbhfrlnBCeV2z5uxbgMzhvI4P+lxF75kEK1Zvh1gL5GXG8Jb13u4LSMHtWNneIxiimRuzweasQjktLL4Ns/fAPfbnFodoofXLjG8QOHiL0nFsEaIc2ENNgGA1Qs3lZAolwqFhDvMd5h1OOMpeWga8BLEaQtgnvoL7qHB5c52u0Ok406VYGjs02yLGNtjDZhBFAxZEC3n1KrJMXck/8HYCNLVoQ0Ds9XgUBgawQj4R5R8sSw2z02rQRlePE8PoPUsNFTyutZzbCa4dXTw6B4LF0iUhww30v5m//zP7z6wx/T6cumzjAAOj6zWNknt3o89Agkkad9bYl1PC89eZoPzNX47sLbnJw8lCujAfVqFRDW11t73eJ9gwO6CF0RsmHFJ/U4n3G5lfHmYo+X/+cC7ywso9aACdfcw0TqMrrdLvVKBVGw1hBFEQtLe92y3UcUOp0O9Xp90+sK1Ot1Ot29aVcgMA6ExOV7RIDojr4B2fSjfDouBkLJpnpX6gCfL1YkouPyhXJFPBhDpsq5dzvUj55m0haLGzFsyiwTx9jYrncyeGQcr4btYbxBOn2SqQqzk3UO9eHNa+c5MfFRMELmPfV6nSiKaLVaMN1AvUOM5WHuuwiwhffNI6RAhsGLYaXV5h9e/g86URMVw4lDdU6KDN4fGH/K6wIxWGuxkhdXmz0wx2pLx6pIYemH7vf7TExNDL2ah99VqhX6/XDlBwL3SjAS7hkl8v3b/tWbBBTM0Gg8WAuPyQB982EoFsUgKD0v/Nf3ztGwhheffozEJKz3U95++00ef/YZrl65gRopFsvDOCB+QEdwf9EiFAQF9R6xQ4UDx+UiuEc8hh5V+q5LIkqiShX40KNHqFtQ54lsnFdQBfr9fr62ecgNBAD1fcS3EamSSsxiu8/5RUfLJVy/scpHXjjL7OnjvPrDd+g6xSEY/LiY3oEtkKriVUkiCz6P1Zs9eJAL762jVMbmDhrIIhf1l7zmcqhGlAilUW/Q6XSA5h62MhAYXYKRsE1KpQQRwZnbi8llvpyUDWZs60aUO+X5EiQVSF0eH3rhygLLLceizzjW98Qe3njjCqcPT3O8Du9hcSKobCyXBceoZy4PXx+Zmo1Nu2ICK6+FiId7qSsY1l2V61LlcA1i22XSWv6/s49TSVIG8cMGwOH9w91fZfV6EUHF0jdV2j24NL/AW5euUZ+axdameOzYDM8fjVgCYjy2MA4EsPnyaW8PJPBAcKo4p0TWYEVBlenpCZZfX0R1BsQMrqdxoNfrESezRZhimZMgVKtV2u02wUgIBO6NYCRsExHBOcfSyirXfXLb99WyFapJhZmpaWJrcy/CmHkSco1qRcmTx9adcnVhnYtXb9Dtdjj96FHeuNLmB1d7rCy3mDYZn3z2MZbX1vEim1R+NuskjS4igveelZUVbvQ81UqFqakGCHQ7KSurLWxkODo9QWLHSrF8W6iH9250ON/qc2ZqAiWlFnn+3zOPEiUreFfNDSwBEQ0yhuRyj2tra1xa7XIhrdLvdqGzwjNPnubUwQZCitWMyKdMmAlqPvfQCORezXEZdwJ3xavinCMSQbwDgUZd6fRS0jTDJPHYGAho7mmsJJX3hfRWq9XCkxAIBO6FYCTciWLN6mz+xHhB1DDfM/zrG+9yrHngth+NslXWOykfenaaQxNKrLnL14sd0l4YdQRchhhHRsJrl9tcubbGkVrEC0+cZqKRUDUR71xd5gDKR595jEbkWTOl70ERVRAputpgZJR2OhV8H28qeMB6h+BZ14gvv36V2YkGa6tX+ciHnqSZeM6/+y6Xl1OWtM6nn65ytGmRtIvGFbLimrDq8mtDRt+A2LCJtahwRF74SGGlnfKjH7/H0YOTHJioAEpVPbFVMmLERFgclVLhCCEDIs0QGf+QIwVQj6gDMfTFstB1fOfVN5icOYBY4UizzqOPH+JAzVLFFX2shZILWGMQs3E/eST4ER4CBLBeaIthQjJ64rE+oSIpR6twfh1OHxCq6gBFi/upvNZG595KcVjaQD9TElEi9ZQFGiOBZiJcvtGhD4gY8iMNHrVAYKsEI+FODGocKIrDqAUPb1xZYak6zadOztz2oz0/w+vvrvHjKyvMfGCGWPJJXMWOzBB8d4oJRVP6kvCd18/z8Y98gKfqhsko1+N+5vAEp5uGarVKklCEjcREKEYVGZI/9RjMqNUD1T5KBUeeTAqeyystrpopnn9kllde7/LOYotT08J6p8OR40d5970e11ZTDk8kWM2ABFcaCTjK4JBxYCNHslzA5gnsi2sdrFF+6vRB6olgtYJFcLHgqBMJWFISDMZYMil6Rt3orGF2QN5vCpqCSegpXF43dKTKJ546xXScJ6VuYEFquWdPezgBteCHFNb0Yei4AJCLWbURapKxbAwVZ0m0zVNHZvjfq12OH0ioFlVbtBhrRm/xnKFAjzyTLREtEvQLI1mVg806b/z4Ailginy5OwuOBAKBYYKRcCcK36WBPCFXDN7AytIyjxw+xIFm/bYf7QFHepYLFy+hzBafH+1QmptRBTExKoaVtR691UUemXmWqs8NIhEhiiImJyeL9+eviQhG7BionQrIRi0IweLVcO3aNU4ePMSpZsyNuWkWOykLNUNPKnzg8AyrvSXa7Tapq2OjJI+9GXhQxnghJwanebz00vIqsxNV6hWLqN+UwH5zDxhjcvWecSuksRUkFwTwQGutzbFDB2lWY8xQjkIgcDMqSuocWDvwWxvxHJie4ns/vorQLAbwPW7oDilVBlV1w2iWUhhCmJpqsLKyPAhtHfHDDQQeOKO0bfDgKVZ/FsFicAiphZXlJR6brRHhb/uIgYkqtFqtfICS4ZJiY4KAE6FHxA9fO8cLZx6loWBUNoXLeJ9bA6WBICKIkSLOXEe7ypyJMOTWtkfIjOHq1as8dtBTcascmqqxsLRKWyK8rVIzhiemIuavL9HKNoyD0sk/XPRnrBAZ5K5kqqy0u8xN1bEK6hXVXLLxVndJrlpi8miah21RLBEOcCjLSzeYm5nKQyaK+ygQuBVelb7Pje9yRFH1TE8bri9ep7A+IRv9KoUCeK/YyA7qq6gqipLY/D7ppUMezVGebwKBB8yYrVp3F6V01wuCwRnoqHLj+jzHG+Q7wLd5JEA9AueVni90q5GxWgKqQB9oq3Lx8jWeeewoNYFIDMPhMsbc4jJTRYv40VHuEEcEZIgq3kBHIY4SJsVgjGeuWWVtZY00UyJVGgZmY+hmkJbXlurGjSi3koUdTUoPS/mb0+KaKTwJh6dqWMCIbJI2lZu+w4rgfR6qNgbup+3h81T+TGFx8TpzsxNbCkTLU0AM3gtaSPCOa6UELZJ0Id+QCEnu+TXTz8pAzrw/LJ7JGlhjSctt9VuNzSOGKjjnNhnNIjKQH5+enqbVysivkNGebwKBB83ojxD3EY+S4cArOOg4z7fPXWB2aoqJYufztg/fxRohimssrRVxkiOVlHt3VOH6asb/+fY7HD/1KIfrEbFvAVuJGxf8GEzmfQRweV6GV16/uIrTmNlIEElQhKkk4cobVzhUi4h8xkSjTtcb2hl50qDIpsX0uM5iIpB65Y131lltdZhtVHIpWCnNCXOTYVF+brhPxrNvbsZ7xSOoGPoe3rjQwmUZE7FD0/bdv6CwNbXIGS+lIccRERmEmhhjHnoPiwKZGpJKpZhzDGie42IUpmdmuHGjP/obEpqbvY7Ss2aG/rRhHB09epR3Ll4c06s/ELi/jNeq9T7g8QNllh+dv8Q7V67y0oefJ8nyPIXbPXApiTHUGw1ane5YhpGkKXzz26+hSYUPfegDRPTAdVDcRsLkLRDJd3PKMKRRZSDYqhmQcelKizffWeSx049StxaVOlFs+YkPPc6ThxucfeQgVhVvIkjqtDIt4uyH+2H8rhMoFy7w7pU1Xjv3Bs+9+ByJVUSz961Tbj56KRY6uSdi/PrmVhgjGMnTLC+8e50f/uh1Xnzhg/liKLqzL2FYVWpgh495v3nvcc4FTwKAQuoMSbV20x9yf/bMzDQrKyuMfPGR4jynvjAUjRQeat20sTA5Ocn62lpY7AQC90BIXL4jPld8UEum8N71JZ59/oMcn65C36N3GHbK3dF6rYrLMjbcvqM2VA1PuLLp9bYTSCo89+QBpiIAlxcN28KCRETw6hl5FZ+iezzCcrvDoROzPHK0Qcw6jgligdMHE5IDJ4h8ERgrwoljh7ny3hJnJueQQnUjD7gZn/S6gZ6RZoDBieXS9VXOPPkET55oFMbVhvYRm37b6ANT5K94//As/soFvjfw1ruXeeml53jsUAzOb8GOFIzmd5bXvOKyxRQJ4qM2/twOD75PZqpc66RcvXSVivG0qHHq0AyHJmIMeUy+L+4qgw6ejTMK9LzSEIfHEClYoyAJCjSrEd1ejxQhQoo+gdEbd/L2usJxbSyDkDotwjitwGSjRruX0geSofCrQCBwd8Z7tNwhhkJ32QvtDFYzS70aEwngeoMky1s9sAaVfODK0m4xEOe61COFuvwxVO5Mi6H4cjtFqgnTRpjGgRrUTqAS3/EoRQRjzCC5bFQRIAHQhIyY650eTvokFsSvE4lSBepAJAI2ARMTAY9ORywvvEdHFSdRYSS4oQl79HGAUwe+h6ijjfLuSsrcTJNpFCQuEtxvztXZvFix1ua7g/rwiHiKKh6lDSwstzk0Y6kAsehdvQKiQgJURFGBLgaHRTR9EE1/ICgO/Aptr3xjPuV/rrS52u7ytSsZP5jPSF0hH6uOFMiP3AHZnrb7QeCBNRyzuk5mI2pqia1HZQIvMFNRVlot+jYZjD2CK7x0I3SHSZz/kDwpOzeENP8dg6ijgqMiSoqhSx5C/NDlNQUCOyB4Eu6IAbFoJHR7YFVoiOR733crX6qKLWJls6z3IBp7n8g1d8rqyrCxM7eytMJMs0ES2VIPtUjxHp/d8LsjqLH0+goeGpHJbyoT3/FT1Sr0+708ZvyBtPPBU0oHY2K8RICQtlaYapxmO0ddJr579Q/NleXzfXD6fajGlprJPQNiBPRuezuCkdwb4f1GyJGMQZJqSYohsTHOeborfZ5/8hQfOhyTXcyIsx5eE/Llcj5eK1pUHh592c+7oQpZBkmSoFIM20NUqzGddnssukEp8242Anp9Ke1azNGVJCLL3NiOs4HA/WR8Zo37Qh4TnApcW1qmWUloiCBOIbpL1xVVhI0xox17P9i1zHdgVBUPdBwszF/l0GREZE3xvlGq1rk7qEKqhvmVDpplzNYqxICYyh0/V03yLuv1y7yE8cOgGAGVmB6GlVUH3VWale0V9hoYCePaUbcgE+gLXJu/wWQtoiblYG3uGjIkUlZs3ih0PW4oBrxBvGLSDgdqStWtc8B08P1WMebmfs+N/fExtsg3oWSZI06SW57/as3Q6XQefLPuA6WC680e6eHfk0TIsmxs74VA4H6ya0aC937wyLLNLt1Wq0W/3y/iijfes76+Tr/fHyyi+/3+bjVnd1BB1fDjS9f4wRtv8sjcASajCCuAvfuIY4yQJEK3O8qehHJRUqbpenoevnfuHTrtFrONhEjKlLhyGePvGDZjjMEai3cjbDwVWAMLqy2+84M3ia3naLOGVQ9S4U4Gk5W8H/r99yfujg2FHHAPw9vzLb71re/y4adPUzWbU7XvhrXRYNwYZ8qkW+89GfD6+Su8/vo5PvDoCSrGDNy+d8qFAgba+KVxpTrKQX23xudFWjAK/dY6zaog2qNpM5zL6KuixkLhkclNhfz3sUchy7JcWvgWhmIS55Kh43BNRCYfgzc2EOR9Sl5Wyhy4wsswFkceCNwb21WA27VwI2MMCwsL/GIozgcAACAASURBVMM//ANnzpzhE5/4BCLCV7/6Vf78z/8c7z0f+chH+PVf/3Xm5+f5i7/4C86dO0e1WuW3f/u3OXjwIHF85xCNB42Q71RcWlrhkUfneOrkDFUVxGdksblr5+UT9YaG9yji2EgtVvU4D8utlLZLeO6DZ5mdbBT9kBfLksGUfOfAEBEZCxUS7zzLHUfSbPDhD55i2oJVh5PorinZcRzT7/fII8jHkQyvnp5EvHb+CmefepJnjjcxzuGNzY3tLRBFNl9Aeze2Mp6wuZ7Iale5eG2ND37oDKcPzhBrBmLwRTDfVtL9pYgUHEc8oFGM9j2rq6skiYAzVCoJnaxFy3saJBgxpOQjUeTN+BrkQyhKlqXElQi5RVkAY/LQMz8GsXsi0O1CpXLnMdQ5R5aCqUherCUQCGyJXdlWUVUuXrzIH/zBH/DlL3+ZLMsQEa5du8Yf//Ef81u/9Vv83u/9HhcuXOArX/kKX//610nTlN/5nd/hpZde4g//8A+HZMv2F2mmUKlSazaIVTAOxBq2suxXAWspioaNMoZS6ckaodPrk0nM9EST6tBi35fyr8DYrk5uRqCVWkhqJNZgfA/wd02P9EC9XqfVGo/Y4FuiHsXRA9b6nsMHqlQkwxq9a0rPMNZanHO5sT0GhuXtGDaa33j7MkljlgMzM9iiDkcuILA9L8x4Y2n3FBsneZV3b0mqFVY9tD30MCz3HP/2rddJFZxYhivBjy0KaZoRJ5VbGgFSeDGdH49RenWtR7PZvON7GvUGaUoxfozDUQcCD4Zd8SR473n11VeZm5tjdnZ2oFf92muvMTc3x5kzZ7DW8vGPf5z//M//5ODBgzz++OOcPHmSj3/84/zbv/0bS0tLHDp0aPCdaZqyvr7O6urq4LVy99kYQ5IkJMnOd2DfL/42rDIO6+02zivVSiUvTlmomW51ohYZp1hqxXml3e3i6FGp+CJBO7qHhFIt/A2blW10ZPaK83OaqdLpZSRxgkULT0qx08md+yRJYnr9dGjKGoOtvQHFUamy1lFspYEYg5qtZSMMYuolrxDrUbzTseqhjYPJE2ylKDB4fWmZtVaHY49OU4kF8eWbc8bm+O/K7cfNWPNK0ovLK8wdmstDIm2VWmzppj0y71E8b7x7nX//7vd55ukPUJ80qI7K+LIddOOHSOFJcMRRNKRJt4GVPAHe5ereI4oOglq7nQ61avW27wOoVqt0exk6sZXE//HnduPoWI2vDzmtVmtTFEu5fu50OtuKbtkVI8Fayy/8wi+wsrLC3/3d3yEiOOdYWlri6NGjGGMwxtBoNFhYWGB2dpZ6vY6qMjk5SbvdZm1tjUOHDg1209555x1++MMfMjU1Nfh3jDF0u12mpqb48Ic/zNNPP73jtmfkITUxeZgIPgNj8WpIxbCa9mmkGXM2ygtXVvObqKa38OMOUxyHqhCVxY+UgULQSOE9qMObKquRYdWlTNCnGdlbhD0MRGBvixVPJB3ark6mFWKvxCZDBVKifRh8k5+zwZlTD5qhKJczw/rKEmdOzJKIAdsAhJvLGN3MJGBcStdO0QES8u/MpIIUiiyjwYYuOZRXdn69OInpSo3+yiqHTYfYKKkkVFCspgMJw1vRV0X6njRRmliyCMigT507Z3uMEBlgHc6sAxU0rbIuyv9cXyOpOZ6diom8R0xEOVTf/e7awBiLZlrkJEihQHZ/DuV+oIW/VoZ3fzXPjUr6VdaShNeWr/HogTkmNAIMdenTbxuaztFklW/eWKf54ou0lt7BTzyCszF3lhQYDUpVH6Oaz1l48AaNY/oesq4Si83nNFJyGYEYj9DEk2mPdfHUMCQu13/yxmNkv23TeChC7KAYhdUBnhWp4BFiUsRlKEJGVEhJl9s0GRERMxN1VlbWyA7MkIjdV0e4F+SVa3LKjMPykYtSB0aVMq/tX/7lX5ifnx+8XhoJ5Qb8VtnVnIQS7z1RFGGMKVQFNnYyrLVYawfvN8bgnCOO40HIkfeexx9/nLNnz3Ls2LHBZ0VylYIoinYtNKlMZRsMQ2LxErHey7h0bYGFpRsIllp1m1OLCCJ5ERvvGXEFmzwp2QNLy22Wl9scmqzf+7eJYEx+nm8VM7v/2FgAb4TFWdLMMX/lBuury8xMPrLt46jWaqx3OyNw/Hdi2DjIyc+rYb3T572VFd67cp3mxARJaVRqlj/uYCQMYy14n+U1F8aJotNMMQplFhZvdEi7yjOPn8olLHcUXqWbP78PwznvhC+znYpmy+B/QASttM/8tXk+9tQzg5ctgo1i2iS0VGmvrvLSR57i7e99hzOnHh2brdK8LwoxCQPeCxpHnL+6wHrPo702lTi+ZQWSMqndecf+T+TO2yfve024srRKu91jYX6BRw4fwgIWj5ChQ0sbEWg0JlhvtYGZB9f0fYwd0pcr07x1yBQLjC7ee4wxfOYzn9kk9lGuXdrtNn/5l3+55e/btRFCRAaWSvl8ZmaG+fn5gaFw48YNDh8+TBzHrK6uoqosLi7SbDZpNpuDhX/piSi/p3wAu57cbMoiVkXBsAxLX+Gd621+8ONLVGzEicMzJJG9Y8GnW/YJuWvXqQ4liY3iDZgbCd2+47Vz71KNK5w8MrcVgae7fOdoWE7D4UB54R7BiWX+xjpvv3WZx08epFHbvDu1lSOr1Wp0OqNtJGzs8W7sRSmGTC0Xr63w+tuXiWLDiSMzVK3F4oGM7RQ0iiLwPsWrG83b53YYCiWifJui5ZVryx2aMRysVwYL/O0aCkqh4lLoxzNaDoQBosU6uHhs6KtBJ4LX3r7IE4+cZLJiBgcYqaFWrdI2wkLXUMdzKIbVHqg3mNEYcraAR+iDONQYMhuz2Hd8/XvnWGh1OHmkyXSjmCtlw/9UilSXm3P7naElDqWF58WQieW/v/8m7y2uMDVd4+TRA8UO+ObinzlCc7JBq9XifYbzQ4rRjI2KR0ARKis6XgU9H0aszeMQ8s26jfXzdlWNSnbNk1B6AMoEQ1XlzJkzfPGLX+Sf//mfOXDgAN/5znf49Kc/Tbvd5gc/+AFf/epX+e53v8uHP/xh6vX6pu8qD/T+JzOX7ktyL4IKfa/Mr3Y5cuIkz39gDmvKZfKghXefdb1HbX7rGZHRzbcsvfxi6aR91tstXnzxDJORYncQOjUqA3W5MDEoUixsFUOKcGW5zdxMk6cePzHkjSpzLe7eM1EU4Z0f6SF5cxiABzGoGNqpY7WbcfTIAc4+foxEIRYKY5xt7WobA6ouLww2LlvBgDNgvCDegLG0soxrK6ucPXWIBCkM0u0LOqj3iFjEFBs35a7hiIUbGd9no8FFLRYRvIMlEX789nn+n5/9v4kBX8TZizdMVy2L6563Lp/n2eNzNI3BJ5N0M6UZw0h1wm3JQ2mUmAxDKsLVpTaVRpOzZx9lWiARMIOZK98vNpBPXyOiLpdn65CHDymoGDKE1a4n9crTT53mYBIxAVjV217j1Yqh3W7nvXBzdbmHEXV458BWilSWXE4YdYVROQ73yMPL8Ib7TtlVI6FSqfDBD36QgwcPAjA3N8cXvvAFvv/977O4uMjP/uzP8pM/+ZODeKi33nqLw4cP83M/93ODcKPh77vdAe6u4VAOopr/NOCcst7ucOrEUZKNTapteREG7xoMyPlrWkzZI3MLDjKKDet9JalUqEUQ4Yo/bj96vjy3o6J7v7H0z9vrxNAHrq50OHGwWbi5ywnqVqmCtyaKItIsvV/NfiAM9qG06B8VnMBaL2Wtm/HEwQNUyA0Eq8WULwnbmYQEcs33gWN8POgDFQRxFkRouZSlziqHZ04PBuZ7GeuEjY0WkaEaCSMWbpT3UGF+q4JEOAQxyuUbq8w2ZzhUibEKmSheIBbDXDXl3//7u5w5eYSPP3aEthecnaDjPU08eQbaqCOgFpU8wMYBS4tLHJmdoW6gRrm43tjeGvaEx3Gce/j3pO1bZ+A/KPJSVIVUhMtLbY7MHWTCChUg0uFNigq5HPeGxpy1w7UhRu0+uA84j9iYPkJfc4MyFimMytA/48BurZN3zUhQVSYmJnjppZc2qRC98MILPPnkkzjnaDQaJElCrVbjU5/6FN1ulziOB16EvdjdUAQdJDIV/1els7bMVPNkEYlfMhyddZcTUJwgCziXF4LKk81GazevxAusrHaJKtU812KHRoIxBh2RRI3ck0ARIpN7kRywtN7npbOzediVeoaT0u92ZJ4i3Kg9+uFGG7+4fLfPWlppRppmzE3WSdDCQPCDhZ4TtpWgbo0FXxjbo9xhQzjIO9BZvIEbfaEyUaNiFPGaV4m6J/IOMsaS16oYjfvsZvq2XuyXC5lCD+G9+VXmr69wfuEan3r6GZI++ETJxOMxWITnTs4ye7BBs15nMupAvwpxna53xT08JkYCMVoE8AmwcPk9Xnr+eWo6ND7L5kVfeUXVa3V63R5M3lk6dK8ZjL2Fp1LFkilcW1qlkQh1Eap4xOepuF4s6SbTKEdEMLaczcdoELlXbExGxOsX5rm+uspLzz2BYIgJSd2BzeyakQB5nGOlkif4lm5yay2Tk5Ob3OYiQrVapXpb2bIHhwdc4YYdbJqr0uusMllnI3ZahJuGrC3dTGWyqx+JJLFbU4Q102p3mZqcBiU/HmPvbawdeFf2f0zs+5ZXkvsTUmBheZXpiQSDot4X9tLWOkQVqlVLt9vZ1fbuBcO+E/Ueb6CdCkkSU4+kmMAzkDxdLiVfIG/HSDDW4DIZlTSWLTGInFZD5hw/OPc2z3zwzMYNt0OMyXfgd+nrHjjXVHjr4iL/e+4tUiydFKYOHubko4f5qSeOcjyJoAdkHpcUSnUC9ThjbqZBgoVuK/fURFXSMhxlHNDck1A+BVhZWODoVELsFUwGGz5OoByZPCpCtVal1+/v++tCb/FMBNbbPU4erpCIYCjUncTgReiTL2yGTUExudE8DgXkdgOPJVXl8uIql+fnef65J4iAKCg/BW5iV8ONtvP7fsGTbwBH2gaUnqnTEvCRYEW4XRfd9WgkJgIqQCWx9GyFHpBItsWI9f2B1Q49U2XRKZcWb/CxsyeZoY9Kgkp0T0dhVEi8gFcyyZO7SyNtv+3xGSCmSOYyESkGh7C87Dg4WaNaxpRFGy2//VWzgQgc6MCVSHNvkzf0VYi8R2MzMhKonnzXUnwPNKElMReWenzr29/juccOE9syaTLvHwG2sjVgRbAVQ00dPVGmvGFNHG60gvXuyJRbI5U6S3XLm5c8p6zw0kR+Tw1XOt8uUlSqM6WQhPrcm7Dvuk3xvkvX5ILBVd/BuD6Ltsmff3ud9MrrTDYS/q/nX+DQZEwNTy3yWJvnXOQfytWhJsuvFOhLgxkcom20eohW3zNnr0LvENnExO7ujO0RXjI8PSJXo9MRvvi9H7F2+CCZFZJ+D2obd9nm025ooNRMhW47Dxp1NsOSkZvt++siMYD1KfgOztRYwfBfP7rI5auX+eips1RUQWKw+fgSAU3yTRzFIKok4qkbxfuUXgpZIg98ntl0+90sIrQHXW5MSsclzPsGy2me0F9R8iKX++sSCOwx4zBe7hiRMp68KM6SQRLHO16olfeb99sSc9mfqLK+vs7U5ATctZ7wFr6u3HkudzlHZGAqm7m2tsbk5OQd33s38tz8/b6Xt0UE8uRS5fLlNR5/9ATPPX1y177eRrbQ+x8dA/uuqGBMLo/8/Ve+w8/9xLMYcgNhN3yOUngS0P27SSOYQUYYasBWWF5VWqvLfOHnf4LJ2saucITFYjaEJrZI2ZejkgO1NQQkAjFcuXqDqYlJfuYnniwEP+48PitKpVJhba03QndSnri+spaxtpbxUx99loMHmgMp9VL28XbkUQ0Rbo9cCZsMBLnF8weNV7wq3W6XJJmg1YKJWr5hFwgMM5rxL7uIUOaaGkr14HYHKkmyMyOhMDiM5AOYKyaokbsHC/e8V8W5jGoiiJjBbuU9IaXxVPTJiHWKAsvLy8zM7ExzWyIGuSqjykaYXq5q1HOwsrLE6UeO7uoORBRFgwXv2GAivAidFCJrmJudQFR3bVA2xuC9x6vfv+OOWMpScWJi1FSYX1jk6FSVuURpoFRQouF+uQf1FUHwzu3fftgmuVJRhDOw3msxN9OkYos6JNGdj1J9biT0et0H0tYdo6YIVTSsrq8zNdHgwEQDO2QUbMUIjqKILN35Bte9kRXKQUOGquQFNGEPjNfCy9jtdmk2m6Rpeu8pUIGx5qG/LPLpptBQkNzp2u1mJHG0KyEfZU6CjvAulgI9L7kCFaVCk6L3uGIzQ8XUdmJr7BVK7kloNBo7+6IiVGlE8rdvSZ7QDYjFGUiNZ/76NQ5NxLvq0o+ieLDgHRdUYjKEy1dbNOtV6rFuSMTu6IvzH+XO6v4NwxcQi0WJUDyGrgrXb9zgA8enqZqUWFNinxVFssqt1+1NWwKDwp7jg8FjaCssddaZrsCUKSq1323iEqhUEjqd/W8k5JKt+XWiYlhdW8OS0Ug2x87fzUgor4E9qw2hHsTnGnmSC4FoUT18T27QonaTMYbGRIO1tbVinfLgmxLY3wQjgVLf3uALTYhyt2JHnaM6kG4sd/TycIkRoxh82x2oVCsDWb2dylGKbMjbjRoCdHtdarWd75WLGeEaGuSbYUZzlas+wnJXqFQS6kaxu2gYDyQbR9miugmHpeeFN954g6fPPJIXg5KdexvLcUYG487+9CQoeWiVaIb4jEyUjsD1G0scnxIGRZ1u6pTtXgEiUsgNj5GRoOC80FbouIyJSKkXCsz+LjsvxhiSCqPjSZC85GnqhcxDoyLUtquZUV4Dabpn94JKLjd6/toibQ9OZJB0/sAx+d0VRUK9bllbW9swtMZniA3sAg+9kZCTZxX5/BnXFhY4fOggO6k8WEq5iskVnrz6fRsXvBVarR6N+g53zscEJQ8TqtV2eD4LlSe//0WebkuhV4aKYWG1zas/usAjJwvpYN29RZlIrqg1CgWgtooXeP3Hl2g0Jjh2ZKbYrChHoXunHGZKb91+jsX3aH6daEZflR+8tUAv9UxXBC8xXiK0CDXZuNq2hxbyl+N07QjQTz1vXrpCZpRGEmMdoHrXjDEhj0gaqf4QQyf1OI2oVSpEm6oFb+XzQq1Wo9vt7s0aWAx9b+h4zz+8/E2udzypGLwYdI/WBbnymaNWVXq9fpmWOYIx0YH7STASyiJYyGB6Xphf4NDMxI6MhMG3G5NX1t3HE/UdKSaS9fXWpqrYDzNeod/fvRjOUb00Big4Fb7zwx9RnWjy1GNzRfXO3TswYXSK722V1MO5H1/kQ8+eJBZgYCTsEJFBeMXwxsR+9MLkCcsOcFy93ubiQpfnXzhLLbKkGLJCTWzzknB7xyHkdTZGalG8Ba5em+fy/HWeePwUk/VaYV8qd9tz0MLLnVcw39/I0LN+5vAqxFGEbPc+EaFer9PdI+9JhsGJYdUr568scmWpRY/cm6h7sSpXyDLBWkMU+VzSPBgHgVvw0BsJiqDGgsR4hI6DGEvdCnYH8cFSxANbyXewsjTL78FRm6icxSms9WtUa9N5pWXt4HB3nYxuRwxgHSuSUc1gVcEVhYf326a6Al5NvpL3jj7QEuhmnuYOoo0SHOsRHLdV1rI8RKBqLLZMPhwZHD2jXBdY6vZ56fQUJyo+D0EylXv+VosDZ8FVQAU1Kd2sQ6ajneg9zIKArUQcifo0tItHSKWCDAIft08ZwhMp1LF4lA75wlH2280FRcyhwUnM9dUe07MzPHpkhsi3ScjHCstwgjzcbTXjULSvOGLWgMkUapHnhri9SBG9L3QELqUZR+KEZ6drJBGkCThrqN4lhmWjXtGIRJZIhoqnn2VokU+R5+7cvvXD18AqMJVBI/Jc7rf35JiNOmpe+fG6cubk87y11qLqQF0f4/YgDM472l6oxlWaPuKqPVysd8blDgnsFg+9kZCz4WO7dKnF8ePHd+2by5yEMmFq5DTeNUIR1tdWaTZqmybqez2S8nMOzWNoGQXbSUAEB3RS6Pd7xe7vvX6b4gWsMkhcllL2aZQoFhrrXfBOqSfRhozejtzom8XEo8giZkQWNVvkxjLU6hPUkkoRasRgV3GnPWcgV39RcPu404xIHnPuod3tMt1UqpFAlg1G5XuKgCh0lT25wpwxQt9lY3P99DNoZwmNWo2YPBdBZWuqmmU+mbERbiTWhPlZS7MMVaWSbLEM49A1YFWoVhI6/f79auQdMcYgXnjr/Ds8c+Ys6612LmqyIa/4YLEW55Usy/JwaCojW5k9cH8JRsJNLMwv7Fj/fhi5yUgYNVxiOff2DRavXGBmwhSxwTEGeYgunlxRRTF0+8oPv3eeD5x+DPE7W9EbCtWVEb02IFe6yoC1Vo+JeoNquUTZZWMnl0BlFKzJLbO21mdyavq+GIYKWGtQzRWh8rCe/dd3goBNcDah31mnLimxgNjd08YS8rCKdM/kL3efzEGWGpI4yb3W272GJFcMG6Vc7n6/j2qfWnX7VYFFoVYVentkJHgEDCzMX+XoYSFN+2QOSumUB41i6PWUOJK8mKlR3H7eTQjsGQ/POm+LLC0vcfDgLDv1AA4kT282EkZsp3jdwzf+81t84oWnmG1AXtQmxuiQ+sg9MjJDUiFVqgg//NF50rTPM2cfpW53kNheZMBEcUTaT3erpQ8eEUTg3YsXefzkqXxnuNjV3KENNSBXWDW4LMPtw4XuvbK4uMhks4mR+zMMlxWXB122z7ou18RS+t4wv9pH1TAdR3l9DbvF3eIt/kPGyFhJoKb9DCVicrKJbjP3R8mTua2NRiofKktTvOsR3WM8ppF853wvbgOHwWX5puFsExIMvc7e3ZAeS6ffZ6Jew4jDap6XsM+GiMA+4KE3EvLNybxIkwKtVpvJSfKBaBcSLyNrERG6ve5ISqCeX3IcP3mKZ07PEGse7+yw5B12b/0jAiIuN5xGoUOc4j2kCDdW1vjg0yeYqlks9764FwyKENkIN8LyRmWq7fX5BQ5M1zcKqO1ivLMA9Wq1WPCOwgVza1R1kHytqiwtLTPRiPOorF1MKvb4QaSX8w5RzVWE9l21JEV9ymKrz/++fZU4tkxXEyKvqOxeKT4jQrVqybK9k7/cTVSVXq9Hv9elMVHfduCnqi8mftn3u8fl2OjV4zyIv8dig4ZCBjVmLxy3Hlhd61OrRERGqFcj0n6fm7NtHhSZCqtrbWanZ7CaEYmizuWyrA+8NYH9zH6bNfYGERSl08swxlCNtAiE3fnNm0ugku9iychlJPDO9TYHjxwmQankS408pVJ3LtWYa67tvI33HQMYod312KSOGJMnX/vejr52kJuRjbaRkHmIo5hKJIPiaruk0zMgD8vK9mXIzL3Q7/cREaqJkEsw7/6NkDsoPIru21woVcfVGyu0FZ556jRT9RhDtgPz+xbk6US40QjAvyOqioiQpim9/jq1iuT3xLbUQPOchCiKyEZk7PE+D7GqVO9dDMGIwdqYbA8ctwrcWF6hXqsRKcQGvHNFDtKDvzc9wo2lGzQnIowVrOQbGLswqwfGjIfeSNChil4LC0scPHiQjUCanRQL21CQiKzHOTeSO6HzKy2mDzQxkoJmG4s/1XtesImMkLIGxaQqwnqri40rGGvzG8ffe3yrlrWrVfPF74iiQC9ziBisFDl4uvG33cIYKTxPo3LVvJ/yOoLcSKjVqnk8+VayTbeJKhgDqN8Yc/Zb36ki3qHWEtViqlXBkCKiu6+xopqPwbv9vQ+Ycg7JnCOJIgTddkGuUiDBWrvvc+XK+8U5T7+fUq1Wd/Rd1sTshV3kgZXVdSYnm6BCVI5n5WT4gHEoS0tLTE8Wif2Mx/0R2H0eeiPBOAfO0xHD24trHDs6TV0gRtEdiFF6ibA4auIxCl0PmcggFn1fkeUGTEqhhFKs/9vq8K1lGtUIRz4hxZoSqceZCC/31j+K4l2Cz6pgu/nK0nS4L6ulHSLqEN+hB8z//+y9249l11n2+3vHGHPOdahTV5/cbbvj2E4cx2knXwjJB8mXoM05SBEXoFzAFQL+BC4RcAH/Akgg7UhcbQVFgLQRgYhAEqEkZIcQK4lt+GzHdrvdpzqvw5xjjHdfjDnXWtXH6q5ah/qox+qDq6rXHHPOcXgPz/u8/UCr1WbZGjJVVB69uZxowAGtVpsq1qrfAiJzUc1+ZEQMsYKuBStQCQRjU6TyUJ+cPI5KI16VtSBsu8TKOU7PB02ym6FuGibaJ6jnZmlptS3GQBAH5EiMWA1ElPCIdykIVi1eAs4ru6T6kExB7YIZhCJ4KQgR2k5rhae0N2aH2CIzQFwyfjqAtyAqtHCUC7b13h8eJeCps7dREfVUMTJQYamVkUQrDYLHaZo1/gH7smiJE8E4QxmbaLapNY8WC9YP8dGyWXeX7maGQkHSW77nv8uI4IQgljYgtiTXQMsUbIWA6sRz1RJiD9RPTQA09/BypVxczrERrJzmplNcDEdXvPUQuBmhKPuctzYFvpxnUzNsrJAj7G9zguOP//ZOQuPI94HrOz3Wllu0oXYPHv3xKAZDJEOxxqDGEmkE2RYMIRlkgXq/qrPXu1VFS0vaLhU6IQarqSIhikUfteBSAMlBC5A6ii4li+gkpIdRUQHvbm3TKjKWXJ1JsIeIatU6UXlREPaxBY6VFYMiDAcVLWfJTN2QUBLP9nCbSzMnk1RsO0JfjmOPhCZnJFB3oVYNbA4VK5FMUiM6sIgqRuKhKQhGDZ4IUelpJGoKd6hZtL1HCGqpyorC1HtuLRJwmG3AAmLTR+RANGBFyHH4YzWBIkqkbqScMi8oVYS9YcVSK0uRdhHQmLqcUyvp3BdJXtZaSxUOP9+mCaOeqIa9oOwMSjqupnqmt3zPf2dRsElsIgcwgVwEEw2DoCNVtpQVj8lRYHr7iwPe2Ovz5JlVbFQy02Yrhkfuh3JY3OrDqW6bDoJIBhLY37sczAAAIABJREFUQzAxzkWR9QSLi//2TgJSK7EAhMjqcvvIU7DWWqLUBVOLlvKHRF5WMz4qJEVYrm3ssNTOKUy9GSsN0flQx0o6oPZ3g11kqKYY597ONu2sIrNyJGNXSIXLC57yvx8U2O0PaLc7ZHXNzTTf6vGjld9WaCkOFUtvWFE4R2YagzjWxl4jLnzYp6ijmshFVrAJMeK9J6+bCDZ3fdS7pKnVyRb5WdyJ8RxIcygCBq+R3f6AlXY+ninycHNGRNK5tOgPRAS1ib+PjywvLREfhbarijEGaxwhCCqmFuFoghrTlyLd3N6mKFqIU4o8MOz36yjlVC97V+wNlaLVSkn8mm6kMaZncTyO5RPMCCdOQi3VWHoY9Ie0DVBLgR2V6WaMBexcuJAHwoS0vSRuBAG4cnOLx8+tUxiTogsm9T4VOZwZk3pH2GPiJAiIZeihaHXptnI0psqMw0Yl0yO1x65OZRIVsFd62p0OqJBmepobR3ZX9QcZY/DHuXa5NuQqhEGA5VYLi0m0rNq7EmmIH4eBjvIXRVEgYlNt9IKd/koi1KgquXVp3tTJxCPfKgXAHEMnYcLx1iStPVSh7yGXWPuWtYEr5mCmrmrdO+I4OAkp1l56Tyj7rC21IPjkKDzU5yQpcuccpY9s9SJXNyKDiV4FRy22MIlyAN2lZTIEg6dwgeFwMLfM6PUbW5w5exaATBKNLWhMKbgF2ydOMF+cOAl1s6EbN/qcP32eXAyFyxNL86jWiirGKGJ5dIrOtCGJCiWSSN8VcGVjl3NrXXIjuOZZHMH4kxRkOB7GsRiCydnaq7CS0ckcmUnjPtT80BRh7na77O7uHslQZ4XJ9xaBrd0+Li/IrJBIdVM4ahXyPCeG43aATc7xxoQTelWghaVjwNTGX2PIwmGPacHUrobWRvcRKqweKaoQ8N7Tabf33fNRziAlZXOdK6iqBX0Qd8XYSQAgBnAZlSpVgFMtS94Efif25QfOHZG6C7VZ/B4tRggK/SHkWDIUlxmMfYQVIilAtdPvcXVjix+99iZ7wzIVsEw5YLU7jLQ7y6kNqUZaTvGhYl6i6Dc3tllbX0cUMjE4oS5cno8k6wkWFwtqsc4O0QjeGK68c5X1tbWU/p9QaDkKZFlGjJZy+KjliLNCRGpeZq+EynVoWyVHa72nsZFzqK1EJkrkFvzMVoUQhb3eHs4aWkVRc1iPxozJMkdVLfhBfRsmM0AB2On3aXc6SFTQkH4dtaMgaR15f/x0vGXyb+IIGHZ6QzpFRlGrG4lpVpRgjrA42zpL8IsrJVZ6z7CqaOc5phFN4Ghnj9DQa8wxa6gmxHrnTduvQSP0AvS9spzbxL2vC49TDupgh7pKkkCt5qEH+hCIxtEPkVu3Ks6dPVc/jUcT/7DG0mq1iFHplYHtXkWljZKWOZIA2L3Q65cU7XYdjPMULhIqn645B6Ngc7dH0U41dVbASkSD58RBOMHtOHESgEqV3mDA6kqGnYI2p7EGrSX4FhL1vpDMFGVYVrx9dRNPQZ4ZRMORGcXN5cSYOoUeF5s/IsLuoOLq9Q1ahaVTOI7EhKmb1hR5Tlk+upTqPNA0BYsxcvXWLrf2KrptwUhD0jt6ByFlEgqqBTZ474qJdZN6SkSu3NhlZxApMoOJk0SHiQP6iO4x1bwk3vMitnIsvacs+3Ra2b6CyaPORYmxWGuPTV8AoA7NTJLEIiEor7xxE7WOTmGR6Ll9shzUjU7PY7GdJq/C21euceP6TU6vLdUSy80+8xDzWRUx4DJDfzhkd1ix1R8SYv0pj6jUd1Ds1XVbhohIxNlIVVZElblk+W5tbtNtp79bEk30OEtxn2B6mKqTcDvfsaEp3K1fwLwMaMUwDIKoZ7ldj2l0oB72qErbuyW1hA91W6NFg69ngRAJKG/e2OTHb77F5cfX6bYKJsuUx0mWR0+3pJzEECMlUXMsApJDEBZHqTndn1flf1/bYPvmDZ46k9F2TSmqQQ7h3CgRG6HlKm6qxXhPSj4vohETJ35XpJ7J1/uRV//rXS6dXmWpnWNtqllBTeK3HOL5GE1RVDGRjACirGnG7jHrWt7IURpNz2yzX/Laj6/w5HqL9ZV2E+aGugP3kdybJDUVLHTEEKIspKpPBPYUTPR0XUAISTUNk975IT45zdK0sVn1ZAawGdWCU/An0QzV4EEClVje3urz9htv8OJT57DO0RzhD7UbayCKUFhl4JMsd9DAFLpTHBrXPXznuz/k/ReXeOJ0DsBBpMn3OViaBAHSk4yUVUW/LNn2iY4nWtHoDBmdTmblZjSsakmmAbI89UzRJg90vzfXZGdLSJpltWxreGAzz/3hmjRDlCRzXgZhyQVKoxjjUZMRokFk8ebACeaLqWcSGkfhdicgxnGTn+Zn5lFEVWEoA2RS0bLj/UQAcygjkKRUooozgtGIj7HuLbBYjoKv2+QKkUoM1/p7nD2zxE9eWKJlba0neLuq0aPr2KSNsY81fYK2sCqoaUMlVItgAo5OXGXgIxsx4/mnznFpNcdpRMWhYjCHCAGpBLKodI3nKgW2KilRovrFk6CrDdyRqxBLIsrbe4GiyPjo06dYyuuuCOIAmyJ3h8g+GRWCGIwNFERwsO4dm6JTFCo8elSSBBuNJhfwRr/EFY7/cWmJ5RaMeXsTOvWHlYiSuldABitYQlBKUczDdt2aMoLCzcqx2unQpkIkEiQjYmnx6FFNIRIx+DpH47SiZRRszjAen+R5TFUlWC0RiQyt40fvbHD5mSf50NkcTFaLSdyuKnb/96waCKK0jbIXhKgBr4Goi7ey3ikNq90uP/nMGTrGpwys2AdS8rR2ug0g9aFuxIKFoIlutBMdDsFoHy+WgGAfYHg/Km7iOF3t0tIAWQvEkJl2escP3PBrh0AjJdDX5ni6fwa6osm3aJ3RVKImoYlOd522VAxNxJiKaNoEdSDxoZvzneD/bByu39F90HQY/uY3v8kbb7zB0tISP//zP0+73aaqKl566SV+8IMfcPHiRT75yU+SZdnc1G5293p0Oh0ya8cbzxHSjoypCQUhQK3yvEhoDpgm+jb0no5zuCOr3D5mqC01BYalZ2+v4tSl9fQ9PULCOFAUBWV1jOhGStIhzYRer4eQagXuML2OeOpoTTfyvlpodtrtqP3vml5mGJQVItAq8plc3znHMCymSEAIyuaW8p7VFabaeVbGdTTxGDWKmgzIpBAOXLt2jQ98/MXDLa+687d1i0832t2F5eXlZOQ+xE030flx5j45UoVJLIYgjtLXDTzrpZFoR9NxIn3l6Xa7o3tI/S0MPsp9rbA0fotIThRHBex6yDNLbor7XlNgn/OoqSCCsgx02gXiK4zLEJPmQ4ipVuUEJ5jEVFaE1prEX//61/nrv/5r1tfXefnll/mLv/gLhsMh3/3ud/nyl79MURR89atf5R//8R+pqmpuTsK1a9dYXVmmlWUTWt1HV8hkTJINjeHBbW7mgUaDWxF6Q48nZ6nbrY+lxTMujh5NEjeOSGbplzD0gcGgT7fbOdJ31zCNnTVU1WIf1Psg1AWUjb69I7f7+eR3nE5HgBjBuexYccqhaRCW6g28CmUQrHU4e3Du+KGub20dsGHhan9ijOz1BqysrNBIfE79mseo0UZTI4YIEUvPp32p286OZGlZK4QFX09vvXWLxy48BnWB/0EhxKT9n/4nOYox0K6z+kN1hFoauGk/pzQ/fPTwvpaJrmEkGf8PYllHSOM0OQHD69cG/N//z5f5r3e2iXL/gONYDnc85yOwOxjS7bQgJkKeMQYVwYeGpnWCE4wxFSdBRAgh8M1vfpOPfvSjfOYzn+EXf/EX+c53vsPW1hYvvfQSFy9e5LOf/Sy//Mu/zFe+8pWRwouIoKozi3BEYKc/oNPKya1J/M99HOzDI8vSYq6qhSDT3IEUyEiVAv3SE8RStFqg03sHUvOwF0emO7kFSiQCHihV2S0rrIUi40iNLJ04krROBS/i3LgrRlEwpcgchbNYmThe5bY/DwsFa5JRE+NDFizOGU1xvmKoIgy8kDkhkzgzJ6GqqpRJWJAoYbO3hxDZ3t5mdbWTvMCpRfkFIylQc5yKM5Ntq6BCAIYeMA5nNYlJHBIxKCH4hcoyNfWKzZiuXLnCxQurBO8fUnO6qaBqPlgQgU7mcJmlFwwuaxPUQF29kn52OpmE4XCAc3UtRdRUk4AQwoOffQpcCR64tjng1PlLfO+VN6gesMGOuj/U2e8mADYoPZ3cQUxqi0Yi3lcMK3+Abt0nWHTcbz0/CqV/KnQjVcU5xyc+8Qn+/u//nnPnzvEf//EffPCDH0zRo709nn76abrdLs888wxXrlzh1q1bdLvdUSfIW7du8bWvfY0zZ87s++yqqlhaWuLpp5/m4sWLhx7rIEA0GZmztcZ74u+pmCM7wlNBZ6JgLeISTA2MlIhhr6wIaiiKDkpFU0HwfzaaTEKK3TWZBK/KTm9AnmUp8m+Pvp5ESNJ8+MWcG3eFCMNhIISMpeXs7pvI0aZdALDW4f3ilLYfBGnlpzU0qDyDYeDc6hKp3+v033gTdFkkOJdmTAieQW+Xwo0LS6cFqSk2x2nySLMvSQogbPdTY87cNIpYj4h6PhgjGBEkxoXSOWwYBYPBAGstuRNstMmRPLAI0X6JjdTYOMnGagxsDw0DBUusa6ca0ZLpPIiyLMkzS9MmUOrmbinocX8zbFLWdjgsOX/hCfbefY0yQnGf4Y73njEisDf0LHWXIevXQQzFGUtJJKiSLUgw4QQPD1UdrZ9vf/vbbG9v3/G9EAJbW1sH/sypZRJijHQ6Hd5++23+9m//lm9961s8/vjjhBDI85x2O+lvNTJst3s4Uus43/4ryzKcc0dGTdrd8yg5mXNpU66j50cp5GhM+sQYF9XAiaO9pPIBsYFWy0IIx+pQfXSkGIsyjrY0TsLeYMjyynL67hEaW5PChtZa8HdKGS4y9vb2CL5kZWXprt9/dO2ru0M1ZeRC8MfpMaXoeO1n94clvcGQ9fVTh1LGehg0VMdFQzqotjl3/nzaZ/Vo19cdqJ2E41STANRz3RCB6zc2OHv+bP31wz0rJc0NZ0wyvhdwUW1ubtLtdlMC4REcvGbWx+b/YqAwgqiyPfCoNrm8yfj5dNbKsCxptzWte0mZLWNtqlO8z30ZwGqySyzKsL/H2mqH4XBwgMRgk51LG1CTu9zrDZLoRkN/FsHlGRhDFRaveP0Ej4bUQPJOG9pa+1BnwtQyCcPhkC984Qv89m//Np/85Ce5evUqv//7v8+lS5fw3tPv91FVqqqi0+mMou2QDpD19XUuX758JNmCe4wSgN5wiBpH7rK0gFN2F2g4w4+u4IMqURRrkuRlWNQFqKlgySOUlUd9RWZB/FGbeqPLAXWnWZkUeJG5BbQa50CRWq5SKEPk2q1dPvShJ3GNjv0ka+NQ54kZzbOuKJXuLzFbpOyNNmXtddo6YNgbVmjcG2ltTw55TKQ6zD00s2T8TKyRmsO7kKvo7tAke+wxDHxFKHeTqtHUbyFdwBoBbeSXzdxmVSP+rFERMagxXN3Y4rG1C+kQukOl5yhH2kTODTpFCuXRo6FAJqnMV/7zP/nMZz5WR4gP4+wkXXwr4EyqlXHa1D8cwbAfGpFQz02pM/lRDDd3A6eXaolsDHcWPt0P6dNk4kcFpZ2neo6yCrTbXdQIiEvZBDGHWyP7tu2mGjp9ofQVWdS6XamQiWCNUMVw3+2+Lrcn1NUCm9u7PPVsIJBqCO5rwelYtFrqf68Ie1Vk+ZRFXUbTJLWwlqHW9KepydmcYNpoMsciwkc/+tE7vh9jpNfr8cYbbxz4M6dmk4lIUj0xhrIsiTGyurqKqrK0tMSNGzfY3t7m5Zdf5uzZs5w9e3bERWwoR0eHcdox1e8pGgNoxUavj+kss1S0EO8gtgniahG9R5dDq4BYegYSaQGlhMQBjXYBeX+GoI6+h3IQOFc4WqIkT+Hox9pEDvMQqazSMuAwkFva83ATFIJm9MmJGPKwRzv2GUThxzs5zy9DjgHTAmMnnJpHH6tQEGxiwj6rO1zN1zDkGCnqQtfFQawPURt7qMKW5LwbLYUI3YaBNZomBsEgWA7l8pmq/tA8RYFt0orXkDEnS+bRUAWiOK6rYdPDqrEsKxhydEpzvenxYoi0nCVUgVJBpTWV6z1gMEk1l4AyRHwFQdlR+M+B47limyQJkCEkScq08x+l+lNNq5FUuLxo9Kt7I6Z6hJixFxJdbaUNLiqHaXwhtsMSYKloScWudIm2m+o2Zu6AK5EhPaAHxFiC36MXI9++tcZH14d0ARVLlKzeXSBJLd9vH8gxGHJq2o214Fq0rKFlDZ0scC7rMSAS7Rom9unEQDgM3ahhKwOqIdWaRQiDSGwJnSgMbZs9sax6RRiwS3gwxSlG9hDQwLYsc96U7JkW/oEmUiSKS7LrMWBjRUTZZInT2RaVWSKLAeiyboZ0YkXwcpx21xPcBffLEphHsFmm5jPmec7P/MzP8I1vfGNUc3Dp0iUuX75Mp9Phn//5n/nSl77EW2+9xc/+7M+S53kd6ZnGJnVbbKopmlXo7/XI8oLcrUIVwNojioSOoQpRFQ1aH+ALtgwlMYuGw5Ld3R7vffzMRIueqVyuLthdlMM6RY9GFQeSoSZjUEInm967amaCc64u3C9YxGZ7+yCGECF6KJzBzcinU1Vc5pJSz2wueTRQqddXZGu7x8pSByKInc1h7KzDhzAzetMDYUyt1qPs7u6ytnYe2M+lnQbEgLWReJy6qamgWLwIWzvKUpHToY6PHyJA0aCp0wg+YHI7t51H1JJLUztgwRT0vOHarSuc/9ATR35OPH5mhRed59atLcxEPYIetmRFJv6QRlIJdvsDOq1iVBOTzr70W3jIQtJer0erlSNiGJYKxUHf2tiq6ff7dNtr+953nmXE2KMKFSephBNMYmqzQUT4pV/6Jc6cOcPNmzd57rnneP7551lZWeGFF14gz3PeeOMN3ve+9/Hiiy8+kodzUNREkX1Rkohh4CMaYSk3WNGUzqyV1uqeukdy/UkJcDPHlP89UVvIlfdU5ZClpW5KT07RnxFS6ivGmKRr5gkxGFIHCwOoKSgRbtzY5sLq9KKvqQ4nZdx85VGKhVKhuQPGUkV4650trrx9ncvvPXfwOsJDQlXJsrrQb1EM3oNALJUqr//4ba5fvc4zz70Pa5Jev0GmXi9gXXKsFuaZGUOswBtlOCxpt9tTdxBQxRjFSkz0juMCNUSEd7f3+I8fvMmTZ8/QlkQdaRp+PioiKapojCF4n/I3c9l2BImpGFsBxLJTwf/3o/8icxVFUYxqHI/KRrh0ZoXlNfjW5rvkMYxpVod0EqJpPiYmmqEK0cBuVZK5lAFx1JQjEawxD70sy+EQ6wytVsFgUMFB+63UZ40YGPT7dFsXGLdHBZdleE3dqKF97885wX873NVJaDz3w2zcIkKr1eJTn/rUvgWuqhRFweXLl3nhhRdmUlQ3ZjcnviNiCAi7PiLGsZQX6etWRxvFUfJilbQILTZRnVislF4kRVGGQRFR2rmt+1VOZ5SJ9pUoZTJF5/Dg40mce6sBEUMlhr0YefXlH/E/P/GRqV1XJLmteZ6nPiHUM+6IG7YdFuMxOQY+8KNXXue5557kwumVUSHe1MdQc3hVtXauZuWeHBLWUMXAD195lZ/6Hx/msfWl2vmWmTy3zJmRzOVCZDFjRIzlxo0Bq6urUw0OjVDvuciop/X0HZMjQdLbe/mtKyytd/nIE49R1CJscUTLegSopjrgmtbbiIZo/fXZwyAxIgLeGH58a5NBEH7qw0+mmhoOZ4vcjm5msFZpaairPcZr8VBOAmNFoVTeqARg2/u6t4XgCFRYxAjGHryZXVAIvqLdamFEWF1dY3d3F1bXDzY4GZ0uDAZDui4RQpvbt5lDBaq4oHWTJ5gb9u3Q4wN4vCgnN5CD4vYFPXkQjKToGCtvTHuzbopSUyFP4gpGgb6PxGhYzm2SJKxbko/u9Ij6kwsp7Y/a6UmBHwIexavSHwaMFayta8Sm1J9dqG2keRssNZQU2RUtQSND4L+ulnSXlnjy1P27Wh4GSSt7rPCVvsbc7bi7QgyqQt8HtnZ3efLiOp1CMLOon9Dkxhmb9qPFoak9GCpQKviq5PFzp8ltQzkYVbZMFc7JYmnhS4pm/vjNd7h06cnZXNOYUeYyLGj36bsiJuPw7Vs3eOyxU5xuZ0iV/HV/mLlT7zvN+TtvCl80gHigIqBc3ehx5vR53nd6uW46drROgqCYJO9EhRCwddHy4bMzsc4iSF2b4IFdH+gWLq149UDAiMFag4/hYBcVKAeDpPaE0O126PV6Bx+cGaeevPc4aYI/9cc7QU3EL07johMsCPY5CWPt3jgqIjbGjJvxHFPsG3ltpQeFfhnwVUWhgsQABKblR1tjiEEftrv8TKAIlSb5006rPY4cT/GdG5Ic4aM09zhqpMyGglagnhL48fVdnnrPU7gpD685rMuyrMeyeF5CrNWvglo2tkpOrZ9JylRhmg2w9kNRcpOiacdpJwoCV97tcf78+YmaF2b2irMMvC/3NaiaK0Qgwo3r1zl/fnaF1AIYVXxIctuL2D/iDkjq41Nag1iQdESBKuVRfHwdoBtFs+eQRlCgFPY5Cf0SCmNZntpVk7pWkIyBCmWaHeyXQn146Eg8e6TfRwB2yyFF7lJQTEPaB8Tsy+I86JOtKr29vdS1WaDdzh7OSahRxcRqMDIepmqq2YkEvJ5kEk6wH3fkepvD5Mc//jHf/va3+e53v4v3/hikZg+C8fRXgaFClhUUeZ72R51eREWMpOLlBT2YhlXF2+9c4dy5s+MIQ/NrGpBGZWqBnIR0AhOAzd0+RZGTTZEN0awoEaHy1fQudEikKWsQA1ev3WD99DpGwMl0Hcn9g0i/hXi8endE4NXX3uA9Tz01QSeb3fUNJC12ZviuHoDK1xr9M2OMpXljan3wRd2D70CEje0ep86eo8jzUUp8lBk/JJozPcT5ZleSwxNBYoq8D0pWuxE3pSEpyXn3JqOsDXmaMfDoNSu6z0EYo19WOCsp2iLpOgbBGEuMB7jJ+kd6/QGtokAQWoXS7z+E+mIq+KDfh6Wl5VQZOXFpK4CkZmonOMEk9tUkqCo7Ozt88Ytf5O/+7u/o9XpkWcYTTzzB7/7u73L58uV9MqUz4ZMeATIqAo6hZORiES0pEHxUNAzo2hJMG0RwNA9FSDJrjwYDmJahq55KlBUse9ZTSqS7SO0tgQKPKNzcDXxstUtBwNrUZG4anQsEMAJVZqisQaOkXTuLlESKGasrpDt0YJapxOIA3X2bU91zIBWppPno0WzHWZbRNPFbRFc804pBdFwrPe/s9rl8qsWKRpCcwJSqA4LD2pRZkdhUsQhGPCWGknF/jTFxZ06c+7hFMMsMMWTqcVoSVahMwY+ryK3ekJ/McrqhjzGK2pyAG2cWpggl0QtUU7feWSPUSztXD+LZNTm3HFRxyHumdVENiFgUIWBwpKZhHQn0jGFXHUtAVlNDGn38RrBiptCJOSvgY8CKEmPFlrG8enOTJ7TNJbUYByxFVAydQ45UYUTlqar5BQEF6AJIgcey1RfaudBxgpge0JnCVVO+NpdAHpVMAYkYLHqI3aylAZWCIGCNx2qJI2Pgl3hvtYTtbKDD02y2I+da2xQerqdZeM+3GUjfXBb4t3Cesx2lKHe4hOX/DefGd3SXGptKHA6PUSFqRiXCZjlgqSipJEIJVcswjMopBDWBob9/34YT/PfDHXSj73znO7z22mv83u/9Hl/84hf58z//cz72sY/xhS98geFwOEpRHuvMQl3EF3xAjElGGg9Xd/GwMGIIIS5MNG8SEcMwKM4KuWtUoJr2R0ePfQW6C4gIlMOSpW4+dTqUkmoSHlYKb6YQQxXgn77xA4bDHR5/7BxoHNWWTB3GgBlrk1V+MZ/V5KMw1tHz8E9ff5m15YLTax2MdSBmPP9nBGPMkXWPfzSMpSMAbm32ObW6NjuDvN5nbB3Uio3C0UKcYXeOQRGiGF57a4N33r3J8lILa8ec8qOoZmnmoLVJTGNRSI6bm1t0u13y/Cj7ZNyOcQH79LbdceYuhJAyCZMjEEHqZ/9gpLdTVRUiBnGOLMv21Wcd1B4bDocUrbvX2ammnsyLMA9OsDi4Y5/u9/u8+OKLfOADHyDPc86cOcPP/dzP4Zzb5yQcb6QF3BT0OVfnDqZ4X8YaYggLaQwGDJtbA7qtnKIpaGLcxn0qUF1Y+lWIUFYlVsBOMfoqJBZslmVzLx68PywDH9jb2+OX/69P0MlNirvqDA+U+lp5luOrlHU5SKZ+NtjfLVjEEDC8u9GnY5VPf/wFxjmPRnhwds/OGkPQhlI3Wwh1pkmESIruv/nm21y88NhsjRFVTG2UhdS2e8HWm44KXqMYBl7Y3t7hfZfO8Z4n1jBmtDEfmUEvjQSqzmNm3B2bm5sUhVAU080mp2y2EOOU5oGO/wghYN1tylGiRKMpcHhAeF/VAU3BurFa5EHO0KYWqt/v0+l07rB1BGrq72Ip651g/nAwTlWpKmfPnuVb3/oWMUYuX75Mr9fj61//OleuXOGrX/0qKysrfPCDH+T8+fPzHvuhEBV8tOR5PhOnx1m3MBz82xFU2dnpsbq8Ukep0mYxdaHJBXUStndK1lbXpn6dJqvrnCP42nBpnscCbdRR4M0rGzz++OM4qIkZ9btTmX5AVhsDKjn0IwW2KV/2wJCxYLDUp3FAeOvmDu+5cBpHWkdJLbZxwWeT0xdSoaJGmUsPjjENTOse0Kmu5cVn35MUZmY1HB2r7IUQ97F85g6lkZNDRAkIO2XAezib1/THpphlwlE49CVJ81EbS3nOzyNEpfKRjtOpj0dJTtIsjh/VSOaaq44RianG6iCfEZOwSFFYoKqTq0lkZpQNut8OghFYAAAgAElEQVTarr81HA7JW3encBljCFEWa22cYO5wjVHSKD6cPn2abrfLK6+8QlmW7O3tcfXqVZ544gleeuklTp06xcWLF4+5kyCEoFRBWO5Mg/N4J6y1C6PmczuCKrc2NnjqmfdiiIgGFEuU6e3VTUZq8VwE2Nzc4cyZM1MmXSUYSTUJlU99ErSO6i1Ssi4I/O833+aZDz6PBSwh5ZkmoptTRd0hnfpZ7ZOLXQRIcqWbPEEjffj61Rv8/EfeS7vurqzSqLJrbS5Pn+SRsi8ZIcyPc978TbH0guBjZLnjMLNyWupOt9am9xRCqCWY5w8dGf1JOCFloWB7UIFY1rud5CQQUdERUeYoGl1KLYGqwadHNLc+CQmVj6gKzk63+7NQ12RYi05J5rvRstaYnFJjdXTepTiCGTGSDmKUK4qvKvJMU4+Fmn4ZY8Q5t69W9D7Doaoq8iVX/9z+09dlGSE4YuCk6fIJRnCNJxpjpN/vs7S0xK/+6q9SVVXiSofAZz7zGay1tNttrLWsrU0/yjpVqFJVFYP+gPNrZ2ZyyaZrZFzAyLkHrt24zsc/9kGkVviZDzlhMbC5ucXq2qmpc6ab7TzLJqLjMvmdxUAJbO30WV7NMCMDt1HymNFY6+dSFAX9QR9YpD3I1GtlfOJXIuyUsNbJcTB2AEeZhNkFC6y1qTiV2UmOTiI13Ev7yVbP0+4u48zssilpEOBGTsKhugwcKUZFq1prFomhUtgdDEGVtU6rpsaMm+HJEWzMTRYhSZ4vxl4/HA6JMZI7hzVMqAEdPRr3PMbpZi18uPdtWGsRccQI9j4p+6bIvCxL8nzSsR5n4g/KhijLkm5+95PNmNQLZxHmwgkWB84Yg/eeb3zjG/zZn/0Z/X5/ZLC0220GgwHee1544QX+8A//kDzPR03Xjou60R0QoapK+oNtOp3ZZESMNQv7vHpDCN5TuMbciYA7pGr08cXW1hbPPHFpJtdKhcvzb2h0P/QGEFQwtmHUB45GhPHhkec5w+E2sBAMiRFk9GfKwm33hM7KGZwRLJGgqVYhYbZv2lhTS+zO44np6LqKsLG1zdraWtJpv6+uy9FjMpOQhrZIK652MCUZlb3gKFoFLWeIqkSJR95+T6Tee3zdIXhOnd6b6/Z6PYwxtNvtqV9z7CRMqy9Aep/eK8ZkyF3OfmssQhI0yezd14HSZHhSYNNNRPgfRc63LMuUjbjLezbGIHFRdtQTLAqcqmKt5cMf/jB/9Ed/xGuvvcY//MM/8JnPfIb3ve99hBD48pe/zFtvvTXaZO393N4FRJ+MDChiH8QwNC02QkVWVqxP6VaSfkAGYjEoXRtwJrA7C67/XTC5lchtX3h1W7hw9iyrWiFEonQAQ0crRJo46NFBgMI4RAuqYNBcgQFohj2E7OyjwtQFW6Vx7Cn46FlxngxLEoKdAqKjMjdB1zm7e53/zNf5ZQWjPnGQZj5DksE21qFR0OQMvC0Ob4ULHloqaNbGG8VipmbiBWtq+k4gmd4FDuFc3OJGcYY+sKo+daU1LinoEpCJ4uCZIWY4YipGpGAowo3tPU61BScGg6mNYhiX8k7n/dakFSzJObEo7VZOiKmT+GzIlfsRMVQ4BsDm1Ws8ffYMNgi4Kb0nKTAIjYZLkIKg0NY+agw7pgV40BKkjUewgInKxIuaCewQcLBrMzIshTfkQelroNVN8ybpYU3IMB92iMER7CZ57GJ9ybvZEi6CMWUazEw9BcXqkD1pc7UUMue4kENHS6JpT2WVKCkgIxaMqemkWlcOHeLWVTIEjwWiOErr2CmHrBYR5yLKClJ4zkRDlC6FvUEWh+yJuWeOz1ExtMJ1Mspym7Oa5GqjRDr02A5nMIDTuuJHxrlel7ox0PSfKBUsSjeDAoMWhowhzgQCOSumxY3SUEalWJjwywnmDZNSTMrq6irPPvsse3t7PP300/z0T/80zz77LM8//zy/+Zu/ibWW3d3d49WM5g7UkmQqDDxkDlrTVFobQbD1c573s5M7/gLXbvQ5c/r0Pv7wbT8yA8zzuTRSdanR03Aw5NRyDghuiganqZ+wMcL8VT0b1R1umweGG+9uc+Gx82QuUR2UWQvlja/VyjPKyi+aNA0jYcq6jmd3Z5u1pfZIi35eSFSVFEE8CprKo0BlTK7auLXBmTPLqZBzynuh3PY/pj67Fkphrh6kaX4XqKqSYb/HylJ3iheus0oihCbZM7c1lQJnvUGfECryzNZjmX69TqJaTSuXIAzKkjxzdY+StD80O60xAircV+Cofi8lYDM3kvFNjk18KPlaEfAh9eEYf8iYCmmNWVjFwRPMDwbqNFO9geZ5zsbGBjdu3GB7e5uNjQ2+973vsbe3h3Nu9HPHaSLtT9PaxPncgyKbpgm4H9YkCdR5FS7fdSOpv7i5ucnp0+vEuiD0vyMUxVjo9wPG2FpsZLqEK2mMyiwbqVxMv5T17rhzNQsqliiOWzeu8eS5s8mpsbf9oxltA3XtKa1Wi36/v1hxrtFLMyPZ4K2NW5xetckQmDOcc5RlNXe/ql8qg2FFZhojZXbPRkjN5DRqKnyf98NoUM+dZllFgTIGKCtWW9Oj3SiJ267WoDr/LhpKej95ZrEy3akhzX/CVM9jBfq9Pq1WcVf2hTUWRIgHkEHtD6Dd7mLEjLSfYy0jDowrk+8DAaqyxN7DdjPG1spfi7I4TrAIGEmgNn/+xE/8BC+99BJ/+qd/yunTp+n3+9y6dYtf+IVfoNvtPlhqa0FRx2xBDGUV2Njc4ukLj83s+mbeXvptfKOm7FRRrr57lfVPXEzp5hhmz3SZN4wQNUU73756lQsXLmBFcMhsCkytHckyzokWPGKHj+9X8AilQn9rg7PvvzQ6uOdmUmjqk1CWu4wn9IIcaArRpGoNH6Hs91h1Ydbslbsiy3KG1R7zquJozJednSFnzpzFWpPsnBkNpZkhSRFGD2SUzQz1XutIc2dgYLcqKXc2ON1+ZrrXlrTfNIXLc6vxkZRJraKhY22i49ZCH1PtUyNCCH5qN67AsBzishxr71QTMnXQNdXI3CNcWQdHBgMlz9v7VIlE5KGycRpTLem9tkzrHKrViZNwgn1wTVZgc3OTEAKnTp3id37nd/jWt77FxsYGAB/60If44Ac/uLCFtw9CSvQlvl7EUMaSmzdv8uIz52eSSRBS1CAVfM9pAU4oLiopCqEi9IZ9YggUTpN1M0urRh9qj5suBILCrY1bXLp0KT0GnV1zmRjCXKPj4+mhoJGAo+cjr1/dJMewZAWJoFYJxMR1HRcwTB1a08WttXi/OOo0QJrHkoy8YVDeeucmRZbRydxCjDPPM/a2558l3N7eodvt1oo6zCwY0bwDI+zPgs/LI5+AmoiowQZQC9tl4PWr11iylvaUo+lNUWyspU/nFfsTQIMSgiVryehMnra90fRcmQbdSAFRKAdDXNa+49kqSc7Z1CIq+2pOboMAw2FFnhfJMaifSyOrfhAHT4D+sKLd7qTu3bePV4Q8L4ixt5Ay7SeYH1zTgfKVV17hu9/9LsvLyzz++OM8//zznDlzhna7fbyVjJiUmBM80KsElzlWuvnM6EaJ0lUb5zO65j7o5F915Czc3NzgySefZNSeakYHRUPDSM3l5ju3lNQrIogy6PdZXWkBkuoqAzMwZlLPiDjxXmZ9Xo+lGGP6Jcq1Wzu8/Pq7XLpwjm7qBjQq+gNmynFv6EYuc5RlOTGdF8EMT28sAtdvbfPm2+9y8fw6S63iQf9wJhAxKVo5j41H699E6PV6dDpLGGNmGouI6fIjyU+a/h4LkBEPJNUiEw0qyitvvcu13R7/85mnyGaw9xhrkGAYa/zMJ2rjfSCEQJZNv0iwOYGNMYQwnfuV+jeVpAp3+1RraoVifHDvJCXJwxZFMa4jEEOWZannBwfbBQeDAXlR3NWWE0gZvgWVaT/B/OAgbZ6XLl2iLEuuXbvGa6+9xve+9z2stZw/f57nnnuOp59+muXl5XmP95EwXkRCVNjrC0WrhTWzMTES37IulJrB9e45CKhr1WoDHeXW5ibr68+mQlRzZ0p0WhiNYQE2JEVRgRhTlMbWdoTG1OV32hAR8qLAhwh23s9jXGiwubXD0qlV3vfex8itAZ+k+GZbtLwfzjmqqprb9e+OsZOwvbPL8soST196ArcIXCMYURrmMrNqa0mBfr/PubV1EJltwlIbynZyEnSBmjhGYqr10bTfvHHlKs+/8H7OrS4hMzgsGoMxxjjXWE1jKLvs3hH1o0RTA+H9wToeP9I16ky5Mff2Rw9S3xkVhmVFnk84UJL2wvAQ1LnBYECe53eVY4WaEh1PahJOsB9ORLDWcvHiRS5cuMBwOGR3d5dbt27R6/X4/ve/z7/8y7/wT//0T/zWb/0WKysrx64uQWIiU3hjqFQZ9HZYbqemYUnV/Oh3x4hidQMfTtF3nk6IbEqHizK7Yul9sB6V1LtTNGBVGYrjrcEpnl6+SVcvoOLqTqRNuGJ6cnhGpD4cJ5QWZD5OlGi6470K1OUURijwIAa106GMqICjjSWyWRQ8FvrsqqEl9j6J5+mhAjIUtETFMRCh70vWO11WMjNSZRVxtbSkIFOcyGOxAVMnuASnSpshZXC1kacgERGLQY6kC+0jQSMqBq8w8B7rIHMGV4uRzhJC6nACDlRwInSMp4oleyjT1Mu5OxTVQCUZt/b2eLpQOhKwKHEqOy9MTgIBXJ04yEWxpPqjJsGhRmvynCIy+1azzoMYoXSwpxB6fR5f6SZn3CoyjbPJCDltokDhLJ1QsoehwI73/plBUC0Y+gE+CkW7Xb+b+nyYwnBEYxIhNpYgqX0oNdf/MJeLSF0UHIhiGQAVStsoGYGIJYrUHYhKClGUAq/3nnOKI1NlV3c449bI1TBEaJWKyfpsxmUe14iEAMbiJb1BQ4XiEHzKRJCxMVDyrMWaCBkVkQwlwxJw6mkZSxWFeTGiT7CYcKo6iiY0XYG73S7r6+sAPPvss5Rlyfb2NkVR1C3t5Vg5CYlbbokIXiPvvvs2z1w6DxKTMT+FjTitsyExSr09BEpNIYX5FIdFmg70EpNqTxS4uRv46GlTH43JUt9/xE4HzXF0e9RiHvtTc5eDMoC1tdK+1k6LmcpTUAGDBRSso41SBoF8PutqHAtPmYIqCIMqsNINZCOS8MhsT5gqZ3r/36S+riMixk3ME532UA6AxOn2VaSshG47KafYOcWrkwmcKrEEyI2gGplezPR+SBKTHojGkNn0XASdWbPGJmthSDTHqILq+Nqj3NkcNGKNpDNBBfb6EKuKrhWEQNQpnU0Ctu4J4KzBqeDjQUkr04ChqjyVr8izDAjjUrApDUlIkp8hhom6uMO9/5GLoSkzXcUU9MpEaqdY0pwXkBhwxoDY+xrlyU0UqlhinWAweAwugnXKwDdEsVrxqHYrhVgH3CJKcoT6ZSB3GbkYDFVakxisRoRAZtNYThIJJ5iEaVJMkAy273//+7z88suEEDDGsLS0xNLSElVV8ZWvfGUkl3q8MJ71XuHmzZucO3dmhltiqgqLqoshxjIRte/1+3Q7s2+x1MyhReI/DgZDWkVxz3TstCACzmV4P79nMY53G6IYdoceYwu67fbcWf+TKXljUufy8aOa9+gArXXee33KsmSpuzRyahYB1tq69md+KD3keXsutW3N/GlqEjRKXaK2AHPHJAchAjdubLO+tlYHKWQmw2vUg5LCzpz2H4HKe0QHdIoJ52Ba9z9BPZtex+XUd0f13vaSNXYUmL0vFEKIOCejMJ6QqFlV5Q9UXyOM6xruJcucluacaiZPsLBwMUb6/T6vv/46RVHw2GOPkWUZr776KiEEiqLg1VdfpdPp8JGPfITJzMOxgZiRUTwsk7xaYZPE5SzJAKpxfupGt0MT19GIodVK/R5n6vwtUE0CdUOacjik1W4aYM1yXOnACnNU7UmHTxO+M2zv7KARlufgQN4PIoKR2arjPBAmKWP1+n18jKytrtZDm6uw5AjWppzGPN2EqlKszebmJDR7mxFD0AVwDhrIeKd5++pV3vOep2q6jc6kEZ+MBCTmtw8HrZ1II+SS6EBgCDLdJS7SBEinc+8xKqpy9/dYK2sdtDltkoOd/DnBWUvwB681qqoKa+/ltDR7/0kq4QT74WKM/OhHP+KP//iPsdby6U9/mk996lO8/PLL/Pu//zvPPfccH/jAB+j3+3Q6nQMbdZMbc/NvJr3m2w+LJA86JRUlgSpEorNsbw9YXlpOVACNM+qImhZeq9VC1Y0L6eaFOJb+Gw6HtFqtmWeHMpcITr6qgOk1DToYFFHY3d2haHVm/ixEkhxe5SvQug5kxvMjrTolEa0sg7LEWkO7mElL8vti8n0YYyirikWKUwRSJmHgI85BUSSK2txqJG6DsYbhcDi/jsvA7l6PVquNc7Pl/AP76LSKEnU+xKt7oXHg3nnnHT58+QOkHWA2gQpnHaqa9p45TdbSR3Z3PSvLy3VtSASdLllPgLzIGQwGUwtUNTbQXc8TYzCx7gAewj3rPMcyEk3xfSp2t2JHfR4OQstSQGqFxTsgJA6app9ZpOz+CeYPZ63l0qVL/Pqv/zohBJ5++mkef/xxnnrqKVSVT3/608QYefXVV6mqal/q9l6IMe7zkJuKeWvtPjWFyc9oCqins2AVaw0lcO3mDU6dOoVBsGKYZcQ4Sa4x/+CiSRtC8HPMCi0S3UhM4gT3epxZW6ufySwNCalVezwq8yhbZhT5VhEqTQYvEsnsnGpo7oGGMuI995MWny2MoYoRH6CVZzipC69VFoLSYq2dX3RQk0LYoJ+UVZx1zDOnkc6l+b+TBqnMFXqVkmcZuUtzxzbfnPJQG/pwnGNqbug9u3t7PP7E2VQ5WHeAnnYZ+cjemNLSSJF7e0/H2FowJhDjvc9gIdGWYqQWFanpRipkWc5gt3+gsURNZ629zwM1dlyXdoITNHAigvceY8xoUscY+cEPfsDrr7/O6dOnGQwGvPPOOzz55JOsr6+PIv73chQaB0FE6Pf7bG1t4ZxjdXWVrJY46/f77OzsUBQFKysr0zVWJRUMKbC5uckz733vuI/OTM4LGXEgdV59Em6HKlvbQ5aXV+Zy+UWrSWgkGltZnLld1zjI3vtacnUemYQxNaYMSr8UWrnFmaYUbr6YjMoZI/jAwjgJgYj3Sm/Qp9NuTSgzLQacc/W+M6dCalWqssTaYkRvmRcaJ0HnHaip0TgJ/WFJludkdoKOP4Mxiql7tMzxXAox0O/36XaK+pRuRCOmi2mfx8OqwhhzT1nXJI0aH+i0hlg7CfU23IRt8jxnu9w60PibgmSXohd3fF9p5K0XpG7yBAsDp6p4P+7G2RzGvV5vZOB77/HepyZG90uhTUBE2NnZ4W/+5m8YDAaUZckLL7zA//pf/4vr16/zta99jY2NDUIIfPazn+XixYujw6wZx5FBI1EMQ+CNd2/x0x97kRwaUv5UNuI0+g7WRFpqiCK045BSW7Wi0mxPKI9NEvyqBIRKDDe3Nzi3Usw82ilAZtJR6EOjwpDS6/M4twPCIIJRoUUTTzP1eKbZ0UhGV8qsUPmqVnyZb2XCsPKECCsrXQwB5jqm/XtB4tdrzeUez5d5nmuiltIHdvues6fXkwKTJlWReTw1RREdUGoblZJOtGzYJYp5jEYMwTiqEHGZYEWYdyZhRLteiD4WKXZ7Y2vA6ql1CgFDTGOcqhJe+mSXGsLgg0fn4HUrsBkCg94OZ1oZlmqkeuWm5SRpckQy5/C+6blyVBfSOigJVeURhcKY0Q46ukrT5Vo1NfJkLPt8+0gqgcxLejtGsTEiOXSHhiu+WU16V+O/IZKGkGowkpMcR3Go8Xjq/1fBqxLRKen6nWBWuB/j52Eo1Qaaphxh5Flba/nYxz7GCy+8wKc+9Sk++clP8oEPfIALFy6Mu1Y+ADFGvvzlL3Pt2jVefPFFnnnmGf71X/+Vmzdv8s1vfpM33niDF154AVXlS1/60oib19xcCOGuVf+P1DK87iK46WGIo5WnIGTS6Z9OlDQ16OpibaSlliAZXUqGtZE+SyjgxSKqSFSiWHaN49r2Fk+eas38rBQgs0mi0ftAQNDaeJhHzNqLcHOvoshbdLKsdg9sTZWYjkGTihMNqOJEKJylrCqiWKbagOCe42mODMNev89g0OPU6jISQy0hPD9MBiVMw5k1dRZKxpzuebFIrDj6lWdrt8/66lLqjyCeOCcqnxIh9hlGCFrSDpFbtktrDoe+Yghi8TGSu9SzgJHU7nwwz6zK7ag7NPDjKze58NgTZChOAyqKTmkfaPYeUSUzgmjAh4BK2pNniahwzQutzLEsio1a9y4Qsmm9Ikn7Rp4Lw+GgVv46okCIJMpmQBgOSkSh5RyitQRvc5U6YRJDJMQUqIqkIu7xbad5Wgm0giWvu3I7jUimtANJNnt03dsfWG3faOosLWIwRjCSLjIaj9bZibrI2kdPqDMsscksTP46wcLjbk36DlIqcDc4SDSLH/7wh5RlSYyR5eVlfvjDH/Jv//ZvbG9vc/ny5Yf+4MFgwHe+8x0+97nP0W63KYqCz3/+81RVxWuvvcYTTzzBxz/+cc6cOcOf/MmfsLGxwdmzZ0c30/D4Jp2CxoloxnLgMdUtD9+93uOxc2frraDZGGaHLM/phZiUJGZsmU+UftZ6zdDv7bG6PB/OhtQH4CKoGynQ6w/IXYazE8rkYmbG5RZ5RAf4iKHAoKyoqgFFy4L4heDVT8IYgw8g2WyKOw+CECO+KimyxXpWADiIGpnH9EoGkVCWFUtLYe4F59ZYCA/ucjtLCHD16rt87MNPzenq8ytZiaps7XrOnTtHneSZGZyFqhpOzWEclkOsBefu3uG7cUtCUFTvbZEkoZOJouO6ANnZsU30IGiM+zKvd4M19Xh8KqRGmvN5Afe0E9wT3vtR/e+kTdE4CN77h3IWXAiBixcv8hu/8RuICFmWkWUZly9f5kMf+hBlWbK6usqbb7554EGqKsPhkM3NTf7yL/+S9fV1bt68yYc//GE+97nPYa1lbW0N5xxnz55la2uLvb29kZNgreVHP/oR3/jGN1heXh59bp7n7O3tcerUKX7qp36Ky5cvH3BEiXF968Ytzq6vTpBHZjf5I3XGxod6U5rdtVN8uN6C6uqnKig+VLSy+WwBUodTFuGwVqA3GNDpdmlljnE8zczm4UhyeOMBN/xpoDkooyqCo9UqRlH6RYOIIQaaJqlzhyqUfiwlvFgYH/bz8kGVpIOPzjqHeicS3Wgx9h0gCUgI7O7u0pq98NNYgXBOC0lV2d3tc2l1LYnuzciJVFJWa5r9Q0IIqQjdpG7w+55wTSXLsyxlFGLEWHPX2OHYoJPJL2KMEuIBnYQDzPnmCj74xVkfJ3hoWGsJIfDFL36RK1eu7Ps6pHn5MKpezjmHiPD+978fVaXf79Pr9Th79ix5no8+6NSpU9y8eXOUFbgfRISyLLlx4waf//zn+ZVf+RWuX7/OH/zBH/D888/fUfHf3FRT8KyqvP/97+e5557jwoUL+z63WTDNDR8MlgDs7e7wvmffO9YwnxHVelQkPUev3BBqec26iVpZUuQ5hZ0HBQEQJcaKiXKYuUGB7d09ulmbzNo6zwKNazWLc0tu8/pnDRlFFFNUK2s0y0MEo/OatndFElmIzEom8kGIKN5HWu3WAozmNtRBgeGwxLn5jK6qIs4WZFk+9+eTZRk6GKRsri7AvBbwAVZWVmbWgXrf5eszNYbZ7T2N8In3nqiws7PL8hPnMcRktM9AZKk5+ltFi0ElDGX4QLvmYRAVMA4n969MstYSy4oQI5m7+0kzHA5xzmGtTY0+FZBEDXIuS0XnWqtT3eNSlfcUeQF3VVpKayFE6ixF6kUDjDIKJzg+EElqib/2a7+2z6ZoAgK9Xo+/+qu/OvDnuRD+f/be7Eey7Cz7/b1r7SEiMnKoyqzqsbpNd7v9ubF9aPlDoE+cI3MOCH13xxwjhATiiguu4E9AXPBPcMElxoyWML5AIFlIpm2BsI05xwa+HtzlnmrMzJj2sNZ7LtbaEZFZmVWZXbkjdtP5tKo7Oysy99p7r+Edn8fNqcCaTELDm99w6Ksqm5ubDAaDM/Fce+/Z2tpia2uLT37yk1hrGQ6H7OzscHBwQFmW3L17F+ccBwcHJEnC9evXj3g2xhjSNCXLHp+nvSmlG41GXN3O50wuzffbNgIlBvCTJEErvxa7xuIBj5fw1b37+2wNh0Eafg3oUibBKcyqmmtDsKrzGnwVs6JXtdiUu4CiKBdkBh0rNQJIEhvT7B0Zm4aNN0+zroxoCcEcyvOMupZ2OSVPQV1V8eBav/qdmKCVoGvus1nGdKr0+4M1ZXSDsbnKTELT0+ico/bKZHLI5qagaqLsb/vvpjn7e70es1mJ7V+sHkzwQQ3GPvy5WmtxWjw0QFTVdcgyPJBmCAEAFR7ZkFXXQZn55PM+GCjGgDFypGdn1ZpBl7g4nGarp2l6vsblxkGYTqeMRiOMMQyHQ4wxfOc73+G9994DguF/ViEcay1pmvLqq6/y7W9/mw8++IAf/vCHzGYzPvOZz3Djxg3ee+89Xn/9db7xjW/w6quvkud5axNSJdT9lbMp/WQ9DDoKZHm+plSeEoj2dP7V+x98wJWr2+TnyshcDITYkqG+E07C7XsFarfZ3tkmMQ2jUTiqVlEAJMSG3HW3U2qIKFVVFSKuBIaVrjkKWZotsZKsH6pBtb7fMXXqOXxjDK3HMJ7NZiEAdQEBn8dFk4HuCvUyCuPRmI2NjbUsM5HYerXCaza6SaF8eEKvl4fSnzW8kv6gz2g0wtrkQgfgHahakiQ9eVeP10rTFO/9Q52EoihJbIIxx85qATCoj8QOD5k/RVEEOlZjTj1lmuzKsvp2l4JXl1gPTGOkvfvuu/zN3/wNb775JnVdM51O+fM//8qWvgQAACAASURBVHO++tWv8uabbx4pBWoW+WlQVdI05Vd+5VcYjUZ8+ctf5mtf+xpf+tKXeP755/n85z9PkiT86Z/+KW+99RZf/OIXLyRjcBoc8P6dEdd3dyMNYBy7hOh6GzCxTcjPqT09qbXUbk0HlC4q7Z3CZFoy7GXHpN5XNBQC1ZoI+Li3OQDfbgxpTs6ggNagntLDrXv7DHLPzmY/NlRbmndmVjEiaSI4yyxDq4Xg51SwlVO2Bz1SAvtKZyL2EWkCTj21hm4bUWVx9K1+rGV0rDZ6TSYhvENZqSDfAoqAhFIHqxaPsCme8QpLShqE0sYKayC3ScziNs9n9XtPagXxjsopPhpAgV9oPaWgDpjMJuSJOdYrp0tlj20g7D2NbbnYe9q7ViPTFYLZSi3Cm7dGfGJ3O7ANGgjzIpJvtvY6AuOPAfI0YzIrcTSNw4+ak80nT6P6CXO79i70PcTyVZ3vDI3tEfbVnlVqVUqFwKYXGR7jb1OFma+xFjIR6qb9OBryxhgevqx13hNkjA2N+00RrRJ1eWLWXIWEikol/vpwr02wTE+950t8lHDewGzSlBltbW2xvb3Nd77znXkj8SuvvMIrr7zCP/zDP+C954UXXjiiY/CwyL+qcv36dX77t3+bW7du0e/32d3dBeDGjRv8xm/8Bvv7+2xubs6bk9uKKpfAzXff47kndkkkEG2qgFAFVVQu3kFJqKnJ8QIpFSmOvjUUdboGxU8BzQFFBUaFYuw2iaQYKuDiajHPgrAfKpIkaGZJFGYCGyXUvTbeRrioEpySRAE/RSXlTplyUHqeuZKQm/gBEpAao3Wgi2vr+YgDXNisBdQtegNWDaMVU8m552oOZ57/ttNjA8VLwrr4/k9D3xZUvs+MhCFg1GHw1CLIGsY6ViiKGZu5ie5lAihGK1gxraTG66sZ0Pce9TlFJjzpDrmlhhdXNpKACrhblCTi2U6FFEXmSiSrN8wHVqEumOmASnJyPCmNYbZq9Zqw7x1OJvRMSUow1FUMQhXKHqWl4JmEckKJTe2BOr+trLKieGoSLIrVChAONeO7d+D/fjmlPydJSEiat9DaywiUpBmQo0wrYYrQF0PySNbDigV5aAygKNGeCINWDKXzVN6TJQarFSoZgoSyX1XUpKgadmzFTUk4VMs1cRhfABvUAja2zRxSY6xj6JSpKlYMptAQYBOLqxU9saxJQYJTUThFbIo1glEPmkV3Jhw+XiyKsJ3MGLs+lRh6foIaSyU9HJDFna1rQaNLnA9naWJfhhER3nnnHb71rW/x5JNP4r3nm9/8Jv/yL//CO++8wzPPPMNoNOK1115jPB4vqZ4+REo8fkZEyPOcZ599lt3d3SMpteFwyDPPPMPm5ub5KU3PiaYG/+rVHaw0+rHxgFpFOi2GRQR5ZBam1THExzud1qCG1K5XLiXQfsrKaPhl+QsxqAhFWVKUFf08W35ELOZG+/MjlBspXucBorXBeUdRzNgYbLTK/PE4yLKMophh11SicBzOeyZzxdgl47cDqfoYsCTPc6pq9SwBCtTOgSp2zfsNgLVBE0idX/tag/B8xtMZW1ubMYbefHc188eYcBkfBbRWg1Dz7lBGoxHb29t4788k0npRMHFd9Ad9yrLEzUP3D/85xaLLTkKTGDj2c865BZW79yduVCKQJinOebSRVT4BVVUFau5jpcFiDNZYnGtIHE5HVVUY40ImDRb2wJI/Jgq9LJ9Tsob70qWPXmYSPo4wwLyr/1//9V/Z29vjp3/6p/nUpz7Fiy++yF/+5V/ycz/3c7zwwgv88Ic//FALedmxWP75s2YlHheFA4/Q65kl/3+R9l4l1sVgo0u3Oh6NGG5skKfZIxue2sXqHIQHEVrWZ5Wjrmv6WUbMdkc0s2Q1TqQxcT2seQ+uvGc2nTAYZOtxZs+ALMuYTmchgtcBP8arMp5MGOR2aW8BOlKqpRr2+LIs13L9wGYDpgO9LUkieF/HYM3alxsKTKZTtre3sLKes0nQRoR4NfCKwbB/WNPr9UL/0yr3mhhJVWDQH1BV1ZnpgT0JHhuqER7yOVe7eZD0NAiQpMnRnoQHBLCgLEuMlQcal020qc6ilVCWJUKNNeGX+iPTS0PJpkA/yynKOpZEx3JOluflulfMJVYNA7C7u8vP//zP8+qrr7K3t8dP/uRP8uyzz/KFL3yB5557jt3dXV555ZX5QXOeaPiy8X88Y7CccWgT0wrUJGQmJFTNUnrZr4JvbQnN5rRqeJgzIRweHjIcGPqZXUvoutlqjBFkZaJyTR0p8fwNlaIzQI0hi6qYC8j8MFgFrA29PqtuIpwjXtR5T11XJIk5k7L6OtDr95hOp10J1lMAlfMkEljEJJYs+HVQCZ0AXWMmwXvApGTZmgRZjiEEdiucD8Ju6x6SBw7GEzYHdu1n08oK9RqtnirU1Dd/Vg0D5HnG4eHhomn8EY+gJqgpL3cmnPg55yLZSzoXcz2C+IMNFWztXPjcsfNYBLxzGONP1l8VOdVJWLbRvPOhzCj+zLwbM6YVlKDlkKdpCJypglk0c5t5j8ylk/Bxg6nrmoODA1577TVu3LjB7du3+dGPfoT3nq9+9at84QtfmGcBVJXJZLLStOBF4O79CZtbV0mtiZtwOCxXzXNkIpPUOhZas7ydQllW5DYeQW71Y2mCGMZYVM2KRJ6WW4I9GIM3hlLBJHaehl2eEaFha1XRvKZWcCWXOxFVDdOZDSWA8ODB1hFkaUZVdYPdSBX+/a1DXnzhJQwaG9190xa67uGhUeYiTVPKslj99TUwy8EpRs6KEWrwfSckEgDGNaS9DVLb1MOv9mxqrrLS4FXcV6bTKYPICLZSe2JJmGw4tMxmU+zxeqEToIS3U7FoXz7yl0vwzqFakySn3Ff8dlNdsQhgPfh5MRYR88DZ0Nhl/hHpVA0XOpLJOz7+JlvQT1Kq2sVMwlHnRtR1o77zEitFkqYps9mMf/qnf6Lf73Pr1i1msxnf+973+NznPsdbb72FtZbbt2/T6/XY2NiYe6gfFUfhvfdvc3VvL0hVawV4VMxcvGZVMYy5ANyK11k4ooPpMplWiEnp53mQYV9btDgI4pXermjfaZyzRTK/VqH0gtiELAmlaE3fmsoq2LoDhGDIeVW81ygmtOK1pYo1yv5+MT+4u4o0TaldB1T4CNXV771/j//jv7+EUxBpVlqCoysFR6H2uSxnK79uUdSUpbB3pRtq1KGs7+Qa8XXg7r2aza2rwVjEg3pUFlmo1jV84jV8E0VayWQNz35/f58rO0+u4oIPIt5nnoTyWyE+g0dUedXAZFJQTwue3N0KDcsnTCXnPao19hHJRGPMIpvuPcc9ae9DME1OSJk2orKnlxsp6gOrlIhFlnoaGptAiX6AD/8d9PrMZlVMaBgWYTJd+nOJjxMS5xwbGxv8xE/8BG+88QY3b97ku9/9Lrdv3+a1117jqaeeIk1Tqqris5/9LL/5m7/JxsbGusd9AhYGIDCf2KrC4WjEMzeuMBcXVr/CDbEZnc4PqHUsM6eKBQ7HY5xz5Hm6duPFGoM6xXmdN1O1N6bjtZ7hNHBesbLEibM0L1b1fBbXWeMG7BVvlP39fZ578urSeNY9Sx5ElkDhGlFCPbbyW0J8FPMnEr/wCgejAzYHQhqNPCDO5fU/P4nBQBFpsbIw9pbFe5Wl742nU8qqYntrL/QAyHrzK8EeCuWyokusNMtft4STZsPB4YiNjQGZBIMMPOjpyrmtjCtmMNvefZZi0qFhezxicy9t+aqnj6X5U1RlED8DFH+iQd6grBz/8q//STm+x//8P39uURB2vJqocRIMD32wVhQTzx8NFFNHEBL9dq5XMP9rCd0CRsA5z0n+TWPSewURcyQgeKIvpJCllqKu55mlBwPBl07Cxw2JtZY8z/nFX/xFZrMZb7/9Nr/8y79MURR8//vf57nnnuOVV15ha2trXmbUyUyCm6K2zwQhQcl8DSgHhSHLB+RJgqshUKKEk3OVR3jYBMJX3jlgdZujoAyqGUXa54NaqVNlO/OkVDhjV1z5GuobE/Gk6jEqTK1ylQTJTTv0p4BKErsMasBQSo/CKcmkYM/6xduID0No9w2FKLNBtCKVUC/qfYU3od511dXsmqbMauVwcsDu1efmZXmCRTpSW9/gaV/zx7JJv/KU2Yip22LbjzFJQitPToEKXAq1aJi3FWAtd6clvpeSAal60ARvEsCRcgBssbpcZVjrCY6aFDFKohU5wjDvcVi0lEnQAhAqCU2amVagJc6l3C8rylS5MsjoOYfYilosljSwcK54amUKVSr4REgr2M9gU0EKKHrQb+OidQ0JFBgshtQBKLVV3h+PeOLqbnASnENtKGexLSYUw2M3iNakolhRxCi1nOzIPD6CpZxSA0ItGVMVDg4O+eQakpaB0tnRQwHL8Mou94EnrSJa8bBJOXbKm4cGqz0qINMavKDG4qgwpHgPta/w1Sz8Jp+GpmOBUMITmoETIK0LjHNUCNg0zAHjcRhElMp4bA2pQpXBJvHX5LBZKEMpGZdKITn5/BmHp52Kp5SMiQOvjoGvSVVRteRz283MFZatEVIpqXyYI+prRDxGPDUGL/kKd7JLdAUGQhlMnucYY7hy5QrD4ZDPfOYzfOlLX+L69eu88847DzgHnXIQlnCk/0gM41lFXZZYlCwhppmDH73KOwiZhKXaw1VCCWlsYFYUJNYwyCNd4xqbU421KLo29VPnHEVR0O+3YhqcC9YYrE2p6/VEWp0H75RiOmE4WDBZ6CNYPNaBJHlYir1dLCJ5QWtlNJ0w7PdPOTxXq5FwOsLeU9ftl2gJBLlZDM5YigoGmSWR5fLmNWdXWs2qPAxRtE0BFbwaZtMxWxsulKyIQdcwZ9I0xTmJvSPtQwmxusl0Qr8DVWibm0Mm07OVl9bOsb+/T5blD8whjSxRIqB+mYv+9OdqrY19BU1O9Cga9lR7wpQwRjDWPFJ9PrxXg7H2kbZbU76kGm2DjpTlXWJ9SJxzWGsZDAbkec7Ozk7g9iVMmJdeeonpdMrdu3cpioKnnnoK6FgWAWJmIDafKpHmy7A/Ldga9umlydxxaBbtqu9AjK6t3EjFUwF1rfSsJbMG1LWeYn8YbGJB68jHv/pReOeYTqcMn7q+8msfhzROQuWCpPCKoWK5ezBmeziISstA5LNYdabpUUhToa7qtfjbgkaDTnACd6dTdvIeFp0HIMK/m2rv9aOhmG6v2Tvc66KEIRglhRcOJwXDno39PgrGrLWhWyQYV96vcvqE4FCYO8FJ8CLslyFS2xfmz0cjgf8q89xpklJUVchwJ+3vPQ2BRl3V5OupNjqCra0tRqMKN8ge+cgns1DJv7l1hfKETJjGsjUVGxi9mm+eAFWdMzt5PZkeXTWUxp5EHxwalwMRyUnDnrsokY1SrA3fO/a7linpjTFkWcZKW1Qu0WkEgXRV6rrm9ddf54033kBVj0zYJEn4/ve/zw9/+MO1DfSRkIV+Z1wKeBFuH07YHPTYzFJM06Uj0aNmdX1aomHrF5H5s10ZN7SAWsOs8nifsNnrzQ2/dcYJEpsAsrrncAwhkzBhsLH+cprICri+rIoIt27d5dreXpQLCseEb7/a/9xYnHF66gF84TChKVkaugOBSuB+UXCll8f15Jca3g34rrhXEpnE2npWC9HBoDUSSitnzjOtHNu9hKai2keS2HlfxxpgGiWtVV1fFoa/wYMJ5YYf7AenfJinQdxLWeLfX93cbtbTKokaitKTpuvviwPo9/tMxpNHkrl5r+yPaq5du06WDzjucze1Cc6B9wlZo5FwSo/DcqBV9WSTPLQ4mbm9sgxjwFp3qvPffL6xN6w5XcxwWcvKWotTCaxJXQsGX2LlMAsKrrB53rx5kz/+4z/mb//2b7l//35U6jPs7e3NJ1vnsghAE+8UgsiIilCrsF96+plhYASzJBDSLOlV3knTQKhrUIDyRhlNZ1SlY3d7G6Prf4+NOMw6nITQ0KU4V5GtOZrVNIiJMWsT23PA/f0DdrY3Y1Tco9o9BwGaaPAKo/RCoJ9iSVpP4jObFVztD0hUQ2auKRpQQu9TBzCnsG7rbcbSq+VMgophVDlG04prWxuRAaYRJ1yhgX58qPM9WFaoI7mU5Y7Gvxq4fTChnxgGiQ3Px5i5U75KTvpAr6kr24cVKMogpNYFSyLLcqaz6YklPcsI4y7Y2dkBhLI82TgPQVZI7KODBIsofiwDOnYmq+o8uHgcxoA1HndaGWF8n857nHMxi/XodywizH/lZbnRxx6JRDEOay3Xrl2j1+tx/fp1/uM//oOvfOUrXLlyhaeffpq9vT2SJKgD2jNM/pVDjtVOC8wqwSVDenmC1TouQLv8kZVBAWtB1a3lgPRigrJkXdHLM4T11HQD0YAKaXfn6rVEzxVwPtR0dsLnNRZrLVVVAqerdLaFWpW79+/z6s4gxjIdQRqse3wW1gbDZqVTWJonoZH4oHESZuzsZSSNYOqy/etNoDRc8/xSNOw9rTmgMv+34MErkljKuuJwMmM7TxBfgUnWnplqgkjOrbTeiFCOVdH0+VQeJl7Z6SWR2Qi8Nk5UI3W1mgEmaYp3k5USasxmM/Le6ve5k9Dv97lz794iu/WQ9eqcI8v6+Ko8ca8OOhyhMsPaJAYNHnyPTQlg48CHFqsHL+yiMvhJQREhsCP5R2hc1C6oP9skOVNmIE1Tqjo6Jutp3rlEh5A0zZtf//rXGY/H/NIv/RKvvPIKn/rUp+ZZhNdff5179+7NG98ap6KLaKJZqsp4UlG5hCRLYr1PWGg6/6wu/VS7UDREaP3qFZcDOYtnpopNPL2U+UNYXTTt2IiWohzriFaETMJ6G7eXIUaik7Ae/n8FDvb3GfZkKYopa60fPw3zgFutK0qH69KfBRwwmhXkNo3dhQ+MdAVjOxusDeUSrUMVjKJqKDRhuLlFamIiBo49Es86+jaawNh6yhyDo1bWsD+quNbvY7Rm2Thf5agUSNIEr36lWcyyKMmytrjszocszyhmj2b+UlWmkwmDq1eZeRczCQ86OqpK7RxJfroG0HEnQY9EF5Y+F9fsaVl/UU4VwlNVVIKTkGUZeSQreZSSYKC8rxHtpo13idXCiAg3b94kyzI+//nPk6YpxoSo8w9+8AP+8A//EGMML774IkmSzLvxu4YJhkQhqzzqPWOT8cHkPlv+DjuZBUlhXhl7NPbVCqLN0HBVmFhXaIyhUk+NLqKOjf3RWvBImOkQN3X0XElqwRsLGBIt27jgo4YDJjZwa8JCcqq90LAiqFpwoeG1VLhdCWmariFuH+fFkt0Z4oeKM9JibXDshZlfVkFr0IIfHChPPPk8mwpGLYVs4CRj4AIdY5dwG3h5+j53+hZhi23rIdlEGLRolivBkEvAhGdmUdLqGrm9C4lB6WM0ISdqIqWr5btvIHHvaXZp8ZAKpNZSFEF1+SINZIfBYaJQZQEm49B7fvzOHW7sbZFIDkkKVkiBHoTnkq7+HPHADpZKcvYzYRuwWiC5kLX1siqHUDHFUJIjzoIHn6b00owsySARTCL0gD4GkQRMW0ZaDWqh7mO8kJiK2pZM0Vb2Hg9U2Jg99tTAj+8VDHpDNlu43qMQ9j8FaizKMAv06DMEb06nW/IYbrrrfNa8TT8x3JNNvC+oTDjLM8AJTFC8wNCm9GJz8fGptWxDOedCwPKE6TdxhirpM0wNeT0GVQoSaiyWmoEFlwljwKlAnYA3ODxITQWMKoerKobiyKjw8vAevCStcE6pq4TgBBVAFebMpePwsUPivefll1/mxRdfZDqdUhQFb731Fn/9139Nr9fjxRdfpKoqyrKkjiIb665lPwnLI1IUhzKZTjDi6XWBQoGY4fDrKeCoKsd4UrG9tXlsL1ojBeqKa2GXrhzqS2ee9CHNXKuEiGCspW6NgQaWneSlKwOWt954h5de+InQPOlZvVDDOWFNLBlJ13toeVXSyAizTBPdKWgQcmw9UizE1KSgXjk8PGTvyna71zwnmnIj73V1CUyz/J9AZXRwb0JuczaHwxUN4nQkSRIoO71fwV4Y5scHt2/zM69+ZsFIvkbkWeg1OAu8C+vdGPPgXh0j9Ko+VmFEh+MR9lKaplHx+sHM6KIPtFFFPPqzIrEd/qS57BWxULsaMUJyRtY8Y20Yv3SAn/YSa0dirWV/f5/Dw0O2trZQVYbDIb/1W79Fr9fDe4+I8O67787Tg977zmUTjo4mwatS1jV5qqtgdTsTmjKodZgRRVVxcLDPJz71/IKJW2StzZU28javzrBSwOAFnFdcWdNP007Yw8ZYEmspy/YyOw+ex4KXYGQf3L3F9RefBQc2WR3TyYdBYNAh8oOvwUlYouz1PrC0dB2JJbCVtICmIVcQEIvH4NVTTEdc312DWtZDIMTGTBfENleCOGETBMTgLRxOD8nVs5mvf/dJ0jSWG7WXyZ1zNknohrtz9y7DDV1jiGqBPIOyOIuToHG9J9hYbbFseWh0ErxXqqo6c0l2mqbUzlG5+gH2a+djP4E1JzpTRoKWgXMu1BQeG68CVVUhAmliOcuct8ZQldVppEyX+Jghcc7x1ltv8dprr/Hyyy/T7/dJ03SuldAYcUVRRNGV0I/QtYyCxUHchFVgVjucwk6vWyqBqn4htLKi56dA4TxFWbPR70XCwmAwr1MnwcRNbaVOQmw4dUBV1ezkeSd0AIwJpWjencx5fRFoKsCbngPFUCNUCq4cs9GLf+9BbEzLr7/v9kQ0oj9rgcg849Jwi3dtP5xDF2xLQqBfvuj11gjvBVgchtLXzKaHbHSjN/UImve12kyCkMRTamJg6iq2Es+gA8xqNmYS2so0LZf3eoTDmdLf2CQRIe3AkrEGqthveZLE6nxta3C0E2sQcdS1IxQZLX2Wht3IY85YLmaMib15PNAv4FwgOpFThFglslOe7CQE1M6Dr7Fm4cg8DEmSUJfVide7xMcPibWWT3ziE9R1zdtvv813v/tdxuMxzz//PLu7u0c+/NRTT83Zjbp2IBp8iIoreIFJUaAo25vrqHo8HcbYwOjjPUlkP1iF9vOoFMRAZhsHIchkrUcsKxgVNnK3r8JJCHtjbJYGbt+vuHPrDp948TriNRaRrx9tPotFm2hoFvcYSuA/f3wXcRX9RDH1MkWvPJLtYx1QggDUuuhiiawflWv+t2MPaBmxObJp0q9jw+5FOjYyZ8NqdBDgYFSwPdzohBF4HBJ1HFYFNYqowSrUBu5MS/anM/Y2+iRrXl+BIUda34cbyhAFbt2bcXXvicj9340NZj4nThhKY/NopBC1gSosGPZLhvSylkEoHzVz9/lhd2itpa4c1tigVr4U1azrGgSsNag8GBRJbGDFcyfthWLiqgwBKBFzJm6xNE2pp2crv7rEf30kqsrm5iY/9VM/xWc/+1k++OAD3n//feq65oUXXmBnZ2eeTVjWVOgaTNP0KiFaM409FINeHkXU1jm6ACUuwNqttFzLK0yKELk3RhF1QFCkdsganIQQW2o23lUYeyIecKgYnCr//K+v88TVq1y7sgHqWHcRfmhqF3zdbtuyoogGJ0FF+dG79/jhm7f49MsvkAT+PhCHEJVxO7BujsMQImj1afzgbUMXkfOm3KjZFzu3P8aMpW21J2GRmXIEOt07d+7z5BNPdHH6hMhrvTp2o8BdFFKYZe34j5vvMXM1T+zsBFKANT+keWalJfaroA3hQEIm4e7+Pts7O0HcS2t4RCNt2zCEPpX6hGNg2ZGu6xrnPUmazDMGgRAj7gZzzYOQrbM2VmM84vppmjIaj8L6PHYY11WFqpAmFlH3ABthUGvWSF97DOpxHhwJ2TlKIoOYWsiUdqyq/BJrgGkiCCJCkiQ888wzfOYzn+Gll14iz3OS2KSznD3o3EEIhOjogrmlKitwNcNevvZNGJjTfKZpivOxNGpll1bu7RdzNd1lGqV1JhSNDVHr1UaEhXEJ9+/t88rL1xnkdi0UrA+OChDFq1/ZO1GBH/z7Gzz//C6ffuEGrg6p6NAft/5n8jAYkTU7CQ1ZS/f6s06Cob2eBJbipc1X7777Pk89cb0TW+9xhLNsdXtf6H4Q8FAUBe/fucsnX3qOK1sbnXg+4Thvu1ducd7cPxgx3MyCPbwGYdGTcERA7IS/a2hNAbAWm6SISee0wo1J1PQcqio2sbHU7+FPNstSyrIM5+Ax26qqa9RX2FO2GDEhsHPyGRrmXF3LufYoY0zsrTjzj1zivzBMY/w3fyAYslevXmUYmReW/76bDgKgvUhd4XBA6QXxCal1iyzDSscTVpgHVAwYQwJsSsmhySgBqcF4jxePkyUP50NdD3Aa7h1CVMh5fD1j5grevTdl78oV0uggBBo0IdPVPxtFEVF6NYxyQWtD4cO4TUsbk/E1Xg0HGN4/9DyzBdfyGm88tV19JKvEoyV4kzFW2KzAimck7TwABSpiP4KWeBEOa8Osrnh6p88Va8isQCJgEiyWlFCi1glLZgkbBErhKX0Cv0i4J9cShWM4MROM07BeTcbE5oytQNK1tLygYuIql4ZSLURLXcGYHs4YPBp7Uzz6mM/Nk6CaIt5hUKYK+1XF1lZG1rEWeAPk1qK1Cxk1mBfNtzXS3BtcqRQZHNY1bv+QJ4cDjFXUrN4ZdxgoPVXiKFUZFFAbg7ZVcqmgXqi8pUKoJve42nMYAbcGeyKEyULDb4LHAnmeUNY+WgoLh8YheBEqEUq1JFRUpse2HqA6Zmp6pBSBclRrnAgTFbwKAxw5dRQQPP0+N0U4MMJULFQ9xtRk3qGFMFGotYounEfUkCpYL4izZCYhNX18LYgomAKMx2FBsjmzWZY3TcuP3tC3jKEsxkxMmBeGjBTBiCdKp1/iY4TQUnVsoXY7Y3AaoqcsSlkrkyJh+8pVHs/yfhyc0GQEpImhdH7xEQ0NSRcyQl1qIYyhSzk48gAAIABJREFUMjGGWmE6HbF3xSDexaRL00q2+mfTNLIlArWETMJCvqstKKpCifD2j9/h2aev0yg0rENQrmkmbUw1K6E2uE1N3FggE/8tzCrY2r5Kam3g1W9ejAiykk6ZDwdLYOpwKkvHeduR0ObhGGovOIS3b37Ai8893epVPxyOrWqR2MeRULnjz+nxM4rSPBsJu4oTKKua3ELSwYyUtcmJwnJtjdQoYAKrz2iacHVrh4SV8VY8gPneIzo3G9uPBIQU5WjqybMevdTMWcrWiWZV9/s9ZrPZiftvc6b62Ncm1pLZmH3wBplnf+MOq4rzniwxGBrF5dNnV2bA4QKNqS66NBTBG0NyrAF63giuMWirgnfx98u8qBQQaudwrj4XA1uepJRFGVo8JfweWbq/S3y80P08+VmxoFCgLEsO9g+5dnV33XvQETQ9CVVVteq7GIhy6gZvMu5MZ2xnQiYES9DMSVBZD9ll2NisBcW1Vgt70mUNcP9gn63tLQLD9MmMFutA25Rz4agREIMX4fa9e2RZQtZR9fSHIUmS1ZapzX0EQQ2MZjX/8f/+f/zkC3urG8NjQIEsy0IZZisItLAeuH23ZnO4SZCv7JZhoURdANWTueVbgkmg9p67d+9x7do14MiRtT405YVG2nseYctBBW7fucdwOCRPbNx7uzE/NjY2mEwmD4ymSa6ohp4eIWi0BPbHFOdiH5eyKEP0nrqusMnZZn9iQesKib9HELwoThXEkCUJZmm2+Hl3dPiPc+7UvdB7R1XXJOfIlqeZoZjNSC6zBpdghU7CZDKZT2RVpSxLRqMRs9nsQhrIPCzSxs5RFVP6PcsasrkPYmkDSZJkwdHdythiz4E6EKUG3rt3yO5mjo3sDIsKYtZaEyoG1LsWa6WX0SRs4eDggJ3tbVCNseH1IwbwUW2PeSUsj2DMKYbxtGBzOCSz3RCUOw/sqp0EgpFTKPzg9R/zd3//D3zqxjNcS7owex6CGDZunITa1e3EJ+IEdgg/uvkOzzz9LBYNjakdghJ6Erz3reee5ogGcuWV+wcHDIfDEPDtSCWWREehTZ1PjeVcB4cH9Pp9MmPj+dOFAxr6vT6zojj19sPRGfsPVElMIBJ3zh/9EKFx2bsaa87GGJVYUF8tOUyhwdsrKIbsmIEfKgUWf4LDe8Jk8iEA552LFKpnQ2KhqtvT67nERwutnXDN4vDec+fOHf7oj/6IDz74IDTR3rvHN77xDb7yla/wF3/xF3zwwQdHfubDoGocEKByijVKP2N91UbLiOtTIn2acy4MyXKxRro0BRE+bgpCqXBrv+CJnQF2qUFtftU19CTMx7piy9QD0zrMs62BxchyfGa9CFVn0io9o50vBIPHcH//gOFGSpJ89DIJ/V6f2Wy2oqspSoVTuDUqeeO9+/zMz3ye//6Zl9jouI/QQIjMalUw2i9S6VZjUEIJfUU337vFs8/uxczVujffoxCCk1AUs9V1ZsYmaeeU6XTC9uYG1sQsSwcejyoYsbSZ91GUqobRpKDfyzHGYDSKgXUAWZ5RluWJS0JZsPw0JdgNoYtzDowN0f1Y1ldiSLMUIwYjEu/x9MWWJeCKCRobl8PStDj1eK+k1oJzLBeMuvjrjJiQBTppLi9RjCfnUJRNEvDOU3dgbl7i4nFeltJWVmhDa6mqzGYz/uRP/oQvf/nL3Llzh6qq+Md//Ee+/e1v88wzz/CjH/2Iv/qrv3psphJjQrOe856D0QxRDelur52JVsDioG7qQi++xiRWufuwqZQo79w94MbeFkaPV/4HWtB1IRAzrIiK0Ahe4N0Pxlx/8inmJ7d2w0kQwkHUZiahmWkqQulgWtWY0HbazgVbhLVm4WyvAILHGXjzx+8zvHKVne0h1iup73jETcK/hGDYtCNA5/E4PMK0BmNz8pSQuXTdyiSEdRZoI1c1eZqkgVelmE3Z6AuiIOtohjoJsRyoTW1CRajVU9U1vUxDwMrrOo+fI3hY0KHZj2ezGb1+H2Cuptysp/mJqjCdCsONjTNfO/SjOcTBMuGJc4HCNLPJUt9PHBOACXPZiDn1zGjssPM4CWkCRTHrinTQJdaM1tx4Ywzee/7u7/6OyWTC008/jfee8XjMW2+9xUsvvcQv/MIv8MUvfpFvfetb7O/vP9b1GvPXqXL//n12rwYhODFrCFkfR1zAKjLvSZDWDqlo+cbNpqhhVFRcGSZY78B7VJY1UtdkIGqT4vYhgrKaS3Lzxz/mmaefPPrNLtjIElSXvbYX4GykfRTh/rgg72/R6/WDEOFHDEFAaEVOgiqqnqLyjCsYbuWkqSERoOtOQkQgTUip6tCTIItO9gv53SIa1HTHFWLT0NhJi5P5MdCcTasqN2oyt7fvj9m5skNiOtKPEGFM3Ht8O/E0BRzKaDIhSRN6eRpa44x0Yn4oMBj0mEwmJ7+TGEiaTqcMBn1UBBNL1pzzoD764oLznsmkYDg8u4irNWBUjzTTK1C7oOqcLemwNH/X2DvGSHR6T6bO9t7jVc/VuJwamBWzSyKjSwAtKUg1E/rf/u3f+P73v8+XvvQlvvvd7wJQVRWNgJuIsLu7y3g8Zjwes7u7O0+PvfPOO7z//vvs7R1tDHTOkec5n/rUp3j22WcXN6I1pVpGTrn5/n3+x+efpY+CWFTW0JoqWUhth/9BJSFB2JIp07pHgTC0HqRGiJECaXiSP8RoBdT4aAgaamtwIozHjt28TyYSuufUYJDAroGA6V/gTZ8RKqgaKoFBWUGiJBgShFocSQvybhrFwcaHY3a288isEevzZTWq18tIAUmDl94TcBYSDdR2rpWhKOJGVDJgYgz70wkb4tiygulEV8bZYdSTZxm3D2bxwJRgdNDSexTBi+HW4RRPwrXhBr3GyTV5556eEqTwTGx89GoxCDu24F5t8WjIKip4aZ5aTditzv/8RBUlYYJw694h1/rKEI8XxSc5ZzdP2ocHNtVyYBRbK1OEQSzIF9NO2Z16KATeulPx5FPP0tMKqxVOckTsyudPDpDGw19C6UoeGbvasAsl9kDdPpiS97cY9vqkVEEJ3CYrv3+PglNULIUIuYMeNffE4VE8Ho8N+4k6EoWChDvlBpvJPtbvgTFUpqDQBNU+RqeoZFSqjEdjrj91JZ7FHsU+dFWphUK2mVmLJhWGlERrnFQgQs8UYa6QYVESjSxLGs57MSYmZYREmqcNKoZaFfFKaoQFd94jyp+AaSaIgHEws5B7cMGcWoP46iXOinnfjAjf/OY3OTw8nP9dY5cXRcHdu3fP/DtbcRJUlbt37/K1r32Nz33uc/R6Paqq4vDwkN3dEOFPkmSuu9DcWCPqJiIMh0P29vbmTBANGoXTRsOhgcXjJWGMMClqdgYpKeEQXEvMJqpIGpjTkRmEASWVy0K9n/Ux4t80LXgei5heGmJTg5qgPP3eux/w7O5eNIotiD3ivCDZh73Dx4MavIGeD/X4iYTnU0lFO9uQpawF55VhxmIDF9uWaflQJGFICGFTLkyghBXfXgZetMSbTd4/rPnBf7zD0xuGzcziPaeK9XQRBkjThCqW7XmkdaYUL4b7h2OM1FwZ5mRx1jiTddZJkBgw8NENHCY1bxdBKUW8j38XPpUEIt4Pe0E8ISjx3ge3+eQzu6RaoyJ4s6b95RR4oIdhYjzGQ4kwQFotSRURvvfv7/GD19/l//m//jdSLUFrapu3ds2Hodl7DGHPKYDMN42ybcEwmpYkWUY/TbDMAFmLk60QuD2MoUQYeshRpnbRseejYW/UIRroa+/MDFevlhgviBiccdTeoaQIY2CAU0cxKxjkPZbz9Q+FgJcNCjFgKiw5RmocNSqGXuJRMTgMBj8XRFUCbbYoeN9onYQUoSHsi86HqoJ5Zu8M47GAy20Qa/dQWshiUvDSSeg2Gnvae8+zzz7LeDye/52qYoyhLEvefvvtM/cltJZJePvtt/nxj3/MzZs3+frXv84bb7zBn/3Zn/Frv/Zr1HXNaDRCRJhOp2xsbNDv9+c3qKoMh0M+8YlPHMkWQMhEpMfSbwA4h0mUshY2NgbkmVk0Ba+53GjZEUqShLquF0u15Xr8g4MDdp+40eo1HgeBytIsSdu3cx3FMJ3VWIFUluvsupL0D1DfZgbeUnvhnQ/2ybOcT37yWdI0DWn/jxgSaxcKqC0j1FNbytpjjSe1gqgLJ+ZHAM32l6Yp9Tj2CAgXuPeEEjaVUM73v//UT4B3GNsokXQMhlCqtqJyiluHBT+6+R4/++p/48rAEMyskD3uwsoL5WKCd+30QymhH6OuHf3M0znGZR/WBgouxunm+fzQ1Y0C+wf7vPSJLdCm+TM6FY55lEU12ihZQtDafjQESKwJ3KZe8RYQQ+3DM0vT/pFOwugHhEh/7K9xJxwaTTlvXZWRtOTssDYJCtQdXL6XeDicc1hruXHjxon9ntPplH/+538+cy9oa1Kzn/70p/n93/99nHPUdc3v/u7v8qu/+qu88sorvPnmm9y8eZN33nmHv//7v+f555/nypUrwCKb0DTbHJcTz/N87kgccRQkpDVnMzDWRlowDWrHrN8UbMba0O+1fj3C5nx4eMgLLw9av975ESaoNRYfm3W9amthCk/gKU9sQkK8jPo5NV8X9sKQKJb2aAg1ofBKVRmuX9tkZxjS146PVnRIRJbqyleDaaVMZo5BnpELUa23g3LUJ6DZC5Ikxbml5swLdBJAmdbQ6/cx1pBaiarOHYTEtPyKvIQ7EyVPE155tk9PgHmxZzechAat6SSo4pxHxDxwnncCCmkajfyY2J+bFkuNwgeTMVsbT4IHgwR69Zh+0QUtBHVdkp7HslJPYuJFohaDqlDHxoN+locexqXG5XnxwXyAJ7280CNRFudXhW96VDpxMF7izGjs5sZGPr7eVBXn3LkYjlqbAnmec/XqVa5du8b29jY3btxge3ubfr/Pz/7sz1JVFb/3e7/H9773PX791399zhawbEyfhsZIOHonIQlXFEK/1wvUY9Hb79JGnKYph4eHc82CNrMcAozGI/JuZfwjYoWkWdB+2vOGO84BBe7vj9jZ2cKIEBLI2nBBrR1NNE8wLR3WAiZnWtf4uub69mZkNfrodacJQt7LGY/Hra3t5RJIBQ5mM2Z1zd613Zi2b0oFu40gVBhMmDzPjjK4XJTBZgxqhLv3C7Z3rpLOix6lmzaGhbIuW2tcbg7iZg69d1CxvbPDQCDxocHbS9IZMTEFTJvZdgkGp1fBdrGu0UJdB0dGY5PyfJQigRkPmJYzhklTRhychKrUoEwc32TtoK4reuc4cxOBXmKYHE7ReGGvBuehqDyZMaEcd5nZqBm6FUTcieyQimKspdfrn2uWqcJwY0hRdIuZ7BKPRmM/n2gjL31/eX96FFrLJCxjMBjwB3/wB/MyoRs3bvA7v/M7zGYzsiw7uXzovPAesSGV0u+toRn3HJg7QNJe1NhpqPWfTCYMO/w4Epvg2+nUPQIFRpMxG4M+iQjgQgN1R3i6gXk/TmtzwmZMZodMJve5sn09lMw0eetOudKPhomp9LbQ7Efee8RaRrOCWTFhZzMLz00dTSV/lyGyMENDCUEbJVqR2Wg0ZnNr68i+tm5iudPw2OfNI353o4djjOF7//k2//N/fJqkrjAGHCkOSNVH43z9D6lpfm3ldxNVgZ0nkW4KN6Zps95Z0GIL4DzewEyUpNcLBpNq1D9gQTUUm/5DddL57lBQMkPcU6KajYHKhV6DPEaGkaOtx0AMgp6sHu49TAtCKff5BoSI4Oqa0DF3iY8zVmIhaaTgajh7NYqKDQaDWJO+UGL+0IglSgcHB2xunZ1+bB1IkoQ5RXZLKW8r4Gof1BZbucLjoamxTGOPBmir2X8PHI7GbA03gpOgjqb5qwuGnhINl6X+lYtGpVDWkBghs81V1x/J/DBIElri/D8Kay2zsuLW4ZQkTUJZwFzRvAsz5xGYWzuLfqg5LuzVB+Plgzu32dvbXhjgHZxejd58cMZbzFzGVL9zjsMSBn2wpgZf4AjV6kGEbr0PaO5AGhvKZlrqSajKwGaUdjOtTZaGclcXXsyiJyE62eOJYhOLjRpERkLuQL3G1oOom1DHcudzXNvgSRIzpwJvlo3zYZ5aAXssK7dQOIrj4ISlpkpVViTnqn2K927MY2tXXeK/BlbiJDQ9BsdLiprUR5MWeazojhicwuH4kMFwQOPidyGduwwRQYw5srSbBf44I23utvnKo9wZO67tPdEpCsIGIoGUNBWDU0+lgZ3BtHRo1sDBeMxGbmL6bN3Ngz6wT8QlaLUmtYKKpWppyhYKk4lno5dFDuxwFHaj4OrsqFF6HiZazzcw53lMdpZm3URETZHKK//r3TG337/Dy594ZkFpbAyIx1A9zq20AjnyVVP6A/0EpqVb3ONFOTkqoIbbt26xs0EsizjSatkZWMBbGGpCZQLtMHCk3PtDQZf2cK1RX+DUc2tccf1qn9zGtW4SrK4ohX/qWCWUPMViy8QrqU0IBVgXv/l4lHFZYUUY5M1pFBq4zRqO52AEhyh8FhOpImArTznXVQoOnBOLE8t0VrGRBupqLCQGch9ofusEJJ5ftVOsPcq29qhbrDEkWqJOgJQ0VjKWWAZ5Yxstduvwj5lTV6vXE7WGSlVmVUm/3ztXaZsAWzZl6pTaEJjcxM8bui/x8cLKai2OOwLz0goe0zlYXAEP7I8OGAxN3OxqRLvlKMwpqpoNWeYVzo8V2FIIh5AqaE2NclA4Nofb9C5o7BcGATFBHSIzFodSxMCebclJKICp82ykGlPGOUhGwzWyaggej6GOJLmpL+kZoTYpRQvlVwrMvKcspmz3g5iRSkiRG+2I7OkZUaIMnLIvNZYw5WsfHIXHcRI0OgmqCq4C5yhUeHs/4bnrWzx7ZUBGeG5qMhBHwvmbAttGMAgkWEIYRMOcH1rHrDZxr9HoJDz+elNNcM4g0eiba5BIl3begATBJ8JVnzA2Qtostcc1gLRRVlbQCkOBF897M3hyo8KIUpocpEeikKsiYtZS7igqce/xiNakXslsypR2sqoeYVQ5jHo2UhtDWQlogllDfMIAxgbDu6cgNuwhvRomVlAjcf4qtSRUkjAbT3iin5CKQK4kidLzirNK0QNLjQOKsiJPEywaabblke37FZZcCyoHKj0yB94LU03YyBaufuiVkPgn/DMPcZ2gBVURxGXTtNF80DMZGQJcMxmHTigs9FBEHGK71mp/iVWgOwXZjwn1Qfzj8OA+w2zJa16XTsJDYKzBqWCacMYFYV7BJCFSdO/+Adtbm518yccpYRtWB2mJ/aJyYG2KdKgH4QhEMDZs+m2V0Tjn2N8/4Nre7oKXR4606X0koCiYkxuzHgeiSzuFAYxQq+dgdMje1SvzZ9ZE9OKHLnQMbcMYsyhtu6B9UQ1MC8dwsElqYnwzRtZ9t7bexfsTwV/wMlvOzjWh6vdu3WFve4tsmWZYFv/pxONZZgtrK0hTlnityDN79L478QAACbX7RXH0/pvXdnh4yObmsTJmWTAQNXLVk+mEwWBwrtsSYNDvU5TlgjRVFV87suTRdQBploKkuGMOl/eeopiRZ9m5x2OMUF2WG12Cj9oJ9zAYQ+kgS4OIWkzEcTGxsouFMeaBBf24mJt6IigWh3BwMGK40V9LSvcsaErQztNp/2FRVpCkeac1AcQEw8K35CQUznH33h12NnMszRoxfFT4/o9AaI8pZSm6XKMcjA+5MtyYuwSLGRRK1j4yiM/sooO3CkyLio3BBom1i8ycdKPf5ySIhMzTxR0Ofok2M6ypSoU7+yOe2t3GqIRSp6YVQhpHc/1QODfjyXlR1TXe1STSEMCydGitH4qQ5z3K8qhhHAuPGI3HDzgJxhjq2oRm59hUPJ1O6ffPxxQiQL/XoyxLXGyIUBRXO5JHiEooSpKkMZt39O+89xRlSZadvw/EiFlJz9cluo+OLNHHhxe4c3fG5kYfg2IixWXXYK0N0bxmaBe4KUsM34VUMtwfHbK1udmehO9joCk3s9YeYWBpq5GvKB1ZmneTpxsAjc2D2trmPC6EvDcgMQvFaVC62dp+OgwG8ZDnvdBo2ApChXmtyu2D+2zmC32Npia4U1bOGaGqsUTr4ppmPTApZuR5Tmoif3yTSbiQK1wcmjtOswznzMWdEEd+UXAeCyccFo6tzNA30FDhx9ZpOhFGV0XU0+vlrTkJtYdSMvr9GJxYukQXjibnwrvp5TnFCZoCFhiNRmxtHjW20yTsCM0jE2A8HjMYDM417y2QiFDWdXAiDTjvcWXJID+9WFiJ1cVRYfckCIF2/TxvVYEsy5hMJuf4qUv8V8VH64R7CGqF/cMRu1evxKM7qKJ0qyMhIKR2L/Z3CnHzFWi4/2vn2Rx2lKs8oklzt43xaER/0O8mTzcAsXxGJIjKXTBU4b07NVeuXFkSAfJdJKA5GwyImAeiZ4+LRRmEUqvn3kwYbG6QwNxJmGdg5t/96EBixFMeu1N3AQUOo0Fhm/j4ciNvhzAP9ovgLzKdK0cbYhTD/tgx2Nojl4RkqZRt/rF5WmGdCM6KMe1ldMvKMykg7/UXvfIdmh9x22WwsXGqYTwejen1j462YWb03s9fbjEr6PXyc5f39NKcqipxgDeht8VXNal5iF4UgW61OdOOn6Mav3fe7HlTjldV3SNluMTq0VWL6fwQuHX7Nk9cv45tzGQ9hRpszTDLxs1F8nXHm/XAuISq8qFEosNvuVGgbrvc6N69+ww3NkhsR406ESQKy7WRSVBVbt2+x+61a4RWwkg7S/eivY/CcpnGhfmXeuxLY8BYbu8f8sQzTy/CDV3bTM4JY20r73s6mzLIc8yxGqOuzi0hqNFeGJbnjwgqwq07d8k3toLzrz4Grny3SmBjQsOY9qiX67pmVhbkWSBMaByFBY3neiExsLa9vcX9/fsnfmY8HkXa6AWSSOsenISwJ02nEwb98zkJaOyHqEpcY7P4UG5kz3B4B4XdE5wEVZyreUTF0omwSXIiY9IlPn7osPl4PtTA7Xt32dvcCOl0FI3d/+uO1RyHCBceAQ3QOafC3XtTtjY36aXdy6Qsw5hoFF/IAXXMKdTgfDiF8XRGv+fihtlN09gYAfWP5STo8jNQBXUoUHrl/fffZ/dKHxsdkg6ZKueCoHiBVAx1k+oXuSB/O5hwHqECbt+5w7WdzUVu/5ij8FF6gkHRW7jofkQFnPMMBglWJNbcL1q7u4XwDq01QWEXuIiUim+Y+ggq7jXCnXv3eWK3IE3DdRvS6/XvyM31F/cdehL0MRyF8FwXO2vIVIIyLUuKqmJnexvjwyea68gaHsUio7P4yqAMegmTSXHk+06DI+O8X8oZhntNkwTnXHQ2DQ5lVhTkWXONBcXBQ8ej0EtgXDW/PfRSll7IH0n/pMGgR+M4lgIoCt47Ers8nkejKTdq+izWPVsvsV50bw//kHhf4XA044VhSt8rHkslkZKvQ7N8wSIBXi/SUPUgNbUYKgy3br7NjStBOMx19C03tblVVQWRPXiszIriqAjUb3gFN8X7gtulx9k+gyQNNeW+IpCidiuql1hBqR5DxCaQeFaE28cVUI5w6nlrWjPsJ2z1IIadaO68K/d/VuTUjFO46g3TKDiUGUvSMOt8CKgYvBiMLzC+ZkrGO2XCvXfv8bm9JDajxrqEB4lqOo2GYtoai7EW5+Lec0Ev3gHToiBPgkGixoMxGDy9rs0urbBaMxwOmDlHrUogRn08JeDC2KD94kPJyN1aqGvH8yipDVkpsKSYeDWOd8GvDqaMF87CIExFmoGrBP2w5U9aolpQoBSAUkM9wuM5rCvG1ZStnsF4B1LgTVCIydaQSjCEDLsXixpAC3quJPHC1PUoMMGJUQcChw4GvSGLduSQFdrs5biyoqgdXnqMEJwXel6jNlGgOrBRwejU8RjYZMKPeJIBhlRrnFju5Lvs6r2H/KTHaEkvsXgRSufRpYLIMWA8DGOzOBL2sUd14qTq6WUpsyJoqtShthPziPu4xH9NdNR8PD/ujB27e3sXWr3TFsQYvHcXpA+xBA2czF7h7t277F7ditHD7qJpJI7tFI+FB35eQybpcPz/s/dmP5Jd17nnb+29z4kpp8qskWSRokiJIiXRdl9L90q+7evrRjfcvkAbDTdsvdkPDT/5j3A/+MX/gB/81gYEA34zDLgNN2D0NWy3LbV5bQ2USA0UZ1ZlVQ4xn3P2Xv2w94mIzKrKuaoigvkJyUplZESes88e1vCtb42wxtDIHAIpjTotHJyX8Yn2p54rq3LgXlTA5gQR3n1vm888d3PGLpm/+z8N6mt+LPUsEpsdvvXWJ7zw3E3a89kk9kwwEuuh5JCzcx54oKhKMhMineRiPvax4XHMnfiZdZ5A2L7Xx7kWndNST5400hlkDBdC+zxQjm0tlQqjStloN2JPCiPMoyy5GIO1HBTRSCiLSOk5fMVRgGSafYlBLnDu9Lkil2VUPomtaBIgCXIiemyW5Q8tXo60pcCpBf1EyPOcsrisSbjEEjkJ29s9trYWw0mwqUjsQs335CAoMCoUMY6Vjkst3ecP9SZqU8ftAxSZc3xqndIHQCxBLPvDMc3M0cwcRkFsHRmWedEYSSojUWnkPBmmA617jAUVvMKdnT2eux6LlkUkVeuZ+bn/MyJcuNh9zCh44J2f/oSXX3xuLjuWnxWRVnKx8pvDQrF5myzLorxlWoBzSepL7XUvuvan3mNVYuVBt9ej2WzSzBsX9jceJ6KTcI7C5dQYrqb3CgrGMqqU+3sjrq2vJNUrSeQeMylwf+pINQVxu5QpFThKB1H5RL85tGaMtQeM80AqJDYQwilvLM3JEDlCMRFegXXHS6BmmQMeVMULIV6bPeVSF4Qsy2KG/3RvvcQSYimcBFXl7t1tNjY24g/mXN/XOTdVDrioYjERVKKxPRoH8ryJMynLrK17AAAgAElEQVStPacddWt1hromIaies5B7xkAWJgfXfn9Iw8FKZuOGaaa9AebGSE7Gi6YmV7MRqtPhEGHeWAZe2BsU3FzPcDKrzjP9bpGgKCpCp9N5DNGumFTvjcFax2pDcRdKC3x6mJX/vZAKoDQ/97pDXLNDM88J1VS2Jpbpziecu1gBg7jPxgBFoTAsA61WFqlG84xkCFsDvqrOkUmYVqDUuWFVwyAoe8OSrZV8ss/oLHFlTqxQUY3npbFUdYlc2pNHwyr2Pjh0UDgHIVQEVULwsWFnXQBwinOsboRc9wzCmEmvHHNM808h1peFEPAhzIbIUi+msw1wq2kZjobzcTZe4qliznewo1EbUiJCt9vl6tXmpLHJPMM5myIN56OWHEatn7G3t8fqSoeGsyl6M59OAoAkVY2LeWI68108tIpg2B97ciO0bWpoFKAWs5y3xLeIOXfxYP0dIgRxFAr9omLNCZnWUeToJNSK/4sGIep/l9VFOgkCYvFAfxw/P7NgZH7Xz2kgqWA9XNh6i+gPB2TNHOcyjEzVjZT5UK85jGj/CUVRXJiiTxKhBCTRrzxGAs7Mowj3IaSifz2XMzwNt8Twi4IYyhDY64/Z6jTjz8WgWBQzNw5CDSt1ll8PmBBFWdJoPJgRij53rO2KkqFTWtJpTJCa9DkJHopMahZP0tfHpGc3K52tCsVYyM+YycoyucwkXAJYYCdh1kEYDAaUZUEzS0mEedb8ZJqmvEikTC4B2L5/j7W11djsRecznlcfKTXn0jMtsDzv585iXHrErbC62sZRETujypHveVoQiOowKYUtck5ZQrGIEbZ3C65cvYmlwlJNVJ9m/+6iYcIrv+DW5ZoIW/f3Bly/fh0nIPrYOrY9cRgx+KpKVsz5nnykRwR6gwFZDtkkKMFEBGoejQxl2mH4ohDnSMxwjQooQ04zz3g8grMXiLomATjf05qdTwF8QDGUAUaF50ozn47ROf/SY4HEdW+MpSzjdU4yQ0VBlj2cdBj7jggihrKEzGWnX1WpjqfRaDAcDtMPU8fl7IiMl0YFqdpJOHxWDEeBldWVU4+1Ujdc1Pl7Tpd44phva/oI1IZeCIHt7Xtcu3YVYwwXnEV+LKhTiBe9AIPGFONwXHJlzeKs4Kvigv/KxUFJNWwoPlyEsTo9kGOfIkN/OCKIodVqTl6vi9OmMfc52AprScBkeJ3dOUgChDJhEvDjn7zDCy/egtSFXB84qOfckDmEA30SLpQKFA2dALz19o+4cmUzRj8fcw+PJ4mLbl6oqpRViaA4CxNNWuZmZT0UWZaTZdljSTp3e0MUQ6fTvvgPfwyY7AcXMM+n9Qigavh4V9m8ei1m4w6pqkXMx95TFx0bY6K63ExdTVEUmEc1GxCZ9GqpqkgZOuuUamQZ42J6XlchcGyTA62zHodXm1KMC1qt9tnX4EOcBL38Wqivi8ACmNQzCFAZJVCQqSCa0TfCG8OMX1iruIYiVgCb/sdchkk33Zjh0LMX1unYjAyPJeprn/WCBcXi6VWOsVvBGkeDgMnieMwTQpKKQ0tWR3DPVziUXeBaVYA7W6nokBZNhUbYR8XRN222x0Na1T5rrgkyTb3KQ757oggOm2QnRGOzJYhnQimWkRiaRHHGxGIgpIrQR4k1BgwFTZqhBK0oTYN9MXR7Xb6YV5P7f3CWLVasQEJBTougQqEpVjs5KM+4ftRDKCklpxJD1d/j9palVMHa9pytoLND3JAQDAQHVCBjIIeQHzkNeiiCp40iHjRYKoSdwqNl4LqL4z5uCi7tRTkVce9pPoE7OzlqiuFgMLg4/y8oQXJ6HobDPdbcgCsrm3ijc0dpRCO1RohcfKJiLZl1lISY1UUj312n7znyeFKDUU3UPKGSNl1V9ve73FrLyaQ5sTYmfcoFyJ/83uNTfsepIt6AaTMCoCJzA3aqDZ7zJWoKjGbcWWnyfPfBYFtU8lLqGuV9E2+pqWMMUEmOIjhKjtK77QLNUPLz7gN+Wt7mRQIlgc7wYyp59QgjLdJGRcBZS1CD4ggKRYB7Vc5tN6BDgSKUUVYAR0GUv304jHoQizZWGJdgrVLi+MgLo1CSXZj5eYnHjSZpTlpLy1kykq2o/sR70mI5CbPQSAzwCHv7XVZubxzILpyEy/e0kGUZg/6Qi65pU4ThKJC5JvmB9OhcHVEHYJ3FWIPq+a9SgEk7z1TEXZUlop5GvhgaNUYiZ3zCLz3lfjxbuB0EvMJoNGJ9ZTHu/0RIk8VeMG1PxCLG0B8Gms0m7Tw5aHNn5Z0d1pzN3YmHy+wweCTL2NntE0RZ7XQODdO0MH4eYS568/UeyWNmoigVa4TcWgyLIyNpjMFXkYIl1G3hTjPxBdSAmWYmdu7f4YXXX3ss13shkLjAjUSqZ6uRMy5KNMm0CnH/bOYPkbKV1Kk6xC1pOIyUISPToM+JLgFABJtlVJVHySm9kp/kzJLo8KEa6xzr7VBiY7fWauuodz/yQwVhrdVgNFJ01XJ/Z59v/+BjBuM+mY7P8JmXeBrIcFgDL9y6wSsv3z7Tlry4TgJxHVYhdvtstVpR7svauXYQIMqp3dseYri4lBBEdaP9/X0amaWZZTFKhEHl7CnQxw2x8cD2/vyijLXCSPzO4hUqNbSaGbmb7zkBTNWewrQI7TSCT8Js48DYwmdYgLVCc/5v/5QQrLUXR51JHH0P7O4PsdYhCLklelqn1RGcU9iJbCOYU3SZzBFEbdx0BbwVhsDOaAhWWG23Jk7CwRLW+Ry3C507ADbS1LxXihIazkU36RTr92lCIHWh9kz6QuspMnMz0YmQKHtFBeWoz1rncVzx+TDZDifZWchEWG02KBWiRKtFiRmnZnPzgQJ0AYyxhBBvvt/3rLZaietx8qhX/DXFOceo8qCG4bik2Wge8xFRNrsuoK6ns0j0fYbDIZ2Vq/E5nmISBhWswEYnZzgoGLZzPry7x1pL+Y9f/Xmy+WCIXeIECEEQUawqzkyn5GnszsV1ElKh0WgUIwFRx3gx4JzD+8dRDCkM+j1ym9HMDJGDHhWP5pEuocSahAnzUTnXiRqNlLghqliGhWdUKFc7nTk1VR7EpFi5jpCf8sKNACqRKwvcudfj6tbWsti4BxDX0QUVn2qkwanC3t4+169fj3QwBSNnpzHNG7IsoyhKjqIbPAwSiPMKAwa8CGNgpNG4bCTlMJKYRFyNdRpmjpDWlTmXithDYOM+W1YVRVmytt6May5cQIr0CcGa5Dil6X7qsI0yEc/wEAt5teIssezHifquJlx+9VgsuUDbWu71RyhrqNhI0ykrGmtZchIOElWjKpQSNNDv93hmfSW+eIq5VZ9bNssZDTweQ+U9rTyLQZ+jHsMkmHRQMltRRsMhee6A8lROi0/9c9acUoyG7IyVu72CF565zroVnL2kGy0KYhVi7Cc/uxPrKeysxXUSiAbm/n6X1dU1rLXY44p85gRZ5qiq6lRR4uOgEJUkxgUrK4aGk5hJkPl1EiT9J3afPv9hOi0yNXgMg9GAbrfP524+O2+myoOQQ/8mx0mEE7v9MZMQfzkkLfK3f/wOn//MbewihDNPiiTZ6JyjKgYX9JmGoIoK3N+5z+3nn8cZA0ERE53thUcas2I8xsgpw7t1k3IjVAIjYFhU9PpjtrKMvO7sPunwPptXmD9MouYX5CgocYhGRYmvPGura2k9ynlKZZ4cJHb9rbMrSnL2Tjo86R6DQAUMK3jrh2+xud6hNWdL50AGXyBohajQMIa2s7wz7BNkIzk9wmg8YnXFEbQCmVKABLBSzyPodnus3b4+WScnhQWMBrK8yaAo8KqMxiXtdiPlZI4YwLTerDF4r/ig2BQRqrzHWknUsZMjSPyLa7kyHg/YGzvu90t+YX2VfNrh4hILgHo3njUvIlHfnHhOzNnyPSUU7t7dZmuzSZbNoxn8cDQaluHwYhuVKDAqPZicTrORDOapbvc8QzVJ19Zp2jMiBnyjsxGAceWpfKDVyE+5TT49GDlPI7WD6cQS6A1GbGw0F3yhPxzW2gtTN1KiQVB4GAxGrLQiT9kZORW/eN5hrT3bMkv2vk9G4Ghc8N++8yY2wO0b1zBoXHqz1tc8FnOkBlnWyYVmc2s1kXExZjTqs7rSmDhN8zYEByEpKx9r+aqqOkMtAtQjUDtL//D/voG1llc/9/Jc7j3TeaogAZGAA9qZZVR6lNiRHqDX69Nsxb35MJrNBsPREBT29/dpt2sn4uTjFxMaSqvdYjAu8arc39lhbbXD0epP02eXZTmVD5NOz1UFzpqoOHbKs88THZcrbceg32eogjeOToNEYZbLrwX5MskdkPR1FixuJiEVLo/HI1ZcOI3j/tThHBRlgaIEvbhDZDAcE7zSbDSYHluLYR57n7ayc/GEUwWZmFiwWwrN3JE7WIxwHohEiUoNZ3xq6bGrwGAMzmV0cjOXB/WZkVJwFynnqURmSH9QYLMGWaphEQnnnJPzBWsNqhUhnLLMwsQ55YnSjO9++BF4z+svP8tGniWvI9UDzSy1eVx1gagidpF9EipiHdG4DGSZIbOSKFoX9iceEzSdpdGfqequy2d8aLWT8Mmdbf7DV75EJ8/mb+85oAmhSZJcEQ2IiX0dggpGDMMxNBrN2Ijw0MMMQKPVYtTdJ6in3+/ROkPvMgFEA82GYTQu8UHZ3d3hhc+9yEnbEbosgzA97YejIrErOHWNBIAGpZU7it0RHsFbhxGfFBgXJyD7ace0x090KGucRnPtsazf2UhoVcWLLMvygde893jvT3zQj0z0arIAlcn4qDKUtsEtaxfK27lu4e1sg3YJVvbZDRbKAmXAWXuhVsBuMabhPGvNKL2GaQAFTYbHvf2JQgBroGFBHFwxOT0nkbt6ngJjKUAd+JxKlWFZ4mxBLoa5M5OlIKBUQCUAsbi8ZRTJHJUxWA+EgJqKUgJGBeOPmh8KUoEJqEBvqIQQN/RFWh/HIu0f1toLa6Zm8CAld3sFbm2LPMtoUIKOjtcqXyBsiKE32KfIBG8zHBkZAcwx4ygVAaUExgp3twd84fnb3Gw42hJAUuS1DmLVb3ucN3MmeDIfWNWSd/M18mGfHpaS/rFDcBQyAkUQ7o0bNFc2aOBxMgI7n434PPHM8GJBDBKU1UzxtkOpJrHLUnWBKCE5iY+EKl6VLvD+Xsl6Z4N15whFmD8/Kc3RSMTJiPU5GRiDdRmuuYbqkNz32BmU3Ghcp++E3I+J/dgdBksLuNEyjPs99oLiXTsKBXtL3c0+wnHUSsiqAZVts2nG7FcVlQg9u8pL0gX/6L1HxeCBtWqPTrPFB1WHIhhEh+x5S14NEYRSYoO3TEssSsnRqkmtMIQQ2G89y92qja8864xwkiHi5iA+fvl10i/Epa84J+t5KJw8gvFYLKe6GVRZlvT7fd58803u379PURQTmdKdnR3eeecddnd3J05DURzd+Gui7kX0hIaFx1pHY8EOcWugJNUMoHX7K84TdhJgPBqhBFrNOnoT43jn1w16PJhsocZS+Smn+eyoi32jQlC312VtbXVO7/7hz1qIDcIugiu9t7fPjRs3yK0FnXfS2SmQ5kjdeO6CPhSjQre7T6vVwk2aIgmLzsqcRWYtla+ONvgegXqHCqp0u12uXduay0zBcRDAGqESg2jdWPB8603U4IOnPxjSabUXbO4IIpL49WfsaqlJaQfYvreDcxkotBqP6uoyL5iYU0CUNLXGUQWLGMfefpdrG+upmHf2eUYmQ6OZMyxK+l5pJwnc2sY58YwSQyWGZrPJqKgYVRAkJ89yjtdJF0QCrWZOGQJV0mO9t99jfaWV7u7wEzj6iQgaZcnF4jEUY0unPV+9Ti7x5PBYAozWWoqi4Lvf/S5//Md/zMbGBvfv3+drX/sav/M7v8Pbb7/Nn/3Zn3Hv3j3G4zG///u/z5e+9CXyPD/SOIrLJUWtgP6gT5Zlh3oCzD9s7dBdoN3mFfqlx1LGCP3Ma/rI9lvzgdjl8oI+LHqQVFXFzs4Or3zmtbm+94ch+Bkn4VTOgsSIQXII3n/vfW698AKZMcS44ZIgHcLGyIVSRlSEXr/PxrUWuZUYbYme64X9jaeNzGWJd3561A5BCMre7k6Uh11AqF68BKqKoaw83f1dXnv+pTR3Ev1qQWBs7DZ8ttluJrHJ3b09nn32GVxSXQhUcEz0el5gRchRRqWw2mhQjHdpuSaNtA9MqzUi17vVaNAdjtnpKytNF0V/Dz93rW2WR4ysWLwavBgGozFFBWIdlYsZgEcZaUr6SBU6LWE02KescnzuuL+/y83N9elflIPO0HEQgZUVx2g4ptdXbqyunfi9l1guPDa6kTGGv/mbv+G3f/u3+cM//EP+4A/+gL//+7/nrbfe4lvf+ha3b9/mj/7oj/jN3/xNvvnNb07oSLOfcfgrnklxoVbA9v37tFuGlVa+UMf4RLHmAvOwRRkYVo5OZzVuVFrHxwQ/5xzCzDmq6vzGXkAngaHKB4phn7Vm5GoeWf81ZwipT8JZpkfUnoja3ePRkLW2Tz718mUSjIHqgopPlVi07EOg6TQ1KIJIRJrv9XMauMxQlWdzEmrs9jxra9EAEdWz1888RUTlnou77iqAD57RcJ/1FZMKY4Uwx70iJkiXZyQ63ZOpf0oEjcGq9957j6tb61Ee1OtCUR0zUZpSMqqUAke32+NKx6b9wEWZ5JkRcg7GHvYKZS3TRCwKh4734w4fm2oeYGNthUFvFzEG49yxUycQ53EzD6iWVBooguOT3QHX15s4aiMv0gEFOZHRpwqrLRgOBwwHA9qd9gnedYl5QR1knLWfZ38up2BsPJb1KxIbHX3jG99ga2uLLMvY2dmh3W4zHo/pdru88MILdDodXn/9df70T/+U/f19ms1pSms0GnH//n0ajWklkIpgfIFkOVV7nVGltBqLp2MeGxmZc1JrIjTpko+LkqJS1q6vx9265pISU4bzvFE3Wy2GwyGq7XM9xgrFiUKA/a6n026nhkZ10daczxGNncLrA2NKvzrZka2A10gv6w4KOqvrNLIsPnv1c3/7p4EIZJlOOsSeF4rQ7RfkeZOVZgOXVE+I3y0FBMiySOs8dXRIo6qjAvd39rh6dWuiCLVo6rr11uvDBTrOJmNQjGlaSw6Y1Pk9MLOW5xFBQQNqLcZagi+pm6mdCqkvSxFiOGJ9TRCNWXNdoAiNM0pLSkZlxVBhPB7RMR4HqM1mBEkDkmQkGyvr7I0Mq1kgRyF41LgDv3tkCX96yVBxfb3Fez96k42N1xCNcqRHIQCIYI1gRRmXnrJt+HhvzK31Fnn9V2Ua6DjJ2g8hikOIMWzf26b9+WsL9Rw/rZh1Cvb39x+aaR+PxxO78SR4LLZj7a08//zziAg//OEP+fM//3O++tWvcuPGDYwxE4eg0WhQliWDwWDSSEpE2N/f5wc/+AF3796d+WCPFiPytU3az74Cts1Kp5mKMBYn2mdMchL8xZkfw/GYcVmwutKK46Ge2aZa8wznHOMLKHATotY9oty/v8fKysoMN3gRIBPn8axBzpg0UXr9PpnLsKnzK8EvEvPhWCixnvgide57gxGZy2jleTz+k4pSLFVcDpySLX34jQhw9+5dnrl5Y76N32NgIGZULmj+VKp8cmefa1e3Yqw5BSbm/mRKdBUhnkmhPPs+LAL3dvtcvXEr7mMAeBZDXy/CWaFtKvaHQxrjNpVX1ptRCSyoENteCKIhBeEga6/y5k+3+c/PruCUiWTytIbymPuXRAgOY7782Q2yH4+5fqsDwSNH1FtOshUikSZlLcNRQa+R412DtovzUGaoRiddryZFBDY3N3nnpz/GuVensrGLuug/BZg1/t9++216vd4Dr3nv6Xa7J977HuvZF0Lgn//5n/nLv/xLvvjFL/Lrv/7rlGVJCIGyLCceT5ZlZKmRSy1r2Ol0uHXrFteuXZt8nsGjoYK8zX0VqmBpNZtIqNU1FmP2isQNWS8gClo7VmVZEURxLqXRU48EZf6dBGst3o/PJb0H6UAWIQRlf2+frRduLpAhEx06ay0iqXiZM1x7OsT6/T6dThPn3NkNwzlGdBL0Qnnl/cEAYw155oiuQZhIOi4LjFFCOAOVLU1GH6Df77O+sZ5+rpHUuBiLDEgsI5kq710EqhC17V/+3MvJKIxx5PmfOzLZZJy1VKkx2Fn2HU/MMnXanegkTKQ3538UajTzjLW2487+PoNg2bp+nVbeiP3DZXYXjZKpRhSTNXjv43d58d+/hvqUsZUZ1+A441o9TkC04LM3Nri59kX2WjniC4zaEzwMxajSajQZFxXvf7LDtWduYaQiusP2wCUc7hz9kI9LQmXC1uY63/tulyw7+i2XmA8YM+0k/+yzzzIejw+8rqoURcGPfvSjE3/mY3USvv3tb/MXf/EX/Mqv/Aq//Mu/TLPZZH9/n0ajwe7uLlVV8e6773LlyhU2NjYOZBJWVla4ffs2zzzzzPQDQ4mKZYTQ/+geDe2x0tjAi2JkceZwAXwmdPkos2zQYVV8TC+QH/1GTeoiAkZBwggURqbJfW9pm7jZgJ1szEKVxDXnK56lSIxgCXQaGR/d3aFSRcWd+TlmXvHWsKPKO3fu8+9+8RXaxA1v3ghpKjlCLJITDag4FEOuFVoJpaZnqAFRiwoEUYx5dGxSVHGUjCXn496YlZUmWy5Szbxtz9kMODtUKhoecrHcc22kLBlnilODIT/iMC6INLwcj53QASxKqcreeEzLZaxbQYIAeezsPHez5+zYcPCu36IZ+hSSAxUtQKV59B1qhYqhF4S9gWetlZEriJjFGp1gCQiFwM1ql2H+CmsqiHTw4rGPWiWJwRn7RShRiVixxCZyO8Bev8fVdoM8KEicNfM4OkGi+l3dZCnuuUKbMR+ZJhWC8SWISTKbQv3fRxffxl1psD/i6rWrsWhZfDKWG3M2Ao+GGsGur/DRux/i7tznl37uC7Rzh40JamwynpEGqkJT4bXVkmuvb3C1k8XnLQ0k7kQxeSv50QFM48hEELPCdYSsuck6gpjs6LehNACkTUMctzqWnf0BP33/Y/67r/+7VDgf3YJTjb9poAhNgefXLbda0NJTf8olnhJEolrZs88++9DXe73eARr/cXhsNQl7e3v8yZ/8CXfu3GE0GvEP//AP5HnON77xDV555RX+6q/+iu3tbb7//e/za7/2a7RareN5Uj6gWUYVYDQaYnVMu2lBFku5RYE1KnpiWMWQUaVN5Hgz7kBBlFYglrEP3NkdcnVjFVtLHoihzg/Or7ZR3HZyZ6mqMpXWnv1ajUCFsF8oRVA6mUnc8vN97uOAJtdNagHGVFSWiYImupHoJOwZfyswzfk+/FNFAyOFgTdcbQgNifFML8tCmAFQrCajBAMhRErQsSHQeizl4DoiUAUoMKxbQyZEJ0Hqkr/5M/TOiqYVuqGBDSXBZqjWhtwxSNSZ3R4Y16CdT2sU9AIbQj52qJk0hVuVijK5BYojyBGZXZn+qyJJEqL+AYxUKcsx7by2zVKDrsd7N2eCpq4x9VPXREfJjVJoijPXmehEVzWTFXP0HQ0HI263baSrTLotPNL1mjsIcG1zjS9//kVyEa6ud2L8Tuu8UO0oWVQDooHP3drkc7cgMwdpPZN7lmN4npJOaMloAkgew4XHvC/+DQNisQi3r67yvX/7Ds/cus2Lq0fl0I+ZlWLxITpEz241+J9/9es0DYm+fPRbL7F8eGyWQ5Zl/N7v/R6DwQDnHKPRiE6nw9bWFs8++yxbW1u88847fP3rX+dLX/pSVC+y9mieVJqgXmEwCoh6nAhuwXzcmI0Uyur0a+7A0pdoIJVBGZfKertWIEib+eSwmm8y+oXJEaqhAva7wnPP1FQjndOj+kEoTDioZ+VKK4beoEKkQbuRxwLKc9K45hEagNSL5cSQPBFB4mDELEL8sMGwJISMzpKreBxQ9ZED/IljYBkH4cc/eZcvvfaFSI8gRH72Is2tmYCBc46iAJppPh23Tdop5UQQLNOuyrv7gXa7HXtBLg67ZgIldu311SAWLp/yoSpQKngNNG0yLKKPsFB7jwE2rKFz4yoWaDqJzoE8KGlb113UYhNPHtNAhgWutjP+1//x67jMYs5x5NdxRgO0M8sLtzaxl/7BpxaPzUloNpt85StfAWJn5doBqBfWF7/4RV599dVJauREeucudhgsihKvwtWtrbhkF9AIMsYQvOdcNCABFUupgeFoyEbzKrmQiuY0LXQz92x0Y45xDk8K26QCPvroIzbX1yIT8ziN6jnDpBHPWYZDDIGMwWhAnjk6jXwihbtsqJf8aZzLwMH6HJn5rt8fEoKyurp6cRc5j0iUztNOMMWhRrhz5w6vf/H2ZG0JJkWiFw/OWupj5yT7TyVTTyKxjSb46KNPuH79RrTbFnE4FKyZCdbEwqgTv70CPrjbZW19k3aep1MtsCj9EWoYoFFBA1AJSNDI7X2E51ezH+p6yiePej4qVpS1HNQXkRpmj6EvH/WpyRmOdKkLudBLLCge26yeSDmKxOJJkQcW0awHbk/YNdmHwLgsKIqC1ZXYTfdIBsYcIgDtdpuiKE5pvs0I/gvgPTjLSJWiDLTFxE0N0kk1c6DNMfLc0e/3z2gZT+GJG9ve7i6bGyvJPTqsWT2/UAWXCo9UTx+OVMCL0O8PEAKtPKPuj7AI939SKIqx6RAz097ix2G2XUa9OnyAEsewivKgeb48kqePgohEaahToELY2S9xWc5qzsQIXNSxUsA6i7VJktoevUvWJQl1XrLefiuBMfDBBx/wwgu34fT+11NHfWQcaE4Ywom8ndqpUFXu7txHrUGsje64BtD5zmI/AE2ERKNRKtfUP677IxxEbb88HQfhMP04ZjzEwnmKxevPs8Qoct1rYVHO0UtcLBZqBXtVxBjKsqIqC1qNPDIEF2z2GuLmUvnTd7ec/n4AF5u7BIWyqvc4RVwAACAASURBVGhKVPeZkq+iVrWZ87ERkyTXzokSGCrs7Ozw3M12krFcrCZiYs5ON1JgrNAdjbFUNDODaFTpWTYIsfmTMwZO2CXWEA88mwpOAUoDvQD7pWCt4E4iJrLAMJzNoPHAG995i89//rNYkZm1NeebyyMggLOOqjpZ5F8Al1qjWeKtBwsDhX0U7yvyPNK2n5K9eGZIyn5Ya/EhnOqRhhC7w5fAKARa7ZymM8lBUFQXbPcRUKPRtzF1KMEiE3N5/jBLP1YcKhl6jhq0OoMQHb0StExF7ou62i9xHizUdlZpLFAsvUdDSbOZlHAWsOOnMbHz6ekw9YbqOy5S0aZYR25SQdqMqgHMf6bFSByP85rz3VHF2z/+EOOyqP50hmj800QtjSukaOQpHYWgyp37fe7eH9BuZThTN/FZLsxWIFljwHtOIuppUAwB0QrU44GxKu9t93l/u0+72eQCfNW5h0ljdhrs9Mbs90fcvNGcGhALObdm5o6zlGUZSzNOsFVYpswTMeAF9ouS/+/td1lbWyOzSWtgsbadCVyWpUzCyWsS6qZNveGY7qggzz3WMHES4i89tku+cChQGYMXg8cQkg4UapA5zIrUTylKnRu8WLxYqnM4CZOVrbWTUIEuTkb+EheL+XSNH4FMIvdxRPQLGiYuDbX2KRUOnQ11KXFZlgeEd+oF+Mg7STzBiQim91hjqbzQzLJ0gh2qFJvbYVGQWJMhkrLbwLE1Gh4Km9iuqlgf1Tm6Bv75zZ9Res+//4XP06zDHuoQTYMwR2NxQAcjKRtZoCEh9hEJSrzsgJ6wo/iwCLz1QZfrKw1eur6G1UCQDBGD0QqWROFINCOYmBHY0IKBa5Jho3N8xFjFV+qJFs3csvS89ZMP2Ny6wss3NmOH0pimoI6hzK862OkxJrDFDiN5EYdBJIOUfdSJ7lM0OioErzAO8P13P+HGs7fopI7CcW1lkfsMc7W2joQokuLCTZsxKgsKaUUH4Ji3xndGGk5I9JN3P7zH3Xv7/NJrL7MGsaDb1Gs6apjN29BMK7RiCkE0rqWm8YxLpQLUCKIejdwVIJ69gmK1ApQgOdvjwH/9t23Wb14nkHHFGpq+RMRSWYmF3vM2AMdADn1NfrgAFvJFDPXkiYthUlMiZrEiype4MCyU1WAIqMKosuSNJi5FBoM5u7b+04AAVgzBHww5nWQPOshBhEwMWirOCGp0YgA98AfnErEQ8GAk75ityIO3kVpkQ8CWQsiEH350l25R8bWff4nNhsNMGuxFA3zexkAOfDdV28klEHygUiZOwkmkBwHGpadbwFe+8AzX2jFS7CVL/PsxC7bcj4CbOAnrlPRtkyuAcJLMnBz4V72nGO7x2mc+z9Zsnd8ZupQuAsYoV2SXIU3WACuxS1IaDabkkKiMf7c75M2f3eHjnS5f/bmXaVlJbryALFZwBqDeChzQsBkjX1ESjfvjjSCZ4XrH++7u7PHS7Zd46UrroEGZ1vU8GlbywHeKAVpGKSrFa821P3giTaVQU2RZcnaKwLc+KLhGxeevrHC12SbXAOLwxs5/x+lDqOfGI1+cUxwKDZ4LZva7GRnWOb79SzxGzOMediRCUMbjWPi7yMjz7PwVbsagKBpiUfikiHPBKudqmo0/SZpelBwlw8fme1a43yt55/27fPmzN9nMLTZEvjpiUHO4U+b8Yqr+JZNu5KdBCIHRaECjMY3+LSWSrn/kUkdn+6x3q6oU4xGNxRJhOTNqm/5wgOIwVMEH5d79XcZF4Bdf/QzXV6J+e90HYLK2FmqqHaQbVVV1pr2h/pRur8vaWrbQq60WGLHWErx/5HhkSuzDo7G6JwAlSrMBu7vblFUgbzYnfmaMQ2vsA3SJS1xiIbFYToL3qCpVVZ2qY9w8wrkLsEqMIYSADwFjFilecxCxcNlQ+RMctWaIZUyOosYwyoQffvAeG+ub3L6ySiMIDaKT4IlfFYtTPFerfIWzFC6HgODJlyVhcARibiU6x746uxHiSUWbi2zlnQJCEk04Zsyi4y6MijErK47nNldYMwbnIxNrdm0tljTAFFEC9dFG8XEICv3+gJXmIoQgjodz7qAU+aE9SDQlUtSB5Ix9YGdvxDPXO4TxPk1bkWd15bYkoQCPaPEkb+MSl7jEBWKxnARrCclJaDabT/tqzoUsiw3mzoXkHJRFicvcJPW/aBSAKNuu5JkSjqv6s7EgzmjklL+7vcv2YMxzV9u0jSFPBt+0rDIVqy5ALqGWCRaRpN5jTlyUr6qUVUWj0VywyO4ZoJEeEWpFFk1ly2doADUYeFqt1mO4yPlEQMiy7ET9JbwH7w2NRlxXTmMX1tmS5VjaOf9raxb19ed5Hnv4cPpMYyB1eK+qpXEwrbUgMxSpw+tp0nHOUiH0Cs+H773LZ653eGGzRTvTmTqGGgEuMwmXuMTCYuFijiHELquNxsbTvpRzQYzBh4uJwfkQTtxnYh5hUrFfVXHsjKwQnFgIlkrgvXt3WVlzPLe5hlFfV53OGDGz/28xTnPvPVobcaeQ2ynGY5yzC3KX54dBJo2MzgRVBoMBK53OxV7YHKM2AE86Zt4HMi8Y8cCDa0smxc4LtP+kTnzWWkIx07H7ZKU/kH5tOFaarfbCBWWOQjEeT7OYh5uUmlgR50XoV8r/9df/la3r1/iF56/w4tYq6y1HZhSpPJoanxosskhz4xKXuMQBLJaToEoInsFgQLPZYHFIJA8i8j8v4voVX1U4u1iPchYikR5UeTn2wB3gWMWBwsgHisyykVmaCkZKEJuk65JKQy0lepGVXY8ZquHU5SqqymA4xNnmzG0uVoT3xJBpXqjuXH7WR9vtdumsrFzUlS0ETtrhvhiPUQ00WytJiQw8OXU8WWDavHGBctJR3lGx1lLOyFDXjdJOAgEG/T7t9nI5CUfeiwQ8SokwqMBmGb/0i6+zmsFWI8f7CnwJGLwoVSQEki2JqtolLvFpxPxt7apI/TXR8om9UlUi3agYj8hcjGLVv79IEMAZS1X5dIdTFZWJUav1vU/HQNNvmTp6J4agEhvL5fP3KE+KWgxET0Ct8algDjy9/pBKLZubVyGUzBrFByTsdPJXFgIiEmUU4aHF7fWKiMaOB41qSINSaWdRFkk13r3Uc2kJOUg1PeskBu8EKpMx9Qq9cUmr3Vyg2XE+WKJjVYY6xBL3lzin0orRuCf1hiMCwupKm8NrKzax1IVbWzC9WvsAB//o92kaGxK9rTcsaLbb2CVyErI8ZzJCh+5LAY/igcLH3+rk4FBsUHJTC0ZwYCx1wWKRl7jEJaaYO8tSgmJCwGosjYt8xgqlQsXhNdIMGgZMlOBAwmI19nFAnjmKKjZC80mXT0gOT9Bk/E3vP37VGt8eIRBMgzGG0aDH1dZiH1SqOjWMj0BDbdLpHjMeebRo0mp0QCogBzIsUd3ZQKpKdQek3OYdzrnpAf2QaR1VRdJLYQRa0EO4UzZ5rl2ACF4yFINRRbyPBP4lgwgTfv1JGv2oCqomVtqqUAI9LHkj+9QQIpoi2KzBgDwyxbUCrVCUonYSQhyrblExDp71hsGRA/nD19aCiSaY1GLYJOEHmBZ0H4XoJES9Zg/cHwdcs0W+RE6CNYbiEQnu2Msldg0pqgqTR90iL4qVgBUHtgmugROhDWTUHWAucYlLLCLmz3IySkjSemgd2YrdDiXFvpxJ9EgExKFm8SQfrbMP5wWLxpubSFinxL5GvX+Z0c2vkrpIdzAiayxuIXcd7Q8nyCTE48YQ1DEcV7gwppOlIt8FmwOPgkyaNfHIWzqodS4EVUZFQafdSl23Z/hVC0S1OhFSJFdmDD1JPz8Z0pgBvf0uq532p8qMmTWOZzE7RRQoygoLNPPl1Ie1xkxUnqb5lJMgVmKMRmNaeWOp4uRR4egRL84Mz/5+olox0xbiEpe4xNJh7pwEb5RglCAQxIDa+BUsqkoI4GwqdsWgxlLKImjXTKEozrpJBPTAa6IESd12UxHudAyEmjlbYamA+92C0XjExurimjkC6dke3xvAhqieMfCw3x1wfa1DAxCxp1a3mVdEI+5RzR0CRmtiSPoFsZReGY5KVludZETrtB/Y8vhPERIpQ7UEajgp3WgyHoIX8Kr09rtstPNPjZMgPNpJmIyBiXnLUi2NRha7CD/Ba3y80EnWydhDfRJO4mQKqJgYnOn12FxvkZu5O0bPDJdlJ5Ki3t/fY3PzyokyeJe4xCUWF3O2u2n6n6BiqK0c1ZgeLiVnHAQxFpvoOan/40JtVILQaGSMRqMHDt/ppmtQkuGr0zHwaijVUiJ87+13+fa//Bufe/F52gse7IsRrCplBB4NK4FBCXvjkr1uj+evb5ArKaW9HKaMtRYfJKqfPuD4KEJICzfWpXgfUJT9/oDVdhMrMuVJ12+fs5V+XkiijDjnqEIg1D97CEIIB5vTadwz7vWEtdV1MlHsAosgnAaRUq8P7ZNg0i8oUHhl7COdyyyVKSjTJZGcpVrUSI4x9iVVbgRg7GE0ruhkQr4c2w4Qe0eUhX9oViUKKsSahF6vx9raOjBb93WJS1xi2TB3poNTsKkgruZeVxZKAwOEwiqFDzgbN2yjYeECpYriMqjKhx/UdkZlwwMFcQwKEQoxFCJ8+3s/5r2P7vL6l17j1eevsuA+AtZGY/c4SDUGK3zUF9QIaw1Djo8088d/mU8ExlqCP1T9V0MDsYpl+pq1WazeCUImgj2kXLhQi+OEmL2lo9SNQgiT3hMgqCjYWO303kc73Lr5DE6ivvunAXUyJTxEftnWvoBA6T2jsqDZamJUlnEKnVqVqDacgwg7vYpWe43cOaRanrljnXukNLdIXEcW2L67zcbG2nReLOMEucQlLjGHdEofkAAmRc8riYayV6UH7IyhUkcMeVVEJebFIguoKs5KjG4efjGElAsH0r2XJt5/AN77eId/+OfvoGL4L//TV9lsNGgQcHjm8XGeFNbYk9FGrDCqPN/70R2+/PKLZKn3a5CMZekQYI1hEtLlsMVPpNrUFJDgwQnDSmi1Vx6q9b5YXSJOhxBCchEfLnNvjJlkEcQYRBWvihfl3v1dPvfZ58mCgq8gW3RX+3jETsoPpxvNJgyGRUF/OOSl567X73xSl/jYMVkPp6YnegKBoJb+YESzuULDWWIb4sU6gx4Fl6S55WFnyYyWwmA4YKUzM36n6DFxiUtcYnEwX1alggZJTkItywdv/PAdvvfDH9GVDcpK+YVXXpikfkmZh0XTqnaA12lNwuRfTTKoQREb739/OOYf33iTu/d22Lxyg1/6T1/l2kaLPH2Oo4JQgZmvx3kaiDEEDYls9uhnGXzFB3cGBC154VaOhIKHGtILDGsMITmFD0qXzsjiqoKxBJTesJYvfPC3lxmqB7t0K1GaU0XwPvDOBx/w0u3nMKYu+Q94hf/7//kWd3ZK/uNXX4wLzs5dUvUxQWKPliNEAhSofEVRDmi3HLA8kfK6pssQ19lBItXRq0WT4/6zD+/wT2/8mFdee4VGZpO63nIgUh19Wkc8sK/6EBgFS7uzOh272glfoj34Epe4RMRcWZVBhH7eQK3gGGGpKBXefe8u/8PXvs4zbcU5h3MOowZMG5hDztQxKMSwMlI+khENAI0cVwOMXEYbcGEQi5Wlwd6oxJHzv/3nX2KtEXnYHHCMcjAPGojzilqT3SI4AhlK7oTKBwqEo3SadrM1Pv7kJ3zxZps2oCYHDeRagWQsg7fQdErfewZqaTiDMKaBJZBTSY5IoELIxGOkpArKoPB0NlqHFoMkh2vRVsjJIJKaEpbRuBOgB3SGu+y2Nri34/k//vUj/s+bN/GuwmEpjeFnPWEYhP/9f/kaLQpQB9J4qvfypGCAhstit+r6hyljaUKJ2IyhGkZVoOU9K2bqli7+yoKgFoPSkkBTS8bBMgZylPidY7ZvTQxERTKj9Tkf7XX53sfbvPqVz/G5m1dpKuDdnJ2kZ8dqo2BQwIBVOuKwwWNFqUTAx/4tO5VStdo0gBYxl78Uk+MSl7jEA5gr62HWnInlmcKgUFRhcz2j3W7TaDQwy6AmITHdfVhQwxz6JR+g1/NkmbC6kpMlSsRxKkCLBAUazQaj0fjYsyYAH9+5w62bNw69sgRzIsFai/f+Ec84djGdGP9BsFhG+z3WFlgG97So3YKH7gUStfx3+spor8vY+yiGgEExfHLnDjdv3MTZWPxMXST+KcBU3egh2YGkEld5pbtfsb66dlBFaxkwIwdsbaQIBWZtXDmkGBzXmWLpq+fdj++x1WrypZvXWdc0NqZ4Ypf/uGHtlPb5wPYjhoCwfWfA1tpqkoqYtuS7xCUusXyYO8tq0h6AuCHd2xmxdWWTLBkDmiLoi0YvOgh9pJMwPaAEsIxDYHd/yNUrG4lhohN9+GWBAq1Wi+FweOzvjkoYjkasdhxWZ5o6zd9UPjOcc/Gg1odJwgqSCkkVCzQwOMJwTGOJ5sRxCBrjvbWhVyOuHaUFbA+gGeD+aEgQQyVRFeyDjz/huWeuxhqWJDf8aTFyJO07/iHyy5jU214D3V6PlU5n2rF7SUZo1gFwzgI6rWg5UCM2zZ94sZRi+XF3yCd7+3zhuedY83FuGakI2fLQsWppbnjQSVAxeBE+/PBDnrt+nZi3jfNoCXs1XuISl+ApWlb6UAMoKfuIEsRSYfhke5vr17bIkkLJYjsHM1Ch2WxRlQd/HOuVo7SliqHwnvs793nm5tXoWyzL/c9gNrp5nClyd8+zvnGF3Ma5YtI7VMyMJtRiI/KCwyMzCYqhVBgrqIn0iPGgz9qi6+CeFDp90g/dR5xgvXK/DDy7tsl+5QniGEmkGY3LwErHTiQ/MRJ7Fn5K8Mg9JCZV8CGw3+uyvr6e4ug1bW05MJ0zEjN29c9hGhfXgGqUOy2AXuX54YfbXL22xZVOE1uBBA/qOX7XWhy4zFEUJQ9TXy4lqg3eu7fNrc0OmQYIniD6KREQvsQlPn144kzK2QN99ntJDZJM/IeAoRJhv9vjuRtbOLM8h1SNZrNJVQEz5QQGEA2QMimjShkMBqx0siXRz3g4XGpsdNxTvnN/wPXrNzHEhnpoQFOH4mWx80RkQjeSQ30jFGFvWPKvP/kAl+X83Es3aFhDb9Sn1Vq+NfIoGJFUWQl6uHDUGRgpu37ErZUNdsoxV/qG3UoJKI32RurHEaPFulyEmmMQC5dHw+EDay1oQAWqEBgMeqytNrAisbu96tI0KxRI2VihqqbyufU8UE1kVwUvhpHCW+/tEHo9Pv/51zAT7zLu08uz8yTRhERFk0MqzL0S3njzJ1ibsdE0STY4LFUXjUtc4hIH8cR3t0ixmUb/DmcH6gsKGMaVUGFoNmTJDORpC9PDrQFmj2EP9EeGdnsFCVG1ZRmhQLPZYjgcHXvafHJnm2s3rgLRjSLF8ZYpkjWtSXjwrgKw3Rvwwe6QH32yS7cKjIBBMabReuKX+lShyeCtqTM1t1xF0CqwW/W5ub7JzmjIh5/c5+//5Yf85P1tXKuVZGY9yzVzjoeI0Gw2GQwGD7zmU+S8Oyyw1tCwkYclepClv/BI541zgvexV42mPXmy/WiImRWEYam88Z0f8ctfeInVzBBMINgKrAAOG5Yng9dqt+n1epiaZTaD9z6+y9A7vv7VV2laE+WXk6Pw6VpFl7jEpwdPRZOh1+vxt3/7t/zjP/4jzzzzDL/7u7/L6upqdBh0Sh8ZFoJzTTJrliqSVUMQDrcGmDaGi8WUe92CdqeNm+zayzUGkAqXGznj8ejY393Z22d93WE5eIotk/uUZVmMjmvsAzCrzhmAbjFm5do13nv/Q0Yh0ADGvsAticLKiSFgbcwkaM2blzhG1sOgHLOxvknfB0ZV4KPtHYw1vPDCC6mmxy+XdM8JIAJ5bhmNHlxrxjgGVcHOzh5Xr12NsYwAGhSxyzVIsVcNeD/tsTH9Vw9892/f/Rmff+1L3Oy0UK945yklYHHYYBDP0pREXbvi+Mc7nwBK8MJsyc/2zj4r6zfY2OikxnuBOpNwiUtcYjnxxLc27z1/93d/xxtvvMFv/MZv0O12+eY3v0lVVYAiWjLUBnva4e72Llu5Z8MKhnKyoT+0EdACoeVLiky5iWOXMV6EpnM4ZzBa4kXoiqOPcv+Tn/HS9RYZijHLsR0r4HWIhjF9cpp+nyvS4669RYVCqKiIXOCgBfguqp4dD8N+l06WPiRUD5HgWHxkBGwoURRvHNAADAZPU8cUpaFhmni3TimGDX+Xe4MGq0/7wp8QCsmxZYmoZ8MLe5nBI5Tq6ZQD7usq2nbYYpeXchiNhEFmKFaf4ae7hitrgQkzywhGKrJPiamTUdDKlFFZUiJ4HKiNcsRVCSbj7btwbesZ1nRMxpCRs1SyJFYwAAGRKclMScGZypKVFVKNqHC85R1//aHyg/c/5L9/qY3JwDohJ6NBA4dFDCx8u/sZXDHQ0jEAmgEYqBRXeUJp2FoxNCoQYiZFbRuwy6IAe4lLLA3K8mDBq6rivcd7f6r63ie+83e7Xd555x2+/OUv87WvfY3f+q3f4p/+6Z8YjUYTfqhzBmuFfneXq5sbZFlOHcWqqmpplH3yzFFVB1MJkmTmLPGh3t2+w9bmFQyKLrFOoxHBP+T+akFCBX78s3t87sXnMcTG1CzJPDgMUzeWe0Th8rgY46QilGMqVQgG7LL0mz4ljMbGYDOh4BwoA4ThkLUNT/dej1C2uHVlBR3cp+FLnEAMlbsoEvApGT1BUAHrHP7Q9Aomw6uyd/8OV6+0qLWAlnlkjDETyqfEDmugjt1uwV//1bd5580f819+9etksjwKRkdhDFx97mW+//4+OwH2EHo2Yy9k9IdjWsbTcLPU1+WeH5e4xCKhthm895GRkKj99c+ttamZ5qPsiwfxxAMARVHgvafVigTqjY0Nut0uu7u7dDodFCVUAT8esLffZ39nhTtujPUF2JyqqsjznJWVFTqdzpO+/ItB8uDyvEFRFMSWNDMvp39HZaTUrLRc4n4uKUSi0ZKURmpJyomJIhklwjsff8KNqzdil2mbfjEN1jIdVC4DXxVxcR9+USxVqbTzio1OxrAQxqWn1Wx/uqJ5qrVKMN4rISQjD8Wi9FXoeCU4wY0GFMN7vHz9CuvjVdZyl6RzY9+EKn3kEgWEj4Q1hjxvMi6U1RnRhAGOn320y1pDWGuSmjlK0sNfThhjJuIRQWKhsrgGb3z/X/nyFz7Lyy9tsmkE0SI1a1xuGOCzL7/CG//tO5T6cow4WqHfG6Imo5Vnkf4YqBccsLzz4xKXWCSICFVVYa1le3s72ZcHMRgMokjMCTMJT9yuEIkdg+sC5lrnvE6BgMEa5c6H79HrD/jOaJe3rSDVCJs3KYqCtbU1Xn/9dV5++eUnffkXBpXIPY80q9kXpu3t97sVa2trqRRBlq0kYwoRnLPT9JjE0J5APLlVKIzQLZWfuxKNYaMSDymt24stD4zhkZ5+pYZKIdPAlXaT/YGw17C0V1ZZnJ7bFweVRD+sh8rlZCK8da/k5a0btFeb/IdXX0Kd5cbNDtx4hbVmLYQQS98PNtNafjhjyRtNhsMx5FPD9/29wLf/5bv86td+PnY9FwNqcEs8OlmW4WcU5gLQq5RBsLy2lbFphJYGqMKnwotso7ywLvSvr1LsfUKlgsfgFV576RmurLSi0SCxek5kufbeS1xikaGquFSc+K1vfYu7d+9OXjPGoKqUZcnOzs6JaftP3Emw1qKqDIdDVJV+v0+73abVaiUZVEFQXv7MbV597Qs8e+vmtHfAEh1WSjSMa3WNg6/Fr+FwQKPR+FQoR1grFEUxaYY1/UdQtXiBgQrreTqrlXhQLWEmIar9xvn+/7d35kFyVdf9/9z7ll6nZ9GsGq0RYhMgYRCyjKyFRSyxA45JhcROQkjZLpf/yX/5K1X5w5WUQ6qS/JFyOVT8MzIOAQwEDCEgFolFaEM7Qttom5E0o5npnqWne7rfcn9/vH5PrWEJNjPM0HM/VYNGPa3h9bvv3nvOPed8z8TPVfbAlzZxC5rrk1wc8xgWkngiiVWRZJwVhB5zpZi/uvDUUtDVf56rW9rANLhmXjvjRrDYWUl5WUOtsA1fLT0/n4ZCIQ2DeCwWNC+sv2T5dg2UWXrV1SxqSWPg4xPML4nHpTtVWyQSCYrjPiSDFBqBx8BoGbuuiXQsTlz5COWCnB3dzOO+SxzBV69dgI/Aryg8BXUb4tJTMCGKULuJsBrNl4fq6MA999zzse8pFAo8+eSTM7cmIZlM0tzcTE9PD6dPn+btt99m8eLFNDQ0AIHxLFAYysVUXtBcDai1bTy48eKj3py49GkLhcBJiFpE1OpKrFTQ90DKipRlRR5XAb5ECIOyEowjSVtgKh8p/UrNsogiCbXyhJgGuJ6DUh9VDhl3PDxhELMgnTAZLZbJjbnE40mkcj7299UyUhpIaeE4FedaGAhXcH54gEUNGRxfgetiorArzfeqnxOJwkRhfIzcbK0iK0VrrnP5AcWFEZd0JoPpu+A7FYFhKgIBtXl/4vE44+OlSvMwH0GZweER7FScVMxCesGDpeRsSea75HxLFKbysfGI4WEpD1OFLoOIvmrTfdRoNDANczsWi7Fq1SrS6TTPPPMM58+f54EHHsC27UoOdnAuIZSHVGEyQO3ax95EDdQqioUiiUS89k9qKmk1UlbrjVQZ/QIcBQ4CyxJRfcblTXxq5w5JAb7rfmy6UansAgLbktQlTPKFcYaKZeLJBKiPRqVqHSll4CS4wb3yAeVAGZ+UUemi4XsI5Vd6r1Xf06CzrlAughqu+alCVFJETNOk7Fyer9o/UqSuzgK/DHjBvQSo+q7WiMfjlCI5WA9UGcdxsWywDAG4oCRezeZ6Xo4vTDxh4gkDT0h8YQQRhUBrjcBt/Dih2Np8PjSa2c601CQsWLCAP/zDP2RsbAzbtmlqaroU+gjTZC7wRQAAIABJREFUB4TEF5JLZ+61hAMYSGnieRONFg9fCIoIRsZdOptjxCsGjC9kTZzYSMAWNkKYJPDxZQpPSOrdAQpAHBsDL+iqawT1CJ4DGb+IkFZF1UhweRPu2nlCDMBTghICV0FMjYEqo2SKvKMwhEfKiiFMH7s4wKDdyqLMOErGa+gufDISEKYkJRQjliCGT8kvYyJRviCLT9odYzQDGSGRloVUiqB1cPUMqtS11MSs+ox4krgUJA2TYrlEUUiSgPSKUOgnlWhGSRuhHKzw0EYZl6WXfJkJ/ESJwMMQUBc3yRfyeDTgY+P4Bo4zTJ1UgYCCYSLwK9UrtXEPPg0RaUFUryQGIKtq4ia+YzasOhpNbfDbKBvBNDVTk1LS0NAQpRh9PKLqq8aofCTbtimMFif88NLZTKE4TjqZCORPETUj03hpi5FIFL4I9FPiJpQ8wBSIsBJDBN+NFx1SMbuSjlUb9+GTCGSAbZxoxw5qdZQQFMtlXM/HMC0M00S5LkXXJ2aaqJouMb1EcEsEBgppCAwp8XwPIUyUL+gbytHckMEzwFRhnuYnLYqz4Y5dQgqJLQUxy2NgMI+jgrxz6bjYho8luFQbFt2aWkrmu4QAYrbN4Ei+Uv5k4LgCpcA2ZOU5C9fj2ncQ4NNGufbGX6PR/N/MjpVvhpJMJj61y3A+n6euLoVfo/nAIeGnSyQSFCb6TAQP6fDwCPX19bNClVsCyZhFyam4SsICYeErk4LjY5iSeCKBbVuYsTgD2WGENVvagV1OkG4kcd1APteXMDAwQGtra+X8E50JUY0Mjhrq4hYoychoiTKQdwUx26qcGl1K8QyM59p1zGOxQIY6+MSS8bKDEBC3zCrXSOpHSKPRzEq0kzBNKCAeNz9WxzZkfLxI3OK3Cg19GQk/nm3HKJUm/MwPfl4oBCpYsyE1WAJxy8B1BI4ClxhKxiljMO4GtTphlnA6laa3tzeSEp5tCCGRQuC4biCHK2FsvEAqkbisoDLsvaHxwPeoq0tTX5eiv3+AguMzho1thQ35Ku6BqtaAqk1CJyF0iMbdQMkpZpiBTG7lgKa2j2k0Go3m49FOwjQhgFRSMVYo4PkKpcLiwErHPFVxDgQYsrYNQEMEm7BlmZTLE1qJEzgJIyMjZOpS1LLBEmIAMcvAVUEH1CLgYJEv+5Q9SUM6gSl8pK+Y19FEfugidXEupWjNIgzDwDBNXKeMQOEpxUA2S3tjY6DBUvEMLkkgzHKUhykhZZskEybHT3dztn+IgaJX5SRU3kqlTFXUZroRBGtOoVAIOtwTCANIIYhZZqWYPaiRmx1l7RqNRnM5s0XXbWZRMf4twCk7QVdLESr7CHwF+RI0NjbW6Nb8USSQSqUZG8sDl2pVpAyyHfJjYyxO+bMkkuCTScbo7svilC1SwsMWMDhWZnRMceXc+UhVxhSCRW1x2jJJ6iyFVGUQs0PPPURUmgyGUsJeRaBRUemPVRU+0JEEQPgIPEwpWLywneHiOAN5h3gqiS2NSnpWWA906diiVuddGIALn418YQzfd4jHLARlUCoQ0Zi2K9RoNJrpQzsJ00FlExYCTNOi5Pgkop5GCh9FLjfGnObmabvELxoBpOvS9GdHqXYSUOBXLBVjlph5Qnm0NjdwvpTl4nCZuCpjAQVX0dKYoTEhEKqMQJI2YnzjjpWkTALtz1noJKAqUsIiSM+SpokUl9cj6HSjkKBhmMTAFMGcyzkmAyMFmpoaqhr5zQ5xS8OgIr0dfE5XKUxTYRlU1ukgkqCdBI1GMxvRTsJ0IEwkAlsIkjGL4YJDssGuNKoJ5AZ7ewdpaW4NCnXVJZGbmkFJlFAIpZDKwZIWyYYM3T3jgZa78kApytgMlUAog7pZUbYMIGlvrGddYwMeQfqR8IN0GUOCrXwkcVCQAFYsmEMMQNnTedFfGDLsdyBASAGGxHF8lBKMKoFpJKjzBBY+Snr4SISqyAfPjgfoExnHxgQMfOJKkrFsskVFdrjElfMN4gDCIuxYY8IEqeEvN9Ud3YPmeyCkjVKB6+SYBpbvB6pYGJV/oCobZQ3dCI1Go/kM6JqE6UAYlV4BgnQqwUixhFfR0lAEzWtyQ6M01ccrA6Rq8EQvUB8PlOsdTHxSdTYXRsNC7iAj2pcwmC+STqZIGbPkcRUGJoI6gphKHZCWkJGQAiwhQcRAxrAQJAkcCURsGi/6i0OEhSpUdN0FeD6AJO+CwCQFmEqhpIsn/UpXbm3keVhAUHtgoKiLxXHLHgPDY7QkgoMLpQyEsCrvqVXTWEUHL0KY+D64SMpKYAiBqSD49CbgY9bY6qvRaDSfhVlidc1MpBDU19czlh+NXgsFRQpjI2RSYhYMUJj47JMyFO74SKVYUkClf8JAfz8trc1Ypg58abisfUrUCk0Eev/jJTAMq5ZVOz8XQRSBqIrbTFgMF8cYKhWIJYJUtVpWU6s+bJGAJYM/HTdwND1PYhhGUAs1fZep0Wg0M4Lat0FnIpUqQCEqvQEKBSBwEFwFA0MO9Zl6ElJU8vBrr3gutOFUxZoTBIWmaUtRRgRnd8JEIcjmctSlTczZEknQfCpeaL2p0EkQUeqI47gkEglq2M79XNiEkZjgKx4TZEcHMOM2Uko8z0NKGRWC1xrBcxI01wuiuUH8tuyC44PnCaSYLWmNGo1G8+loq2s6iCwYgWVZOK4XOQBCQP/AIKl0upKAFDQKUIgaCniH4ooAIpAwwkMALakYA0MungpUnkoeSDOObRh649YAYYOv4HsTsFB4Lrge5HI5GhsbkLWUSD9FhOtJoVAgFo8jpYz6bUhZm1tDUIosKv/1CaovFK7n47gurutgzdLGhBqNRjOR2twJZjoVuVMhIJ2SFIvj+H5g9/hAdniETDqNKagobPi1VZMQ9mpSlc/kBS/EBLQ1pDk3OIgnJJ4wGXcUQhpIORtSrzSfhcihVoGTELcNlDIoeYrevj6am9OB6pHmIzgQhfFERQEqJgzMWTS7orJl5WMAqUSckbEihVIJhaKpsRHfR0ejNBrNrGf27AwzjHD/sWSg8e6Ug46xPpAvFGmsT1UKLf3o/bWTAHDp0/iAkhJUULrdVB+nf3AYt/KuctlBCqNmTzY1vz1RY6uK6lfCjuE6DrmRYXylSNq1q+v/eXEAF6CScy+BtqY5zG1sxBC1P8dCUdMAD4HgqqWLOXu2h7FiiXKpQCJhRgXxGo1GM5up/V1hBlKq5FIbyiVhWiTrW+gdGsMT4CjwfI+6ZPhuCUIiUdRO3+XAPAmNFIQJvoGlYGFzA4MFN4qclD0fZcYwpIFU7nRetGaGYEBU4S+UIpNK4Ek4OTBKY8rGksGPfQIZS6l1jSKCBT+ceQILuG5BOys6E0FvgBrHgIqmGoBC+IrWRpvegRwFT5C0JJYIs9kuVb/XUrKnRqPRfFa0kzANlEQQ3E/4JTK2RSzTyOFzowwVFeO+RKFIhkI+wgBhYNSSDJ8QIA2kqEgsCgPMBIYQtKdMhh2Ts305fKBQ9jHsOixpI9zSdF+5ZgZghfKUAqRwqU9IEkmDI31jpL0i9UIFzdOkQCgbUxlBsa6GBGCG4qZCYALL5taxvMkM0htrHKPyBRKUIi59klJQVoKzfYM0Ju2q3hAClECgMC/FrzQajWbWoDUlpwEbkCroEGtIaG2w6e1z6To/RPvcZkAEdvQs2LQnIqXg+ivmcOrMBeLSp1QS2IaJZUjELEiH0Pzf+AKMSkM1oTxiSBbOqac47rOopQnLDMzg6HkJmuZqTUtNVLhsCCOIDiifmGGyYukiRsfHmdvSjKRSj3DZ86IfHo1GM/vQTsI0EFM+QWa1QKLoqI8xumAOg4NFYnkXIeSstWkMKbhuQSOnvXHOnB/ATtSRNGLYBkFakmbW4xM40EEzXIWhHBbUx2mt6yRmgGlIlOchK0o9FTEbjYZw5ZVUnAQBcSm4YUkrZc8jYYcl3IGiXPCMCXQoSqPRzEb00ew0IFSZoOrSRKJIS2hJxihjMzzmYdtxpJCVLrKzCwE0GZL6dIKRsiJfLJCSZWwJ2qfVQFXZu5CVL4UlPeosH1tKpBIfKXRXs9Hj1nwi0fNDIDOdMgUNMZO4CFYZKQVC+CAqi7B+gDQazSxEOwnTggJh4QoLENiqTEvaQlAiNzxCfX0GISWzM7tGYXsjJOJxRLyR0TEHw3exBHh6o9YQLFpBYbsBwgq+MC8z5KrbYflMVLXRzFYMwCLc+ORljoJUPsL3kYSy01WnNPrh0Wg0s5BZaYZOPwIXSRlQygc3T0KWSJiKw4c/AKXwmc19AUrYsRiDo2UuDo5Sn0oGhqEOJGioNBgkSBvxkChhVlLRKo7CJfGaSCWrpvqMaH5nJD6GcpGVQmRV6dkdqj3he6A8FP4lF0HJ4Euj0WhmGdrsmg6EhUd134Pg9Oq6pe0snN/OnAQkDXBcD9ucmdUJxWIRKSWxWGySf7NCeA4NCYOvr5yP6c2nzVKgPDzfwNJ79WeiUChgWRaWZU33pUwBquIoyChCICpKWRXd00/4VzOHQqGAbduYpl6Cv1CUD7jBiYMIqpODGgUg6msvGBvLE4slMPT4zDiUUoyNjZFIJKIO4ZqZQzg+yWRS9zeqAfQITgfCIAakqch/Ws0YMkmnCVenocWAJJAyA1XvULhPzABnwfd9lFLs3r2bo0ePTsH/QSLsuaSBKy34vTjEDAGGQVw/rf8nSimUUmzbto2TJ09O9+VMCQYGBjJKHTGpOAgVZc/wUBhx6aXoPdNMOH+2bt1KT0/PdF/O7EOYIOKVyJOIno9QDcuXJgqT1zdvYeDiYPBTKcHQi89MwfM8Xn75ZXK53HRfimYCSikcx+HFF18kn89P9+VoJgG98mk+M0oFZ7FCCMrlMo7jTPMVaaoJHQSAUqmE6+rmczOJcGwAxsfH8TytvT+TCMdHKUWpVML3Z6FyxAxm4vpWPZ8000/1+BSLRT0+NYKOpWo+M0IIhBDRYqAXgZmFEJciTXp8Zh56/sxswvlT7SxoZh56/sx8qvcizZebKXUSlFL09PTQ19eHbdtceeWVxONxfN+nv7+fnp4eGhoaWLRoEYZhoJSKHq4wLK8XgplLaPBoZg6+71+Wp6vHZ2ahlEJKGeXq6vGZeYTOHOjxmWkIIfT8mcEIIaIInLbfZh7h/PltmDInwXEctm/fzssvv8zSpUs5fvw4ixcv5i//8i85evQoL7/8MrZt09vby/3338/NN9/8sSeh2iOdeXieh+/7l22mmplB9SId/l0zc/B9H8/zLkvd08w8XNfV+88MRUoZzSE9PjMP0zSjPUiPz8wjtN8+K1PiJIRRgDfeeIPbb7+dlStXMjg4yE9+8hNWrVrF/v37qa+v5/7772fPnj0899xz3HjjjZESixAC0zS1csEMRCmFYRhYlqUXgBlGtWNtmqZWzpmBSCkRQmAYhlb+mGFUzx/LsvT+M8OoPpU2TVPPnxlG9fho+2Dm8tuubVNiRUgpsW2b733vezQ3N2PbNoODg5RKJUqlEoODgyxYsICWlhaWL1/Opk2b6O/vp729PdpEjx8/ztatW0mn01NxiZrfkTBdoqenh1gsxubNm6f7kjRVhCcE586dI51O09jYOM1XpKkmTNHr6upix44d1NfXT/claSbg+z4nT57k4MGDev+ZQYRGp+M4nDp1iuPHj5NIJKb5qjTVCCHwPI+uri5Onz49BRLpms/D75IBMmlOglIKz/Mol8uRod/R0YHneQwPD/Poo49yww03MH/+fOLxOOl0Gs/ziMVikfMQngy0tbXxV3/1V1r9Q6PRaDQajUaj+ZxUOwe2bX+mfzNpToLv+xw/fpxXXnkFgLVr17Js2TLOnz/Ppk2bSKVS/PCHP2R0dBTXdfE8D8MwcBwHy7I+csFhuoQOWWk0Go1Go9FoNF8sk+YkCCFoampi+fLlmKZJW1sbR48eZdOmTSxatIi/+Iu/iHI9pZRR+lFvby9NTU1R2FAXI2k0Go1Go9FoNJNHdd3IZ7WzhZpEjarqXzU6Oso//uM/0t3dzdq1a0kmk5imyZo1azh69Cg7d+6MVI86Ojp48MEHPxI50PJZGo1Go9FoNBrN5+N3OYCf1MLlam1pIQQrVqxg6dKlUTGLYRiYpsmKFStQStHb28vSpUu59dZbsSwrKqqY+Ps0Go1Go9FoNBrNF8ekRhKqCQuZpZSXdbAMi5N938d13UjqNNR317JmGo1Go9FoNBrN9DKlTsLExk7VDgPoSIFGo9FoNBqNRjMTMf7u7/7u76biF4cOQKjJ+kl/n8j4+Dhbt27lscceo7u7m3nz5pFMJj+SiqSZOqodOcdx+K//+i/a29uJxWIUCgVeffVVfvnLX9LX18eCBQuIxWL4vs/zzz/PE088wfnz5yOpW92ZeWrwPI933nmHxx57jNdeew3btpk3bx6jo6O89NJLPPHEEwwNDbFgwYLIOX/66ad58sknoz4ltm1roYApwvd9tm7dyq9+9Sveffdd5s+fTyaTIZvN8vzzz/PUU09RKBRYsGABhmFQKBR45plnePrpp6Nxs237MklpzeQTpr0+/vjjXHvttQgh2LZtG48//jh79uxhyZIlpFIpXNfl/fff5xe/+AWHDh2iubmZTCajo99TQHiwePz4cTZt2sQ777zDvn37cF2XtrY23nrrLTZt2sQHH3zA1VdfTSwWw3EcduzYwS9+8QuOHj1KS0sLdXV1et5MMtX7RS6XY9OmTTz//PMMDg6ycOFChBBs3ryZX/3qV3zwwQd85StfwfM8XNflnXfe4Ze//CUnT56ko6ODdDp9WQNDzeRx4sQJfvKTn/DGG2+wdetW3nrrLYrFIm1tbfzP//wPTz75JCdOnODaa6/FNE0KhQJvvvkmv/jFLzh//jxz584lkUgghGBGrW6+73PgwAFefvll1q9fT09PD5s3b6ZQKOiF+AsknLhjY2P8x3/8B//yL/9CqVRCKcX27dvZvn07t99+Ox988AGvvfYa5XKZzZs389JLL3HPPfcwMDDAr3/9a8rlsp78k0w4Njt27ODXv/41a9eu5Rvf+Ab/+q//yq5du9iyZQsHDhzgjjvuYMeOHbz77rsAvPDCC2zdupV7772Xrq4ufvOb3+B5nh6fKWLr1q08/fTT3HbbbVx99dX8+Mc/5uLFi2zevJkzZ86wceNGXn31VXbt2oXv+zz33HPRvDp8+DCvvPIKrutqB2EKCOdQmPL6yCOP8Oabb1IoFDhw4ABvvPEGN954I5Zl8cgjj+A4DufPn+fRRx9l+fLlCCF45plnGBgY0PvSJBMajEIInn/+eQYGBujs7KS9vZ10Os2OHTt46623WLduHeVymb//+7/H933OnDnD448/zsqVKymXyzz//PMMDw8D4LruNH+q2kIpheu6/NM//RMjIyPcf//9HDhwgFdffZWtW7eya9cu7rjjDkZGRvjxj3+MlJIPP/yQZ599llWrVtHf38///u//ks/n9QHiFOD7PolEguXLl/OVr3yF+fPnc/r0abLZLK+++ioffvghGzdupLu7m5/+9Ke4rsuBAwd45ZVXWLduHV1dXbz++uuUSiWAmeUklEol9u3bxw033MCGDRu48847OXXqFLlcbrovbdYQLtKFQoH/9//+H/l8nra2NoQQjI+P8+GHH3LjjTeybt06Nm7cyLFjxygUCvznf/4nf/Znf8bq1atZt24dw8PD9Pb26kVgkgk79haLRb71rW+xevVqbrrpJm699Va2bt1KV1cXq1evZs2aNaxbt479+/dTKpV44okneOihh1i1ahW33norg4ODDAwMTPfHqUmUUqTTab7//e+zYsUK1q9fz8DAAF1dXXR3d7NmzRq+/vWvs3btWrZv3065XOa5557je9/7HmvWrGHlypVcuHCB4eFhDMOY7o9Tc4Rrku/7PP3000gpo2jokSNH6OzsZN26dTzwwAMMDw9z9uxZ9u/fT0dHB7//+7/P3Xffje/7nD9/PnI4NJNH6MCdOnWK2267jXvvvZeNGzeyZMkSjhw5wtKlS1m9ejUPPvggPT09nDt3jt27d7N48WLuvvtuNm7cyOjoKBcuXEAphWlOqj7LrCbcf06dOsXZs2d5+OGHWbhwIQ899BALFizg6NGjrFixglWrVvGd73yHI0eOcPHiRfbs2cO1117Lxo0bueuuu+ju7o7GR9sHk4uUks7OTv7kT/6Eb33rW1xxxRUsXryYW265ha6uLlatWsWqVat46KGH2LlzJ7lcjj179nDjjTdy++23R3ZdNpsNIqXT/YGq8TyPgYEBmpubUUoxZ84cstls5NFopp5wA43FYvzxH/8xf/3Xf41t27iui+M4DA8P09bWhu/7tLW10dfXx/j4ONlsls7OTnzfJx6PUy6XuXjx4nR/nJojNEjWr1/P+vXrMQyD3t5e9u7dyzXXXEM+n6e1tRWAuXPn0tPTQ7lcJpfL0dnZiVKKVCoVjZlm8hFCcPPNN3PDDTfQ1dXFz3/+c6666irS6TSlUok5c+aglGLevHmcPXs2mlfNzc0IIUgkEhSLRYaHhz9S16X5/Pi+j+d57Nq1i/3790c9fHzfj9K74vE4zc3N+L5Pb28vuVwu+nuYZjQyMqIdhClibGyMQqHAK6+8wt/+7d/yyCOPcOTIEUqlErZtY5omTU1NCCHo7u4mm81G49PQ0IDjOAwNDeH7vh6jSSQUnzl79izxeJznn3+ef/iHf2Dz5s0kEglKpRLxeBzTNGltbcVxHM6dO8fQ0BAtLS2RXTc2Nka5XAbQ69skEj7rYZZANpvlxRdfZO3atdTX10dRBsMwaGtrY3x8nDNnzjA2NkZrayue59HR0cHIyEgUyZ5RTgIEG2wqlUIphWEYeJ6nH6JpwLIsWltbPzbdIWyIF4baw/dYlhWdDIQ/0ydtk0t1TY/ruhw5coR///d/55ZbbmH58uWRzHA4PuH8CRfu6tf1Kc7kU53K4nleFA3wPI/+/n4Mw4iiA+EYep5HMpnEsiwADMOIjBs9RpOPUoru7m6effZZ7rvvvihnenR0FIB4PA4Q1VP5vh/NoXAtC8culPfWTA7h2qaUYs2aNfz5n/85f/M3f8PChQt56qmncBwnmifVNgJAIpGI9qLwZ+H3mskjjGQfO3aMzs5OHn74YfL5PC+++OJlkRvf9y8bn1gsBlwSsAnXSZ2yN3mEz7uUEt/32bZtG4ZhcMstt+B5HpZlYRjGZfc+nB/hzyBI0XNdN/hd0/mBJiKEwLZtcrlclPKSTqexbXu6L01DMD6maTIyMoIQgnw+HzXJMwyDoaEhDMOIckBTqZRON5pkwgntui7btm3j6aef5rrrruPhhx+ONs+RkREgOI3LZDJRD5LwZNpxHAzDiLqcayafnp4e+vv7Wb16NT/60Y+ifGoIxiWcP3PmzAGCk58wR7dUKmGaph6fKSA0Tg4dOkSpVOLw4cO89tprDA0NsXfvXsrlMmNjY1G9gu/7pNNpEokEg4ODGIaB4zhRihJolb7JJjxkWrVqFcuWLaOzs5ObbrqJYrHI2NgYpVIpWsccx6G+vp5YLBalJTuOg2maxGIxfUg1yYRG6Jw5c0in09x2220sXbqUlStXksvlKJVKFAoFlFI4joPv+zQ2NhKLxaL9J4w2hOOjmTyqD5Vc12XLli2sW7eORCKBbdvRnBFCUC6X8X2fpqYmLMuKxmei3T2jnATLsli6dClHjhyhp6eH/fv309LSQjqdnu5L0xCc1CxevJjDhw/T09PDnj17WLRoEfF4nFtuuYW33nqLvr4+jh07Rjwep7W1VS8CU8SBAwd46qmnWLBgAcuWLaOvr49yuUxHR0c0Pjt37uSqq67Ctm1uuukmtmzZEo1PJpOhqalJh+OniIMHD/Lss89y4cIFzp07RzabZcmSJTQ1NfHhhx/S3d3N+++/z7Jly0ilUixfvpy3336b3t5eTpw4QSaTob6+XkcSpohly5bxwAMPsGTJEjo7OzEMg87OTubOnUsul+P06dPs3r0bwzBYuHAhS5cu5cKFC3R1dfHBBx/geV4UadUnoZNHaNQPDQ3x85//nMOHDzMwMMDBgwdpb29nyZIlXLhwgTNnzrBz504SiQQLFy7kqquu4uzZs5w+fZqDBw9i23bkgOu6nslFKcWiRYtoaGhg3759DA4O0tXVxdy5c6MUyp6eHrZt20Zrayvt7e1ceeWVUU3WgQMHaGhooKGhYbo/Ss0ROnFCiKju8LrrrgMC+625uZlTp05x4cIFtmzZwvz582ltbWXRokUcO3aM7u5u9u7dS1tbW3TIO2USqL8LUkrq6uo4efIkO3fuZHR0lA0bNjB//nw90acJ3/fZt28fX//618lkMqTTaY4ePcquXbsol8ts3Lgxesh2797Nnj17yOfzrFu3jkWLFml1lkkmTHN47733OHr0KL7vc+LECfbv309dXR3XXHMNhw4d4v3330dKyd13301TUxPz5s1j79697N27l1KpxPr165k3b95l0sSaz094H5PJJIcPH2bPnj0cPHiQxYsX881vfpO6ujr27dvHnj17sG2be++9l4aGBjo6Oti+fTuHDh1CSsnatWuZO3eujsRNMuG9bGxsZNGiRSxYsIDm5mbOnj3Lt7/9bVpbW7l48SLvvfceXV1dbNiwgeuvv55MJkMul+Pdd9/lwoULrFy5kuuuuw7LsvT4TCLh8x6ebG7fvp39+/fjui733nsvV155Jd3d3ezcuZMzZ85wzz33cM0111BXV0dfXx/btm2jr6+PNWvWcNVVV2Gaph6fKSCdTlNXV8dbb73FwYMHEUJw1113sWTJErq6uti5cyc9PT3cd999XHHFFdTV1dHd3c0777xDNptlw4YNLF68OEoJ00weYRrRhQsXOHHiBPfdd1+UalxXV8fhw4fZsWMHvb29fPvb32bRokVkMhlOnjzJu+++S6FQ4I5lGY4UAAALpUlEQVQ77mDevHmB/TZVzdR+V1zXZWRkhNHRUWKxGE1NTTrdaBpRSnHx4kXmzJmDlDIanzDVqLGxMapFGBgYIJfLUV9fT2Njox63KUIpxfDwMPl8/rIoQCaTIZlMks1myefzUbQgzAvNZrMMDw+TyWSicdNMDeFpaD6fx3GcSLe9XC6TzWYpFArROFTXLOTz+eiUTauyTD1KqWhuzJkzByEEo6OjUepkS0tLtMEODw8zNDSElJKWlhbi8bg2cKaAMF+6VCqRzWZRShGPx6PIwMjISFTr09raim3bUTpl9ethOphm8qhukuu6LgMDA5RKJerq6mhqaor2ppGREWKxWDR/PM9jZGSEkZGRKMqj7YOpIRyjUqlELpejvb09ei0s6M/n85E4g2ma+L5PLpejUChE4xPaBzPOSQB0iH0G4XneZdGAcAGf2BQvHLOwmE9HfqaWTyr4qi5ICsemerz0+HwxhPOhXC5/5LS5uvgVLilRhEVkeu37YnFd9yMOWXXzzuri14lza+JYaj4foUhJ9drmum5UzB/e+/C1sHC8Wta2WjhDM3WE4xHOn4lF/dXjozMKvjiqHbmJAjLh3yeOyacVkM84J2HixepNc/qJpLCqjJjqBSEcs4nV8nrcpp6PWxDC18M/w9fDDTRcMLSj8MVRbYhWz4/q9W2i2oeeP1PPxHnyceta9Xsnrn0TN1/N56PaGYNLynmfdO/D76uNUr3/TB0f58SFVJuSH3fvq9Xa9NhMLdVrl+d50V4f1iBWOw/V34fvrR6fGeckaDQajeZ345OcxZAv0+ZcbZBUy2Brg1yj0Wi+GHTSq0aj0dQAHxcy/r+cguoT2pl2ClutmT8Trkej0WhmG/pIRqPRaL7kVEtHVjM6OsrY2NjH6sVXp3aMjIxE+vMzJbg8OjpKoVCIogiO4zA6OorjONN8ZRqNRjM70E6CRqPRfMkJ1Sx+85vfUCqVotc/+OADurq6IlWL0MAO6x/Cr9OnT7N9+3Ycx0EpRTabjZryQWCgX7x4McppzeVynD9//rL/V0joZJTLZXK5XKRGE763OnWoGt/3uXjxYvS+3bt309XVFUUUcrkcu3fvZmRkBMdxyOfzeJ7HwMBA1MBppjg4Go1GUwvodCONRqP5EuN5XqTwcvz4cUqlEo7jkEql6O/vByAWi9Hf388VV1xBa2srPT09HD16lI6Ojkje88yZM5EM6JkzZ2hvb2fFihUA7NixA8dxuPXWW9m1axdvv/02tm3T2dnJHXfcQVNT02VRCMdxeOONN3jvvfeIx+MopdiwYQM333xzJPk6USUol8vxyiuvcNddd5HJZDh37hyxWIzx8fFIRvHs2bOk02lSqRSFQoEVK1Zw7NgxCoUCGzZs0ApRGo1GM4noSIJGo9F8iZFS8tJLL7Fz504GBgZ4/fXXefXVV8lmsxSLxegkfs6cOdTV1eH7PoODg/T19WFZFkNDQ9i2zZVXXsnY2BiHDx8mm82yYMEChBBcvHiRt99+m9bWVvr6+vjZz37G9ddfz1e/+lVOnz7Nli1bPqJsUi6Xeeedd2hsbOSmm25i5cqVkUMSXvNlChpCcPbsWbLZLNlslv/+7/+mp6eHY8eO8cQTT9Dd3c3o6ChKKSzLolQqRdfX1NTE3r17OXfunFZO0Wg0mklERxI0Go3mS4wQgtOnT7N8+XJaW1tpbW1ly5YteJ5HfX09qVSKAwcOYFkWV199dSR7Z9s2HR0dZDIZstks9fX1dHV1MTIywo033khDQwMA77//PplMho6ODt58803S6TRr164lHo9z/vx5jh8/ztDQUBRNgCC6cebMGb75zW8yd+7c6DoKhQLPPvsshw8fJpVKcfvtt/O1r30NpRTHjh1jwYIFSClxHId58+bR0tLCsWPHePvtt0mlUrS3t1MsFtm2bRs/+MEPMAyDjo4OGhoa2LZtW9RFXDsKGo1G8/nRToJGo9F8yTFNk3g8jpQyOmm3LIu2tjZisVjUSXhiE7B0Ok06nebcuXM8/fTT3H///Xz3u9+NGlKNj49z+PBhFi9eTDKZ5NSpU8ybN49kMomUksbGRlzXZXR0lMbGxqh5Un9/P93d3fzzP/8zIyMjLFu2jB/+8Ie88cYbHD9+nD/90z/lxIkTPPbYYyxcuJCmpiYGBwe56aabIiM//ExhR925c+fi+z7z588nkUhEHY+TySStra0cO3aM0dFR6uvrp3MoNBqNpmbQToJGo9F8ianOwa/uqB2Px8nlciQSiajgWCkVNXYrFAps374d13WxLItsNkt/fz/5fJ7Tp09j2zarVq1ibGyMTCaDaZof6eJZ3WQxvA4pJeVymfvuu4/77ruPVCrFo48+ygsvvECxWGR0dJTh4WHuuusuVq5cSVNTE+fOnUMpRVNTU9S9VUoZ1VuEzYCy2SwdHR2XRQtM06S5uZl9+/ZFERGNRqPRfH60k6DRaDRfYkLDPCSfz6OUwnEcfN8nnU7jOA6WZUXGdbFYpLW1lWXLlkX1AVu2bOH6669HSsnIyAhLliyJum8mk0mEECQSCXK5XOQYhGpIhmFc1il60aJF/OAHPyCRSKCU4uabb+bNN9/kwQcf5IUXXuDf/u3fKJVK3HnnnTz44IP09PSQSqVoampiaGgI0zQZHx9HKUWxWKSuri6SaP24Zmqhs6LRaDSayUM7CRqNRvMlRinF/PnzSafTjI+PUy6Xueqqq0in02Sz2cgJiMViUSTBcRxaW1vJZDLR7zFNk0wmQzweZ/369SQSCS5evIhSikKhgOu6LFu2jMcff5x8Po9hGPT395NOp2loaKBQKCCEwLIsurq62L17N3/0R3+EaZrk83nS6TR9fX1897vfJZFIcPLkSX7605/S3t5OuVymvr6euro6isUinZ2d9PT0MDo6yvz582ltbaVYLGLbNo7jXHbdobMSpihpNBqNZnLQK6pGo9F8ifF9nzvvvBMpJYlEgvXr1+M4Dl1dXRQKBWzbpre3l8bGRjzPw3EcyuUyS5YsiWRLXdelXC4DgdGdSCQAqK+vp76+nlwuh1KKG264gUQiwTPPPENDQwOnTp1i5cqVJBIJNm/ejG3brF+/Hikl7777LoZhkMlkOHToECtXrqS3t5ctW7awfv16isUic+fOJR6PUywWaWlpwTRN2tvbaWtr45lnnmHhwoUsW7aMoaEh9u3bR0NDA0NDQySTSUZHR2loaIh6QKRSKZ1qpNFoNJOIjs9qNBrNlxjDMIjFYnieF9UNDA0NMT4+zjXXXMPSpUtZuHAhW7ZsoVgsUiwWaWpqoqWlBYBiscju3bujSEC1MlAsFmPZsmWcO3eOQqFAfX09P/rRj/A8j2w2y1e/+lVWr14d1UDYto0QgiuuuILvf//7OI5DLpdjzZo13HrrrfzBH/wBt9xyCz09PYyMjPCNb3yDm266iSuuuCJyWqSUGIaB7/u4rsvY2BgXL15kzpw50efJZrMcOHAAgEKhwPnz51m0aBHpdHpaxkCj0WhqEaF0i0qNRqP50hIu4a7r8t5773HLLbcwODhIIpEgk8lE9QMHDx7kmmuuoVQqIaUklUpFqTonT55kYGCAr33ta5GhHv7eXC7Hz372M+655x6WLVuGZVmMj4/jeR62bWNZFhA0UAtrE8JmaWFdgW3bUX2DUoqxsTGklCSTSXzfv+zfhk7KoUOHaGlpwbZtxsfHqa+vj2ojzp8/T6FQ4Pd+7/c4cuQIL774It/5zneYO3cugJZA1Wg0mklAOwkajUZTI5TLZSzLihSBJkqeCiHwfT+KGISKRKE60cTi3/Dfbdu2jWw2y913331ZkfLE9040zqt//yf97JNec10XwzCi16rfG6ZIKaV4/fXXicVirF+/XvdI0Gg0mklEOwkajUaj+VQcx6FUKpFIJCI50ukmlHUtFotYloVt24COImg0Gs1koZ0EjUaj0Xwq1ZGI6r4F03k91VGSsH+DdhA0Go1m8vj/WXUd9SEMdQMAAAAASUVORK5CYII=;" vertex="1" parent="1">
          <mxGeometry x="350" y="410" width="417" height="165.3" as="geometry" />
        </mxCell>
        <mxCell id="uq-xYKgkHuC4XFjGFnDX-4" style="edgeStyle=orthogonalEdgeStyle;rounded=0;orthogonalLoop=1;jettySize=auto;html=1;exitX=0.5;exitY=1;exitDx=0;exitDy=0;" edge="1" parent="1" source="uq-xYKgkHuC4XFjGFnDX-1" target="uq-xYKgkHuC4XFjGFnDX-2">
          <mxGeometry relative="1" as="geometry" />
        </mxCell>
        <mxCell id="uq-xYKgkHuC4XFjGFnDX-1" value="图像&amp;amp;&amp;amp;视频数据" style="rounded=0;whiteSpace=wrap;html=1;" vertex="1" parent="1">
          <mxGeometry x="300" y="110" width="120" height="60" as="geometry" />
        </mxCell>
        <mxCell id="uq-xYKgkHuC4XFjGFnDX-5" style="edgeStyle=orthogonalEdgeStyle;rounded=0;orthogonalLoop=1;jettySize=auto;html=1;exitX=0.5;exitY=1;exitDx=0;exitDy=0;" edge="1" parent="1" source="uq-xYKgkHuC4XFjGFnDX-2" target="uq-xYKgkHuC4XFjGFnDX-3">
          <mxGeometry relative="1" as="geometry" />
        </mxCell>
        <mxCell id="uq-xYKgkHuC4XFjGFnDX-2" value="降噪&amp;amp;增强处理" style="rounded=0;whiteSpace=wrap;html=1;" vertex="1" parent="1">
          <mxGeometry x="300" y="210" width="120" height="60" as="geometry" />
        </mxCell>
        <mxCell id="uq-xYKgkHuC4XFjGFnDX-7" style="edgeStyle=orthogonalEdgeStyle;rounded=0;orthogonalLoop=1;jettySize=auto;html=1;exitX=0.5;exitY=1;exitDx=0;exitDy=0;entryX=0.5;entryY=0;entryDx=0;entryDy=0;" edge="1" parent="1" source="uq-xYKgkHuC4XFjGFnDX-3" target="uq-xYKgkHuC4XFjGFnDX-23">
          <mxGeometry relative="1" as="geometry">
            <mxPoint x="360" y="410" as="targetPoint" />
          </mxGeometry>
        </mxCell>
        <mxCell id="uq-xYKgkHuC4XFjGFnDX-3" value="构建跟踪任务" style="rounded=0;whiteSpace=wrap;html=1;" vertex="1" parent="1">
          <mxGeometry x="300" y="310" width="120" height="60" as="geometry" />
        </mxCell>
        <mxCell id="uq-xYKgkHuC4XFjGFnDX-30" style="edgeStyle=orthogonalEdgeStyle;rounded=0;orthogonalLoop=1;jettySize=auto;html=1;exitX=0.5;exitY=1;exitDx=0;exitDy=0;fontSize=18;endArrow=block;endFill=0;" edge="1" parent="1" source="uq-xYKgkHuC4XFjGFnDX-8" target="uq-xYKgkHuC4XFjGFnDX-34">
          <mxGeometry relative="1" as="geometry">
            <mxPoint x="105" y="620" as="targetPoint" />
            <Array as="points">
              <mxPoint x="230" y="590" />
              <mxPoint x="130" y="590" />
            </Array>
          </mxGeometry>
        </mxCell>
        <mxCell id="uq-xYKgkHuC4XFjGFnDX-33" style="edgeStyle=orthogonalEdgeStyle;rounded=0;orthogonalLoop=1;jettySize=auto;html=1;exitX=0.5;exitY=1;exitDx=0;exitDy=0;entryX=0.501;entryY=0.024;entryDx=0;entryDy=0;entryPerimeter=0;fontSize=18;endArrow=block;endFill=0;" edge="1" parent="1" source="uq-xYKgkHuC4XFjGFnDX-8" target="uq-xYKgkHuC4XFjGFnDX-31">
          <mxGeometry relative="1" as="geometry" />
        </mxCell>
        <mxCell id="uq-xYKgkHuC4XFjGFnDX-40" style="edgeStyle=orthogonalEdgeStyle;rounded=0;orthogonalLoop=1;jettySize=auto;html=1;exitX=0.5;exitY=1;exitDx=0;exitDy=0;entryX=0.5;entryY=0;entryDx=0;entryDy=0;fontSize=12;endArrow=block;endFill=0;" edge="1" parent="1" source="uq-xYKgkHuC4XFjGFnDX-8" target="uq-xYKgkHuC4XFjGFnDX-35">
          <mxGeometry relative="1" as="geometry">
            <Array as="points">
              <mxPoint x="230" y="590" />
              <mxPoint x="338" y="590" />
            </Array>
          </mxGeometry>
        </mxCell>
        <mxCell id="uq-xYKgkHuC4XFjGFnDX-8" value="钻杆运动轨迹统计分析" style="rounded=0;whiteSpace=wrap;html=1;" vertex="1" parent="1">
          <mxGeometry x="170" y="510" width="120" height="60" as="geometry" />
        </mxCell>
        <mxCell id="uq-xYKgkHuC4XFjGFnDX-11" style="edgeStyle=orthogonalEdgeStyle;rounded=0;orthogonalLoop=1;jettySize=auto;html=1;entryX=1;entryY=0.5;entryDx=0;entryDy=0;fontSize=12;endArrow=block;endFill=0;" edge="1" parent="1" source="uq-xYKgkHuC4XFjGFnDX-9" target="uq-xYKgkHuC4XFjGFnDX-1">
          <mxGeometry relative="1" as="geometry" />
        </mxCell>
        <mxCell id="uq-xYKgkHuC4XFjGFnDX-9" value="&lt;b&gt;无自然光、光源不稳定（强光、暗光、微光）、成像角度多变&lt;/b&gt;" style="rounded=0;whiteSpace=wrap;html=1;fontSize=12;" vertex="1" parent="1">
          <mxGeometry x="480" y="110" width="120" height="60" as="geometry" />
        </mxCell>
        <mxCell id="uq-xYKgkHuC4XFjGFnDX-13" style="edgeStyle=orthogonalEdgeStyle;rounded=0;orthogonalLoop=1;jettySize=auto;html=1;exitX=0;exitY=0.5;exitDx=0;exitDy=0;fontSize=12;endArrow=block;endFill=0;" edge="1" parent="1" source="uq-xYKgkHuC4XFjGFnDX-12" target="uq-xYKgkHuC4XFjGFnDX-2">
          <mxGeometry relative="1" as="geometry" />
        </mxCell>
        <mxCell id="uq-xYKgkHuC4XFjGFnDX-12" value="&lt;b&gt;图像去噪、基于Retinx模型的图像增强手段&lt;/b&gt;" style="rounded=0;whiteSpace=wrap;html=1;fontSize=12;" vertex="1" parent="1">
          <mxGeometry x="480" y="210" width="120" height="60" as="geometry" />
        </mxCell>
        <mxCell id="uq-xYKgkHuC4XFjGFnDX-15" style="edgeStyle=orthogonalEdgeStyle;rounded=0;orthogonalLoop=1;jettySize=auto;html=1;entryX=0;entryY=0.5;entryDx=0;entryDy=0;fontSize=12;endArrow=block;endFill=0;" edge="1" parent="1" source="uq-xYKgkHuC4XFjGFnDX-14" target="uq-xYKgkHuC4XFjGFnDX-3">
          <mxGeometry relative="1" as="geometry" />
        </mxCell>
        <mxCell id="uq-xYKgkHuC4XFjGFnDX-14" value="&lt;b&gt;预标注方法（目标框&amp;amp;&amp;amp;目标物锚点）&lt;/b&gt;" style="rounded=0;whiteSpace=wrap;html=1;fontSize=12;" vertex="1" parent="1">
          <mxGeometry x="110" y="310" width="120" height="60" as="geometry" />
        </mxCell>
        <mxCell id="uq-xYKgkHuC4XFjGFnDX-17" style="edgeStyle=orthogonalEdgeStyle;rounded=0;orthogonalLoop=1;jettySize=auto;html=1;entryX=1;entryY=0.5;entryDx=0;entryDy=0;fontSize=12;endArrow=block;endFill=0;" edge="1" parent="1" source="uq-xYKgkHuC4XFjGFnDX-16" target="uq-xYKgkHuC4XFjGFnDX-3">
          <mxGeometry relative="1" as="geometry" />
        </mxCell>
        <mxCell id="uq-xYKgkHuC4XFjGFnDX-16" value="基于多目标跟踪算法逐帧检测钻杆目标" style="rounded=0;whiteSpace=wrap;html=1;fontSize=12;" vertex="1" parent="1">
          <mxGeometry x="480" y="310" width="120" height="60" as="geometry" />
        </mxCell>
        <mxCell id="uq-xYKgkHuC4XFjGFnDX-18" value="offline" style="text;html=1;strokeColor=none;fillColor=none;align=center;verticalAlign=middle;whiteSpace=wrap;rounded=0;fontSize=12;" vertex="1" parent="1">
          <mxGeometry x="363" y="180" width="50" height="30" as="geometry" />
        </mxCell>
        <mxCell id="uq-xYKgkHuC4XFjGFnDX-19" value="online" style="text;html=1;strokeColor=none;fillColor=none;align=center;verticalAlign=middle;whiteSpace=wrap;rounded=0;fontSize=12;" vertex="1" parent="1">
          <mxGeometry x="310" y="180" width="50" height="30" as="geometry" />
        </mxCell>
        <mxCell id="uq-xYKgkHuC4XFjGFnDX-22" style="edgeStyle=orthogonalEdgeStyle;rounded=0;orthogonalLoop=1;jettySize=auto;html=1;entryX=1;entryY=0.5;entryDx=0;entryDy=0;fontSize=12;endArrow=block;endFill=0;" edge="1" parent="1" source="uq-xYKgkHuC4XFjGFnDX-21" target="uq-xYKgkHuC4XFjGFnDX-16">
          <mxGeometry relative="1" as="geometry" />
        </mxCell>
        <mxCell id="uq-xYKgkHuC4XFjGFnDX-21" value="&lt;b&gt;检测-重识别-轨迹&lt;/b&gt;" style="rounded=0;whiteSpace=wrap;html=1;fontSize=12;" vertex="1" parent="1">
          <mxGeometry x="650" y="315" width="90" height="50" as="geometry" />
        </mxCell>
        <mxCell id="uq-xYKgkHuC4XFjGFnDX-24" style="edgeStyle=orthogonalEdgeStyle;rounded=0;orthogonalLoop=1;jettySize=auto;html=1;exitX=0.5;exitY=1;exitDx=0;exitDy=0;entryX=0.5;entryY=0;entryDx=0;entryDy=0;fontSize=12;endArrow=block;endFill=0;" edge="1" parent="1" source="uq-xYKgkHuC4XFjGFnDX-23" target="uq-xYKgkHuC4XFjGFnDX-8">
          <mxGeometry relative="1" as="geometry" />
        </mxCell>
        <mxCell id="uq-xYKgkHuC4XFjGFnDX-23" value="记录目标可靠位置的偏移量&amp;amp;&amp;amp;分析位移量规律" style="rounded=0;whiteSpace=wrap;html=1;" vertex="1" parent="1">
          <mxGeometry x="170" y="410" width="120" height="60" as="geometry" />
        </mxCell>
        <mxCell id="uq-xYKgkHuC4XFjGFnDX-25" value="&lt;font style=&quot;font-size: 18px;&quot;&gt;way1&lt;/font&gt;" style="text;html=1;strokeColor=none;fillColor=none;align=center;verticalAlign=middle;whiteSpace=wrap;rounded=0;fontSize=12;" vertex="1" parent="1">
          <mxGeometry x="140" y="375" width="50" height="20" as="geometry" />
        </mxCell>
        <mxCell id="uq-xYKgkHuC4XFjGFnDX-26" value="&lt;font style=&quot;font-size: 18px;&quot;&gt;way2&lt;/font&gt;" style="text;html=1;strokeColor=none;fillColor=none;align=center;verticalAlign=middle;whiteSpace=wrap;rounded=0;fontSize=12;" vertex="1" parent="1">
          <mxGeometry x="570" y="375" width="50" height="20" as="geometry" />
        </mxCell>
        <mxCell id="uq-xYKgkHuC4XFjGFnDX-28" style="edgeStyle=orthogonalEdgeStyle;rounded=0;orthogonalLoop=1;jettySize=auto;html=1;entryX=0.5;entryY=0;entryDx=0;entryDy=0;fontSize=12;endArrow=block;endFill=0;" edge="1" parent="1" source="uq-xYKgkHuC4XFjGFnDX-27" target="uq-xYKgkHuC4XFjGFnDX-14">
          <mxGeometry relative="1" as="geometry" />
        </mxCell>
        <mxCell id="uq-xYKgkHuC4XFjGFnDX-27" value="特征点提取" style="rounded=0;whiteSpace=wrap;html=1;fontSize=12;" vertex="1" parent="1">
          <mxGeometry x="110" y="210" width="120" height="60" as="geometry" />
        </mxCell>
        <mxCell id="uq-xYKgkHuC4XFjGFnDX-39" style="edgeStyle=orthogonalEdgeStyle;rounded=0;orthogonalLoop=1;jettySize=auto;html=1;exitX=0.5;exitY=1;exitDx=0;exitDy=0;fontSize=12;endArrow=block;endFill=0;" edge="1" parent="1" source="uq-xYKgkHuC4XFjGFnDX-31">
          <mxGeometry relative="1" as="geometry">
            <mxPoint x="180" y="710" as="targetPoint" />
          </mxGeometry>
        </mxCell>
        <mxCell id="uq-xYKgkHuC4XFjGFnDX-31" value="&lt;span style=&quot;font-size: 12px;&quot;&gt;冲击动力头卸钻杆&lt;/span&gt;" style="rounded=0;whiteSpace=wrap;html=1;fontSize=18;" vertex="1" parent="1">
          <mxGeometry x="190" y="620" width="80" height="40" as="geometry" />
        </mxCell>
        <mxCell id="uq-xYKgkHuC4XFjGFnDX-38" style="edgeStyle=orthogonalEdgeStyle;rounded=0;orthogonalLoop=1;jettySize=auto;html=1;exitX=0.5;exitY=1;exitDx=0;exitDy=0;entryX=0.5;entryY=0;entryDx=0;entryDy=0;fontSize=12;endArrow=block;endFill=0;" edge="1" parent="1" source="uq-xYKgkHuC4XFjGFnDX-34" target="uq-xYKgkHuC4XFjGFnDX-37">
          <mxGeometry relative="1" as="geometry" />
        </mxCell>
        <mxCell id="uq-xYKgkHuC4XFjGFnDX-34" value="&lt;font style=&quot;font-size: 12px;&quot;&gt;冲击动力头打入钻杆&lt;/font&gt;" style="rounded=0;whiteSpace=wrap;html=1;fontSize=18;" vertex="1" parent="1">
          <mxGeometry x="90" y="620" width="80" height="40" as="geometry" />
        </mxCell>
        <mxCell id="uq-xYKgkHuC4XFjGFnDX-42" style="edgeStyle=orthogonalEdgeStyle;rounded=0;orthogonalLoop=1;jettySize=auto;html=1;exitX=0.5;exitY=1;exitDx=0;exitDy=0;entryX=0.5;entryY=0;entryDx=0;entryDy=0;fontSize=12;endArrow=block;endFill=0;" edge="1" parent="1" source="uq-xYKgkHuC4XFjGFnDX-35" target="uq-xYKgkHuC4XFjGFnDX-41">
          <mxGeometry relative="1" as="geometry" />
        </mxCell>
        <mxCell id="uq-xYKgkHuC4XFjGFnDX-35" value="&lt;span style=&quot;font-size: 12px;&quot;&gt;冲击动力头整体带动打入钻杆前后运动&lt;/span&gt;" style="rounded=0;whiteSpace=wrap;html=1;fontSize=18;" vertex="1" parent="1">
          <mxGeometry x="283" y="620" width="110" height="50" as="geometry" />
        </mxCell>
        <mxCell id="uq-xYKgkHuC4XFjGFnDX-56" style="edgeStyle=orthogonalEdgeStyle;rounded=0;orthogonalLoop=1;jettySize=auto;html=1;exitX=0.5;exitY=1;exitDx=0;exitDy=0;strokeColor=#000000;fontSize=11;fontColor=#FF0000;startArrow=none;startFill=0;endArrow=classic;endFill=1;" edge="1" parent="1" source="uq-xYKgkHuC4XFjGFnDX-37" target="uq-xYKgkHuC4XFjGFnDX-55">
          <mxGeometry relative="1" as="geometry" />
        </mxCell>
        <mxCell id="uq-xYKgkHuC4XFjGFnDX-37" value="位移曲线在波峰和谷底存在小幅度往返运动" style="rounded=0;whiteSpace=wrap;html=1;fontSize=12;" vertex="1" parent="1">
          <mxGeometry x="130" y="710" width="100" height="50" as="geometry" />
        </mxCell>
        <mxCell id="uq-xYKgkHuC4XFjGFnDX-58" style="edgeStyle=orthogonalEdgeStyle;rounded=0;orthogonalLoop=1;jettySize=auto;html=1;exitX=0.5;exitY=1;exitDx=0;exitDy=0;entryX=0.5;entryY=0;entryDx=0;entryDy=0;strokeColor=#000000;fontSize=11;fontColor=#FF0000;startArrow=none;startFill=0;endArrow=classic;endFill=1;" edge="1" parent="1" source="uq-xYKgkHuC4XFjGFnDX-41" target="uq-xYKgkHuC4XFjGFnDX-55">
          <mxGeometry relative="1" as="geometry" />
        </mxCell>
        <mxCell id="uq-xYKgkHuC4XFjGFnDX-41" value="密集波峰且间隔有别于正常运动轨迹" style="rounded=0;whiteSpace=wrap;html=1;fontSize=12;" vertex="1" parent="1">
          <mxGeometry x="288" y="710" width="100" height="50" as="geometry" />
        </mxCell>
        <mxCell id="uq-xYKgkHuC4XFjGFnDX-46" value="" style="endArrow=classic;html=1;rounded=0;fontSize=12;entryX=0.096;entryY=0.181;entryDx=0;entryDy=0;entryPerimeter=0;exitX=0.75;exitY=0;exitDx=0;exitDy=0;strokeColor=#FF3399;dashed=1;startArrow=diamondThin;startFill=0;" edge="1" parent="1" source="uq-xYKgkHuC4XFjGFnDX-34" target="uq-xYKgkHuC4XFjGFnDX-43">
          <mxGeometry width="50" height="50" relative="1" as="geometry">
            <mxPoint x="60" y="580" as="sourcePoint" />
            <mxPoint x="110" y="530" as="targetPoint" />
            <Array as="points">
              <mxPoint x="150" y="580" />
              <mxPoint x="360" y="580" />
            </Array>
          </mxGeometry>
        </mxCell>
        <mxCell id="uq-xYKgkHuC4XFjGFnDX-47" value="" style="endArrow=classic;html=1;rounded=0;fontSize=12;exitX=0.75;exitY=0;exitDx=0;exitDy=0;strokeColor=#3333FF;dashed=1;startArrow=diamondThin;startFill=0;" edge="1" parent="1">
          <mxGeometry width="50" height="50" relative="1" as="geometry">
            <mxPoint x="239.98000000000002" y="620" as="sourcePoint" />
            <mxPoint x="410" y="550" as="targetPoint" />
            <Array as="points">
              <mxPoint x="239.98000000000002" y="580" />
              <mxPoint x="390" y="580" />
            </Array>
          </mxGeometry>
        </mxCell>
        <mxCell id="uq-xYKgkHuC4XFjGFnDX-49" value="" style="endArrow=classic;startArrow=classic;html=1;rounded=0;dashed=1;strokeColor=#66CC00;fontSize=12;" edge="1" parent="1">
          <mxGeometry width="50" height="50" relative="1" as="geometry">
            <mxPoint x="390" y="450" as="sourcePoint" />
            <mxPoint x="410" y="550" as="targetPoint" />
            <Array as="points">
              <mxPoint x="400" y="500" />
            </Array>
          </mxGeometry>
        </mxCell>
        <mxCell id="uq-xYKgkHuC4XFjGFnDX-50" value="&lt;font color=&quot;#ff0000&quot; style=&quot;font-size: 11px;&quot;&gt;往返运动&lt;/font&gt;" style="edgeLabel;html=1;align=center;verticalAlign=middle;resizable=0;points=[];fontSize=12;rotation=75;" vertex="1" connectable="0" parent="uq-xYKgkHuC4XFjGFnDX-49">
          <mxGeometry x="-0.0614" relative="1" as="geometry">
            <mxPoint as="offset" />
          </mxGeometry>
        </mxCell>
        <mxCell id="uq-xYKgkHuC4XFjGFnDX-51" value="" style="endArrow=classic;html=1;rounded=0;dashed=1;strokeColor=#00CCCC;fontSize=11;fontColor=#FF0000;exitX=0.5;exitY=0;exitDx=0;exitDy=0;entryX=0.312;entryY=0.847;entryDx=0;entryDy=0;entryPerimeter=0;" edge="1" parent="1" source="uq-xYKgkHuC4XFjGFnDX-37" target="uq-xYKgkHuC4XFjGFnDX-43">
          <mxGeometry width="50" height="50" relative="1" as="geometry">
            <mxPoint x="194.94947645399304" y="700" as="sourcePoint" />
            <mxPoint x="520" y="710" as="targetPoint" />
            <Array as="points">
              <mxPoint x="400" y="690" />
            </Array>
          </mxGeometry>
        </mxCell>
        <mxCell id="uq-xYKgkHuC4XFjGFnDX-52" value="" style="endArrow=classic;html=1;rounded=0;dashed=1;strokeColor=#00CCCC;fontSize=11;fontColor=#FF0000;" edge="1" parent="1">
          <mxGeometry width="50" height="50" relative="1" as="geometry">
            <mxPoint x="190" y="710" as="sourcePoint" />
            <mxPoint x="507" y="432" as="targetPoint" />
            <Array as="points">
              <mxPoint x="420" y="700" />
            </Array>
          </mxGeometry>
        </mxCell>
        <mxCell id="uq-xYKgkHuC4XFjGFnDX-53" value="" style="endArrow=classic;html=1;rounded=0;dashed=1;strokeColor=#FF0000;fontSize=11;fontColor=#FF0000;exitX=1;exitY=0.5;exitDx=0;exitDy=0;" edge="1" parent="1" source="uq-xYKgkHuC4XFjGFnDX-41">
          <mxGeometry width="50" height="50" relative="1" as="geometry">
            <mxPoint x="350" y="837" as="sourcePoint" />
            <mxPoint x="670" y="497" as="targetPoint" />
            <Array as="points">
              <mxPoint x="490" y="735" />
            </Array>
          </mxGeometry>
        </mxCell>
        <mxCell id="uq-xYKgkHuC4XFjGFnDX-54" value="" style="rounded=1;whiteSpace=wrap;html=1;fontSize=11;fontColor=#FF0000;fillColor=none;dashed=1;strokeColor=#00CCCC;" vertex="1" parent="1">
          <mxGeometry x="650" y="452.65" width="60" height="77.35" as="geometry" />
        </mxCell>
        <mxCell id="uq-xYKgkHuC4XFjGFnDX-55" value="杆数输出&amp;amp;&amp;amp;长度分析" style="rounded=0;whiteSpace=wrap;html=1;strokeColor=#000000;fontSize=11;fontColor=#FF0000;fillColor=none;" vertex="1" parent="1">
          <mxGeometry x="210" y="800" width="90" height="40" as="geometry" />
        </mxCell>
      </root>
    </mxGraphModel>
  </diagram>
</mxfile>
